SplineFontDB: 3.2
FontName: Lato-Bold
FullName: Lato Bold
FamilyName: Lato
Weight: Bold
Copyright: Copyright (c) 2010-2011 by tyPoland Lukasz Dziedzic with Reserved Font Name "Lato". Licensed under the SIL Open Font License, Version 1.1.
Version: 1.104; Western+Polish opensource
ItalicAngle: 0
UnderlinePosition: -200
UnderlineWidth: 160
Ascent: 1610
Descent: 390
InvalidEm: 0
sfntRevision: 0x00011aa0
LayerCount: 2
Layer: 0 1 "Back" 1
Layer: 1 1 "Fore" 0
XUID: [1021 665 200184042 13013529]
StyleMap: 0x0020
FSType: 0
OS2Version: 3
OS2_WeightWidthSlopeOnly: 0
OS2_UseTypoMetrics: 0
CreationTime: 1315810800
ModificationTime: 1626813328
PfmFamily: 17
TTFWeight: 700
TTFWidth: 5
LineGap: 0
VLineGap: 0
Panose: 2 15 8 2 2 2 4 3 2 3
OS2TypoAscent: 1610
OS2TypoAOffset: 0
OS2TypoDescent: -390
OS2TypoDOffset: 0
OS2TypoLinegap: 400
OS2WinAscent: 1974
OS2WinAOffset: 0
OS2WinDescent: 426
OS2WinDOffset: 0
HheadAscent: 1974
HheadAOffset: 0
HheadDescent: -426
HheadDOffset: 0
OS2SubXSize: 1400
OS2SubYSize: 1300
OS2SubXOff: 0
OS2SubYOff: 280
OS2SupXSize: 1400
OS2SupYSize: 1300
OS2SupXOff: 0
OS2SupYOff: 954
OS2StrikeYSize: 160
OS2StrikeYPos: 500
OS2CapHeight: 1446
OS2XHeight: 1026
OS2FamilyClass: 2051
OS2Vendor: 'tyPL'
OS2CodePages: 20000093.00000000
OS2UnicodeRanges: 8000002f.0000004a.00000000.00000000
Lookup: 4 0 1 "'liga' Standard Ligatures in Latin lookup 0" { "'liga' Standard Ligatures in Latin lookup 0 subtable"  } ['liga' ('DFLT' <'dflt' > 'latn' <'dflt' > ) ]
Lookup: 258 0 0 "'kern' Horizontal Kerning in Latin lookup 0" { "'kern' Horizontal Kerning in Latin lookup 0 subtable"  } ['kern' ('DFLT' <'dflt' > 'latn' <'dflt' > ) ]
DEI: 91125
TtTable: prep
PUSHW_2
 2048
 2048
MUL
DUP
PUSHB_1
 1
SWAP
WCVTP
DUP
PUSHB_1
 3
SWAP
WCVTF
PUSHB_1
 20
RCVT
DUP
DUP
PUSHB_1
 40
ADD
FLOOR
DUP
ROLL
NEQ
IF
PUSHB_1
 2
CINDEX
SUB
PUSHB_1
 1
RCVT
MUL
SWAP
DIV
PUSHB_1
 2
SWAP
WCVTP
PUSHB_4
 9
 10
 3
 2
CALL
PUSHB_4
 11
 16
 3
 2
CALL
PUSHB_4
 17
 22
 3
 2
CALL
EIF
PUSHB_3
 4
 40
 6
RCVT
GT
WCVTP
PUSHB_4

StartChar: .notdef
Encoding: 65536 -1 0
Width: 1094
Flags: W
LayerCount: 2
Fore
SplineSet
239 1147 m 1,0,1
 296 1193 296 1193 368.5 1224.5 c 128,-1,2
 441 1256 441 1256 540 1256 c 0,3,4
 610 1256 610 1256 666 1237 c 128,-1,5
 722 1218 722 1218 761 1183.5 c 128,-1,6
 800 1149 800 1149 820.5 1100.5 c 128,-1,7
 841 1052 841 1052 841 993 c 0,8,9
 841 938 841 938 827 898.5 c 128,-1,10
 813 859 813 859 792 829.5 c 128,-1,11
 771 800 771 800 746 779 c 128,-1,12
 721 758 721 758 698 739.5 c 128,-1,13
 675 721 675 721 657.5 703 c 128,-1,14
 640 685 640 685 635 663 c 2,15,-1
 613 567 l 1,16,-1
 444 567 l 1,17,-1
 427 681 l 2,18,19
 421 718 421 718 432.5 744.5 c 128,-1,20
 444 771 444 771 464.5 792.5 c 128,-1,21
 485 814 485 814 510.5 832.5 c 128,-1,22
 536 851 536 851 558.5 871.5 c 128,-1,23
 581 892 581 892 596.5 917.5 c 128,-1,24
 612 943 612 943 612 978 c 256,25,26
 612 1013 612 1013 588 1035 c 128,-1,27
 564 1057 564 1057 518 1057 c 0,28,29
 482 1057 482 1057 457.5 1050 c 128,-1,30
 433 1043 433 1043 415 1035 c 128,-1,31
 397 1027 397 1027 383.5 1020 c 128,-1,32
 370 1013 370 1013 355 1013 c 0,33,34
 321 1013 321 1013 305 1042 c 2,35,-1
 239 1147 l 1,0,1
385 313 m 0,36,37
 385 341 385 341 395.5 366 c 128,-1,38
 406 391 406 391 424 409.5 c 128,-1,39
 442 428 442 428 467 438.5 c 128,-1,40
 492 449 492 449 521 449 c 0,41,42
 549 449 549 449 573.5 438.5 c 128,-1,43
 598 428 598 428 616.5 409.5 c 128,-1,44
 635 391 635 391 645.5 366 c 128,-1,45
 656 341 656 341 656 313 c 0,46,47
 656 284 656 284 645.5 259.5 c 128,-1,48
 635 235 635 235 616.5 217 c 128,-1,49
 598 199 598 199 573.5 188.5 c 128,-1,50
 549 178 549 178 521 178 c 0,51,52
 492 178 492 178 467 188.5 c 128,-1,53
 442 199 442 199 424 217 c 128,-1,54
 406 235 406 235 395.5 259.5 c 128,-1,55
 385 284 385 284 385 313 c 0,36,37
42 1446 m 1,56,-1
 1052 1446 l 1,57,-1
 1052 0 l 1,58,-1
 42 0 l 1,59,-1
 42 1446 l 1,56,-1
107 69 m 1,60,-1
 980 69 l 1,61,-1
 980 1378 l 1,62,-1
 107 1378 l 1,63,-1
 107 69 l 1,60,-1
EndSplineSet
Validated: 33
EndChar

StartChar: exclam
Encoding: 33 33 4
Width: 721
Flags: W
LayerCount: 2
Fore
SplineSet
480 1446 m 1,0,-1
 480 874 l 2,1,2
 480 783 480 783 471 695.5 c 128,-1,3
 462 608 462 608 447 510 c 1,4,-1
 280 510 l 1,5,6
 265 608 265 608 256 695.5 c 128,-1,7
 247 783 247 783 247 874 c 2,8,-1
 247 1446 l 1,9,-1
 480 1446 l 1,0,-1
209 136 m 0,10,11
 209 167 209 167 220.5 195 c 128,-1,12
 232 223 232 223 252.5 243 c 128,-1,13
 273 263 273 263 301 275 c 128,-1,14
 329 287 329 287 361 287 c 0,15,16
 392 287 392 287 420 275 c 128,-1,17
 448 263 448 263 468 243 c 128,-1,18
 488 223 488 223 500 195 c 128,-1,19
 512 167 512 167 512 136 c 0,20,21
 512 104 512 104 500 76.5 c 128,-1,22
 488 49 488 49 468 29 c 128,-1,23
 448 9 448 9 420 -2.5 c 128,-1,24
 392 -14 392 -14 361 -14 c 0,25,26
 329 -14 329 -14 301 -2.5 c 128,-1,27
 273 9 273 9 252.5 29 c 128,-1,28
 232 49 232 49 220.5 76.5 c 128,-1,29
 209 104 209 104 209 136 c 0,10,11
EndSplineSet
Validated: 1
EndChar

StartChar: quotedbl
Encoding: 34 34 5
Width: 844
Flags: W
LayerCount: 2
Fore
SplineSet
346 1446 m 1,0,-1
 346 1158 l 1,1,-1
 323 1002 l 2,2,3
 316 958 316 958 297.5 934.5 c 128,-1,4
 279 911 279 911 237 911 c 0,5,6
 201 911 201 911 180 934.5 c 128,-1,7
 159 958 159 958 153 1002 c 2,8,-1
 131 1158 l 1,9,-1
 131 1446 l 1,10,-1
 346 1446 l 1,0,-1
714 1446 m 1,11,-1
 714 1158 l 1,12,-1
 691 1002 l 2,13,14
 684 958 684 958 665.5 934.5 c 128,-1,15
 647 911 647 911 605 911 c 0,16,17
 569 911 569 911 548 934.5 c 128,-1,18
 527 958 527 958 521 1002 c 2,19,-1
 499 1158 l 1,20,-1
 499 1446 l 1,21,-1
 714 1446 l 1,11,-1
EndSplineSet
Validated: 1
EndChar

StartChar: numbersign
Encoding: 35 35 6
Width: 1160
Flags: W
LayerCount: 2
Fore
SplineSet
831 408 m 1,0,-1
 754 0 l 1,1,-1
 641 0 l 2,2,3
 611 0 611 0 589 24 c 128,-1,4
 567 48 567 48 567 83 c 0,5,6
 567 88 567 88 567.5 92.5 c 128,-1,7
 568 97 568 97 569 102 c 2,8,-1
 628 408 l 1,9,-1
 423 408 l 1,10,-1
 365 90 l 2,11,12
 356 42 356 42 324 21 c 128,-1,13
 292 0 292 0 253 0 c 2,14,-1
 144 0 l 1,15,-1
 220 408 l 1,16,-1
 105 408 l 2,17,18
 73 408 73 408 56 423.5 c 128,-1,19
 39 439 39 439 39 475 c 0,20,21
 39 489 39 489 42 507 c 2,22,-1
 55 586 l 1,23,-1
 245 586 l 1,24,-1
 297 862 l 1,25,-1
 83 862 l 1,26,-1
 102 965 l 2,27,28
 109 1003 109 1003 133 1021.5 c 128,-1,29
 157 1040 157 1040 211 1040 c 2,30,-1
 322 1040 l 1,31,-1
 384 1362 l 2,32,33
 392 1402 392 1402 421 1424 c 128,-1,34
 450 1446 450 1446 489 1446 c 2,35,-1
 601 1446 l 1,36,-1
 525 1040 l 1,37,-1
 729 1040 l 1,38,-1
 806 1446 l 1,39,-1
 916 1446 l 2,40,41
 951 1446 951 1446 973 1426 c 128,-1,42
 995 1406 995 1406 995 1375 c 0,43,44
 995 1365 995 1365 994 1360 c 2,45,-1
 932 1040 l 1,46,-1
 1135 1040 l 1,47,-1
 1116 937 l 2,48,49
 1109 899 1109 899 1084.5 880.5 c 128,-1,50
 1060 862 1060 862 1007 862 c 2,51,-1
 907 862 l 1,52,-1
 856 586 l 1,53,-1
 998 586 l 2,54,55
 1030 586 1030 586 1046.5 570.5 c 128,-1,56
 1063 555 1063 555 1063 518 c 0,57,58
 1063 504 1063 504 1060 486 c 2,59,-1
 1048 408 l 1,60,-1
 831 408 l 1,0,-1
448 586 m 1,61,-1
 653 586 l 1,62,-1
 704 862 l 1,63,-1
 500 862 l 1,64,-1
 448 586 l 1,61,-1
EndSplineSet
Validated: 1
EndChar

StartChar: dollar
Encoding: 36 36 7
Width: 1160
Flags: W
LayerCount: 2
Fore
SplineSet
463 -9 m 1,0,1
 346 7 346 7 243.5 55 c 128,-1,2
 141 103 141 103 69 174 c 1,3,-1
 145 287 l 2,4,5
 155 302 155 302 171.5 311.5 c 128,-1,6
 188 321 188 321 206 321 c 0,7,8
 228 321 228 321 253 305.5 c 128,-1,9
 278 290 278 290 310 269 c 128,-1,10
 342 248 342 248 383 227 c 128,-1,11
 424 206 424 206 480 196 c 1,12,-1
 518 644 l 1,13,14
 447 664 447 664 377.5 691 c 128,-1,15
 308 718 308 718 252.5 762.5 c 128,-1,16
 197 807 197 807 163 875 c 128,-1,17
 129 943 129 943 129 1045 c 0,18,19
 129 1121 129 1121 159.5 1193.5 c 128,-1,20
 190 1266 190 1266 248 1323 c 128,-1,21
 306 1380 306 1380 391 1417 c 128,-1,22
 476 1454 476 1454 586 1459 c 1,23,-1
 597 1585 l 2,24,25
 599 1609 599 1609 617 1628 c 128,-1,26
 635 1647 635 1647 664 1647 c 2,27,-1
 755 1647 l 1,28,-1
 738 1450 l 1,29,30
 844 1433 844 1433 921 1390 c 128,-1,31
 998 1347 998 1347 1055 1293 c 1,32,-1
 995 1202 l 2,33,34
 981 1182 981 1182 967 1172 c 128,-1,35
 953 1162 953 1162 933 1162 c 0,36,37
 918 1162 918 1162 897.5 1171.5 c 128,-1,38
 877 1181 877 1181 850.5 1194.5 c 128,-1,39
 824 1208 824 1208 792 1222 c 128,-1,40
 760 1236 760 1236 721 1245 c 1,41,-1
 686 831 l 1,42,43
 758 809 758 809 828.5 782.5 c 128,-1,44
 899 756 899 756 955.5 714 c 128,-1,45
 1012 672 1012 672 1047 609.5 c 128,-1,46
 1082 547 1082 547 1082 453 c 0,47,48
 1082 360 1082 360 1051 278.5 c 128,-1,49
 1020 197 1020 197 960.5 134.5 c 128,-1,50
 901 72 901 72 814 33 c 128,-1,51
 727 -6 727 -6 615 -14 c 1,52,-1
 603 -161 l 2,53,54
 601 -184 601 -184 583 -203.5 c 128,-1,55
 565 -223 565 -223 536 -223 c 2,56,-1
 445 -223 l 1,57,-1
 463 -9 l 1,0,1
848 415 m 0,58,59
 848 453 848 453 834.5 481.5 c 128,-1,60
 821 510 821 510 796.5 532 c 128,-1,61
 772 554 772 554 739 570 c 128,-1,62
 706 586 706 586 667 599 c 1,63,-1
 633 193 l 1,64,65
 739 207 739 207 793.5 264.5 c 128,-1,66
 848 322 848 322 848 415 c 0,58,59
362 1069 m 0,67,68
 362 1031 362 1031 375 1002 c 128,-1,69
 388 973 388 973 411.5 950.5 c 128,-1,70
 435 928 435 928 467 910.5 c 128,-1,71
 499 893 499 893 537 879 c 1,72,-1
 568 1249 l 1,73,74
 513 1242 513 1242 474 1225.5 c 128,-1,75
 435 1209 435 1209 410 1185 c 128,-1,76
 385 1161 385 1161 373.5 1131.5 c 128,-1,77
 362 1102 362 1102 362 1069 c 0,67,68
EndSplineSet
Validated: 1
EndChar

StartChar: percent
Encoding: 37 37 8
Width: 1606
Flags: W
LayerCount: 2
Fore
SplineSet
729 1096 m 0,0,1
 729 1014 729 1014 701.5 948 c 128,-1,2
 674 882 674 882 628 835.5 c 128,-1,3
 582 789 582 789 521 764 c 128,-1,4
 460 739 460 739 394 739 c 0,5,6
 322 739 322 739 261 764 c 128,-1,7
 200 789 200 789 155.5 835.5 c 128,-1,8
 111 882 111 882 86 948 c 128,-1,9
 61 1014 61 1014 61 1096 c 0,10,11
 61 1180 61 1180 86 1248 c 128,-1,12
 111 1316 111 1316 155.5 1363 c 128,-1,13
 200 1410 200 1410 261 1435.5 c 128,-1,14
 322 1461 322 1461 394 1461 c 256,15,16
 466 1461 466 1461 527.5 1435.5 c 128,-1,17
 589 1410 589 1410 634 1363 c 128,-1,18
 679 1316 679 1316 704 1248 c 128,-1,19
 729 1180 729 1180 729 1096 c 0,0,1
538 1096 m 0,20,21
 538 1154 538 1154 527 1193 c 128,-1,22
 516 1232 516 1232 496.5 1256 c 128,-1,23
 477 1280 477 1280 450.5 1290.5 c 128,-1,24
 424 1301 424 1301 394 1301 c 256,25,26
 364 1301 364 1301 338 1290.5 c 128,-1,27
 312 1280 312 1280 293 1256 c 128,-1,28
 274 1232 274 1232 263.5 1193 c 128,-1,29
 253 1154 253 1154 253 1096 c 0,30,31
 253 1040 253 1040 263.5 1002.5 c 128,-1,32
 274 965 274 965 293 942 c 128,-1,33
 312 919 312 919 338 909 c 128,-1,34
 364 899 364 899 394 899 c 256,35,36
 424 899 424 899 450.5 909 c 128,-1,37
 477 919 477 919 496.5 942 c 128,-1,38
 516 965 516 965 527 1002.5 c 128,-1,39
 538 1040 538 1040 538 1096 c 0,20,21
1210 1407 m 2,40,41
 1222 1422 1222 1422 1240 1434 c 128,-1,42
 1258 1446 1258 1446 1290 1446 c 2,43,-1
 1469 1446 l 1,44,-1
 395 37 l 2,45,46
 383 21 383 21 364.5 10.5 c 128,-1,47
 346 0 346 0 320 0 c 2,48,-1
 136 0 l 1,49,-1
 1210 1407 l 2,40,41
1545 340 m 0,50,51
 1545 258 1545 258 1517.5 192 c 128,-1,52
 1490 126 1490 126 1444 79.5 c 128,-1,53
 1398 33 1398 33 1337 7.5 c 128,-1,54
 1276 -18 1276 -18 1210 -18 c 0,55,56
 1138 -18 1138 -18 1077 7.5 c 128,-1,57
 1016 33 1016 33 971.5 79.5 c 128,-1,58
 927 126 927 126 902 192 c 128,-1,59
 877 258 877 258 877 340 c 0,60,61
 877 424 877 424 902 492 c 128,-1,62
 927 560 927 560 971.5 607 c 128,-1,63
 1016 654 1016 654 1077 679.5 c 128,-1,64
 1138 705 1138 705 1210 705 c 256,65,66
 1282 705 1282 705 1343.5 679.5 c 128,-1,67
 1405 654 1405 654 1450 607 c 128,-1,68
 1495 560 1495 560 1520 492 c 128,-1,69
 1545 424 1545 424 1545 340 c 0,50,51
1355 340 m 0,70,71
 1355 398 1355 398 1343.5 437 c 128,-1,72
 1332 476 1332 476 1312.5 500 c 128,-1,73
 1293 524 1293 524 1266.5 534.5 c 128,-1,74
 1240 545 1240 545 1210 545 c 256,75,76
 1180 545 1180 545 1154 534.5 c 128,-1,77
 1128 524 1128 524 1109.5 500 c 128,-1,78
 1091 476 1091 476 1080 437 c 128,-1,79
 1069 398 1069 398 1069 340 c 0,80,81
 1069 284 1069 284 1080 246 c 128,-1,82
 1091 208 1091 208 1109.5 185 c 128,-1,83
 1128 162 1128 162 1154 152 c 128,-1,84
 1180 142 1180 142 1210 142 c 256,85,86
 1240 142 1240 142 1266.5 152 c 128,-1,87
 1293 162 1293 162 1312.5 185 c 128,-1,88
 1332 208 1332 208 1343.5 246 c 128,-1,89
 1355 284 1355 284 1355 340 c 0,70,71
EndSplineSet
Validated: 1
EndChar

StartChar: ampersand
Encoding: 38 38 9
Width: 1428
Flags: W
LayerCount: 2
Fore
SplineSet
663 1462 m 0,0,1
 751 1462 751 1462 820.5 1435 c 128,-1,2
 890 1408 890 1408 939.5 1363 c 128,-1,3
 989 1318 989 1318 1017.5 1260 c 128,-1,4
 1046 1202 1046 1202 1051 1140 c 1,5,-1
 894 1107 l 2,6,7
 891 1106 891 1106 887.5 1106 c 128,-1,8
 884 1106 884 1106 881 1106 c 0,9,10
 864 1106 864 1106 850.5 1115.5 c 128,-1,11
 837 1125 837 1125 829 1145 c 0,12,13
 820 1171 820 1171 806 1194.5 c 128,-1,14
 792 1218 792 1218 772 1235.5 c 128,-1,15
 752 1253 752 1253 725 1263.5 c 128,-1,16
 698 1274 698 1274 663 1274 c 0,17,18
 621 1274 621 1274 588 1259.5 c 128,-1,19
 555 1245 555 1245 532 1220.5 c 128,-1,20
 509 1196 509 1196 497 1163.5 c 128,-1,21
 485 1131 485 1131 485 1095 c 0,22,23
 485 1065 485 1065 491.5 1037 c 128,-1,24
 498 1009 498 1009 512 981 c 128,-1,25
 526 953 526 953 548.5 923.5 c 128,-1,26
 571 894 571 894 604 860 c 2,27,-1
 988 461 l 1,28,29
 1021 524 1021 524 1041 594 c 128,-1,30
 1061 664 1061 664 1067 736 c 0,31,32
 1069 759 1069 759 1082 773 c 128,-1,33
 1095 787 1095 787 1118 787 c 2,34,-1
 1273 787 l 1,35,36
 1272 655 1272 655 1235 535 c 128,-1,37
 1198 415 1198 415 1129 314 c 1,38,-1
 1432 0 l 1,39,-1
 1190 0 l 2,40,41
 1171 0 1171 0 1156.5 2 c 128,-1,42
 1142 4 1142 4 1129 9.5 c 128,-1,43
 1116 15 1116 15 1104 24 c 128,-1,44
 1092 33 1092 33 1079 47 c 2,45,-1
 979 150 l 1,46,47
 883 72 883 72 765.5 28 c 128,-1,48
 648 -16 648 -16 511 -16 c 0,49,50
 427 -16 427 -16 347 12.5 c 128,-1,51
 267 41 267 41 204 95 c 128,-1,52
 141 149 141 149 102.5 225.5 c 128,-1,53
 64 302 64 302 64 398 c 0,54,55
 64 465 64 465 86 525.5 c 128,-1,56
 108 586 108 586 147 638 c 128,-1,57
 186 690 186 690 239.5 732 c 128,-1,58
 293 774 293 774 357 804 c 1,59,60
 304 879 304 879 279.5 950.5 c 128,-1,61
 255 1022 255 1022 255 1093 c 0,62,63
 255 1168 255 1168 282.5 1235.5 c 128,-1,64
 310 1303 310 1303 362.5 1353 c 128,-1,65
 415 1403 415 1403 491 1432.5 c 128,-1,66
 567 1462 567 1462 663 1462 c 0,0,1
315 418 m 0,67,68
 315 363 315 363 334 319 c 128,-1,69
 353 275 353 275 386 244.5 c 128,-1,70
 419 214 419 214 462.5 197.5 c 128,-1,71
 506 181 506 181 555 181 c 0,72,73
 643 181 643 181 715.5 208.5 c 128,-1,74
 788 236 788 236 848 285 c 1,75,-1
 468 675 l 1,76,77
 388 623 388 623 351.5 558 c 128,-1,78
 315 493 315 493 315 418 c 0,67,68
EndSplineSet
Validated: 1
EndChar

StartChar: quotesingle
Encoding: 39 39 10
Width: 476
Flags: W
LayerCount: 2
Fore
SplineSet
346 1446 m 1,0,-1
 346 1158 l 1,1,-1
 323 1002 l 2,2,3
 316 958 316 958 297.5 934.5 c 128,-1,4
 279 911 279 911 237 911 c 0,5,6
 201 911 201 911 180 934.5 c 128,-1,7
 159 958 159 958 153 1002 c 2,8,-1
 131 1158 l 1,9,-1
 131 1446 l 1,10,-1
 346 1446 l 1,0,-1
EndSplineSet
Validated: 1
EndChar

StartChar: parenleft
Encoding: 40 40 11
Width: 600
Flags: W
LayerCount: 2
Fore
SplineSet
320 627 m 256,0,1
 320 421 320 421 370 222 c 128,-1,2
 420 23 420 23 513 -152 c 0,3,4
 520 -165 520 -165 522.5 -176 c 128,-1,5
 525 -187 525 -187 525 -196 c 0,6,7
 525 -216 525 -216 515 -228.5 c 128,-1,8
 505 -241 505 -241 491 -249 c 2,9,-1
 381 -316 l 1,10,11
 307 -202 307 -202 255 -87 c 128,-1,12
 203 28 203 28 170 145 c 128,-1,13
 137 262 137 262 121.5 382 c 128,-1,14
 106 502 106 502 106 627 c 256,15,16
 106 752 106 752 121.5 872.5 c 128,-1,17
 137 993 137 993 170 1110 c 128,-1,18
 203 1227 203 1227 255 1341.5 c 128,-1,19
 307 1456 307 1456 381 1570 c 1,20,-1
 491 1504 l 2,21,22
 505 1496 505 1496 515 1483.5 c 128,-1,23
 525 1471 525 1471 525 1452 c 256,24,25
 525 1433 525 1433 512 1407 c 0,26,27
 420 1232 420 1232 370 1032.5 c 128,-1,28
 320 833 320 833 320 627 c 256,0,1
EndSplineSet
Validated: 1
EndChar

StartChar: parenright
Encoding: 41 41 12
Width: 600
Flags: W
LayerCount: 2
Fore
SplineSet
280 627 m 256,0,1
 280 833 280 833 230 1032.5 c 128,-1,2
 180 1232 180 1232 88 1407 c 0,3,4
 75 1433 75 1433 75 1452 c 256,5,6
 75 1471 75 1471 85 1483.5 c 128,-1,7
 95 1496 95 1496 109 1504 c 2,8,-1
 219 1570 l 1,9,10
 293 1456 293 1456 345 1341.5 c 128,-1,11
 397 1227 397 1227 430 1110 c 128,-1,12
 463 993 463 993 478.5 872.5 c 128,-1,13
 494 752 494 752 494 627 c 256,14,15
 494 502 494 502 478.5 382 c 128,-1,16
 463 262 463 262 430 145 c 128,-1,17
 397 28 397 28 345 -87 c 128,-1,18
 293 -202 293 -202 219 -316 c 1,19,-1
 109 -249 l 2,20,21
 95 -241 95 -241 85 -228.5 c 128,-1,22
 75 -216 75 -216 75 -196 c 0,23,24
 75 -187 75 -187 77.5 -176 c 128,-1,25
 80 -165 80 -165 87 -152 c 0,26,27
 180 23 180 23 230 222 c 128,-1,28
 280 421 280 421 280 627 c 256,0,1
EndSplineSet
Validated: 1
EndChar

StartChar: asterisk
Encoding: 42 42 13
Width: 800
Flags: W
LayerCount: 2
Fore
SplineSet
340 837 m 1,0,-1
 340 1020 l 2,1,2
 340 1040 340 1040 342.5 1059 c 128,-1,3
 345 1078 345 1078 351 1095 c 1,4,5
 340 1081 340 1081 325 1070 c 128,-1,6
 310 1059 310 1059 293 1048 c 2,7,-1
 135 956 l 1,8,-1
 76 1056 l 1,9,-1
 235 1148 l 2,10,11
 253 1159 253 1159 270.5 1166 c 128,-1,12
 288 1173 288 1173 307 1176 c 1,13,14
 288 1178 288 1178 270.5 1186 c 128,-1,15
 253 1194 253 1194 235 1205 c 2,16,-1
 76 1298 l 1,17,-1
 134 1398 l 1,18,-1
 293 1304 l 2,19,20
 310 1293 310 1293 325.5 1281.5 c 128,-1,21
 341 1270 341 1270 352 1256 c 1,22,23
 345 1273 345 1273 342.5 1292 c 128,-1,24
 340 1311 340 1311 340 1331 c 2,25,-1
 340 1516 l 1,26,-1
 458 1516 l 1,27,-1
 458 1333 l 2,28,29
 458 1312 458 1312 455.5 1292.5 c 128,-1,30
 453 1273 453 1273 446 1256 c 1,31,32
 457 1270 457 1270 472 1281.5 c 128,-1,33
 487 1293 487 1293 505 1304 c 2,34,-1
 663 1396 l 1,35,-1
 722 1296 l 1,36,-1
 563 1205 l 2,37,38
 545 1194 545 1194 527.5 1186.5 c 128,-1,39
 510 1179 510 1179 491 1176 c 1,40,41
 525 1170 525 1170 563 1148 c 2,42,-1
 722 1055 l 1,43,-1
 664 955 l 1,44,-1
 505 1048 l 2,45,46
 487 1059 487 1059 472 1070 c 128,-1,47
 457 1081 457 1081 445 1095 c 1,48,49
 458 1063 458 1063 458 1021 c 2,50,-1
 458 837 l 1,51,-1
 340 837 l 1,0,-1
EndSplineSet
Validated: 1
EndChar

StartChar: plus
Encoding: 43 43 14
Width: 1160
Flags: W
LayerCount: 2
Fore
SplineSet
678 1173 m 1,0,-1
 678 763 l 1,1,-1
 1067 763 l 1,2,-1
 1067 580 l 1,3,-1
 678 580 l 1,4,-1
 678 168 l 1,5,-1
 478 168 l 1,6,-1
 478 580 l 1,7,-1
 91 580 l 1,8,-1
 91 763 l 1,9,-1
 478 763 l 1,10,-1
 478 1173 l 1,11,-1
 678 1173 l 1,0,-1
EndSplineSet
Validated: 1
EndChar

StartChar: comma
Encoding: 44 44 15
Width: 450
Flags: W
LayerCount: 2
Fore
SplineSet
80 152 m 0,0,1
 80 180 80 180 90.5 204.5 c 128,-1,2
 101 229 101 229 120 247.5 c 128,-1,3
 139 266 139 266 166 276.5 c 128,-1,4
 193 287 193 287 225 287 c 0,5,6
 263 287 263 287 291 273.5 c 128,-1,7
 319 260 319 260 338 236.5 c 128,-1,8
 357 213 357 213 366 182.5 c 128,-1,9
 375 152 375 152 375 118 c 0,10,11
 375 70 375 70 360.5 17 c 128,-1,12
 346 -36 346 -36 318 -89 c 128,-1,13
 290 -142 290 -142 249 -192 c 128,-1,14
 208 -242 208 -242 155 -284 c 1,15,-1
 112 -245 l 2,16,17
 94 -230 94 -230 94 -208 c 0,18,19
 94 -200 94 -200 99.5 -190 c 128,-1,20
 105 -180 105 -180 113 -172 c 0,21,22
 124 -160 124 -160 140 -142.5 c 128,-1,23
 156 -125 156 -125 172 -102.5 c 128,-1,24
 188 -80 188 -80 201.5 -53.5 c 128,-1,25
 215 -27 215 -27 221 3 c 1,26,27
 190 3 190 3 164 14.5 c 128,-1,28
 138 26 138 26 119.5 46 c 128,-1,29
 101 66 101 66 90.5 93 c 128,-1,30
 80 120 80 120 80 152 c 0,0,1
EndSplineSet
Validated: 1
EndChar

StartChar: hyphen
Encoding: 45 45 16
Width: 718
Flags: W
LayerCount: 2
Fore
SplineSet
100 707 m 1,0,-1
 618 707 l 1,1,-1
 618 501 l 1,2,-1
 100 501 l 1,3,-1
 100 707 l 1,0,-1
EndSplineSet
Validated: 1
EndChar

StartChar: period
Encoding: 46 46 17
Width: 450
Flags: W
LayerCount: 2
Fore
SplineSet
73 136 m 0,0,1
 73 167 73 167 84.5 195 c 128,-1,2
 96 223 96 223 116.5 243 c 128,-1,3
 137 263 137 263 165 275 c 128,-1,4
 193 287 193 287 225 287 c 0,5,6
 256 287 256 287 284 275 c 128,-1,7
 312 263 312 263 332 243 c 128,-1,8
 352 223 352 223 364 195 c 128,-1,9
 376 167 376 167 376 136 c 0,10,11
 376 104 376 104 364 76.5 c 128,-1,12
 352 49 352 49 332 29 c 128,-1,13
 312 9 312 9 284 -2.5 c 128,-1,14
 256 -14 256 -14 225 -14 c 0,15,16
 193 -14 193 -14 165 -2.5 c 128,-1,17
 137 9 137 9 116.5 29 c 128,-1,18
 96 49 96 49 84.5 76.5 c 128,-1,19
 73 104 73 104 73 136 c 0,0,1
EndSplineSet
Validated: 1
EndChar

StartChar: slash
Encoding: 47 47 18
Width: 774
Flags: W
LayerCount: 2
Fore
SplineSet
218 -3 m 2,0,1
 209 -26 209 -26 195 -43 c 128,-1,2
 181 -60 181 -60 163 -71.5 c 128,-1,3
 145 -83 145 -83 125 -89 c 128,-1,4
 105 -95 105 -95 86 -95 c 2,5,-1
 -18 -95 l 1,6,-1
 566 1399 l 2,7,8
 583 1441 583 1441 615 1463.5 c 128,-1,9
 647 1486 647 1486 692 1486 c 2,10,-1
 797 1486 l 1,11,-1
 218 -3 l 2,0,1
EndSplineSet
Validated: 1
EndChar

StartChar: zero
Encoding: 48 48 19
Width: 1160
Flags: W
LayerCount: 2
Fore
SplineSet
1110 723 m 0,0,1
 1110 534 1110 534 1069.5 394.5 c 128,-1,2
 1029 255 1029 255 957.5 164 c 128,-1,3
 886 73 886 73 788.5 28.5 c 128,-1,4
 691 -16 691 -16 578 -16 c 256,5,6
 465 -16 465 -16 368.5 28.5 c 128,-1,7
 272 73 272 73 201 164 c 128,-1,8
 130 255 130 255 90 394.5 c 128,-1,9
 50 534 50 534 50 723 c 0,10,11
 50 913 50 913 90 1052 c 128,-1,12
 130 1191 130 1191 201 1282 c 128,-1,13
 272 1373 272 1373 368.5 1417.5 c 128,-1,14
 465 1462 465 1462 578 1462 c 256,15,16
 691 1462 691 1462 788.5 1417.5 c 128,-1,17
 886 1373 886 1373 957.5 1282 c 128,-1,18
 1029 1191 1029 1191 1069.5 1052 c 128,-1,19
 1110 913 1110 913 1110 723 c 0,0,1
855 723 m 256,20,21
 855 880 855 880 832 983 c 128,-1,22
 809 1086 809 1086 770.5 1147 c 128,-1,23
 732 1208 732 1208 682 1232.5 c 128,-1,24
 632 1257 632 1257 578 1257 c 0,25,26
 525 1257 525 1257 475.5 1232.5 c 128,-1,27
 426 1208 426 1208 388 1147 c 128,-1,28
 350 1086 350 1086 327.5 983 c 128,-1,29
 305 880 305 880 305 723 c 256,30,31
 305 566 305 566 327.5 463 c 128,-1,32
 350 360 350 360 388 299 c 128,-1,33
 426 238 426 238 475.5 213.5 c 128,-1,34
 525 189 525 189 578 189 c 0,35,36
 632 189 632 189 682 213.5 c 128,-1,37
 732 238 732 238 770.5 299 c 128,-1,38
 809 360 809 360 832 463 c 128,-1,39
 855 566 855 566 855 723 c 256,20,21
EndSplineSet
Validated: 1
EndChar

StartChar: one
Encoding: 49 49 20
Width: 1160
Flags: W
LayerCount: 2
Fore
SplineSet
269 185 m 1,0,-1
 562 185 l 1,1,-1
 562 1028 l 2,2,3
 562 1077 562 1077 565 1131 c 1,4,-1
 357 957 l 2,5,6
 344 946 344 946 330.5 942 c 128,-1,7
 317 938 317 938 304 938 c 0,8,9
 284 938 284 938 267.5 946.5 c 128,-1,10
 251 955 251 955 243 966 c 2,11,-1
 165 1073 l 1,12,-1
 606 1448 l 1,13,-1
 809 1448 l 1,14,-1
 809 185 l 1,15,-1
 1069 185 l 1,16,-1
 1069 0 l 1,17,-1
 269 0 l 1,18,-1
 269 185 l 1,0,-1
EndSplineSet
Validated: 1
EndChar

StartChar: two
Encoding: 50 50 21
Width: 1160
Flags: W
LayerCount: 2
Fore
SplineSet
602 1462 m 0,0,1
 702 1462 702 1462 785 1432.5 c 128,-1,2
 868 1403 868 1403 927 1349 c 128,-1,3
 986 1295 986 1295 1019 1219 c 128,-1,4
 1052 1143 1052 1143 1052 1050 c 0,5,6
 1052 970 1052 970 1028.5 902 c 128,-1,7
 1005 834 1005 834 965.5 772 c 128,-1,8
 926 710 926 710 873 652 c 128,-1,9
 820 594 820 594 762 534 c 2,10,-1
 436 201 l 1,11,12
 484 215 484 215 530 222.5 c 128,-1,13
 576 230 576 230 618 230 c 2,14,-1
 989 230 l 2,15,16
 1029 230 1029 230 1052.5 207.5 c 128,-1,17
 1076 185 1076 185 1076 148 c 2,18,-1
 1076 0 l 1,19,-1
 84 0 l 1,20,-1
 84 82 l 2,21,22
 84 107 84 107 94.5 134 c 128,-1,23
 105 161 105 161 128 184 c 2,24,-1
 567 624 l 2,25,26
 622 680 622 680 665.5 731 c 128,-1,27
 709 782 709 782 738.5 832 c 128,-1,28
 768 882 768 882 783.5 933.5 c 128,-1,29
 799 985 799 985 799 1042 c 0,30,31
 799 1094 799 1094 784 1133.5 c 128,-1,32
 769 1173 769 1173 741 1200 c 128,-1,33
 713 1227 713 1227 674.5 1240.5 c 128,-1,34
 636 1254 636 1254 588 1254 c 0,35,36
 499 1254 499 1254 441.5 1209 c 128,-1,37
 384 1164 384 1164 361 1088 c 0,38,39
 350 1050 350 1050 328 1033.5 c 128,-1,40
 306 1017 306 1017 272 1017 c 0,41,42
 257 1017 257 1017 239 1020 c 2,43,-1
 109 1043 l 1,44,45
 124 1147 124 1147 167 1225.5 c 128,-1,46
 210 1304 210 1304 274.5 1356.5 c 128,-1,47
 339 1409 339 1409 422.5 1435.5 c 128,-1,48
 506 1462 506 1462 602 1462 c 0,0,1
EndSplineSet
Validated: 1
EndChar

StartChar: three
Encoding: 51 51 22
Width: 1160
Flags: W
LayerCount: 2
Fore
SplineSet
625 1462 m 0,0,1
 725 1462 725 1462 805.5 1433.5 c 128,-1,2
 886 1405 886 1405 943 1354.5 c 128,-1,3
 1000 1304 1000 1304 1030.5 1236 c 128,-1,4
 1061 1168 1061 1168 1061 1089 c 0,5,6
 1061 1020 1061 1020 1045.5 967.5 c 128,-1,7
 1030 915 1030 915 1000.5 876 c 128,-1,8
 971 837 971 837 928.5 810 c 128,-1,9
 886 783 886 783 832 765 c 1,10,11
 962 724 962 724 1026 640 c 128,-1,12
 1090 556 1090 556 1090 429 c 0,13,14
 1090 321 1090 321 1050 238 c 128,-1,15
 1010 155 1010 155 942 98.5 c 128,-1,16
 874 42 874 42 784.5 13 c 128,-1,17
 695 -16 695 -16 595 -16 c 0,18,19
 486 -16 486 -16 405 9 c 128,-1,20
 324 34 324 34 264 83 c 128,-1,21
 204 132 204 132 162 203 c 128,-1,22
 120 274 120 274 90 367 c 1,23,-1
 199 412 l 2,24,25
 227 424 227 424 256 424 c 0,26,27
 282 424 282 424 302.5 413 c 128,-1,28
 323 402 323 402 334 381 c 0,29,30
 352 346 352 346 373.5 312 c 128,-1,31
 395 278 395 278 425 251.5 c 128,-1,32
 455 225 455 225 495.5 208.5 c 128,-1,33
 536 192 536 192 592 192 c 0,34,35
 655 192 655 192 702 212.5 c 128,-1,36
 749 233 749 233 780.5 266 c 128,-1,37
 812 299 812 299 827.5 339.5 c 128,-1,38
 843 380 843 380 843 421 c 0,39,40
 843 473 843 473 832 515.5 c 128,-1,41
 821 558 821 558 786 588 c 128,-1,42
 751 618 751 618 685.5 635 c 128,-1,43
 620 652 620 652 510 652 c 1,44,-1
 510 828 l 1,45,46
 601 829 601 829 661 845 c 128,-1,47
 721 861 721 861 756.5 889.5 c 128,-1,48
 792 918 792 918 806 958 c 128,-1,49
 820 998 820 998 820 1046 c 0,50,51
 820 1149 820 1149 764 1201.5 c 128,-1,52
 708 1254 708 1254 611 1254 c 0,53,54
 523 1254 523 1254 465 1207.5 c 128,-1,55
 407 1161 407 1161 384 1088 c 0,56,57
 372 1050 372 1050 351 1033.5 c 128,-1,58
 330 1017 330 1017 296 1017 c 0,59,60
 280 1017 280 1017 262 1020 c 2,61,-1
 132 1043 l 1,62,63
 147 1147 147 1147 190 1225.5 c 128,-1,64
 233 1304 233 1304 297.5 1356.5 c 128,-1,65
 362 1409 362 1409 445.5 1435.5 c 128,-1,66
 529 1462 529 1462 625 1462 c 0,0,1
EndSplineSet
Validated: 1
EndChar

StartChar: four
Encoding: 52 52 23
Width: 1160
Flags: W
LayerCount: 2
Fore
SplineSet
942 545 m 1,0,-1
 1124 545 l 1,1,-1
 1124 402 l 2,2,3
 1124 382 1124 382 1111 367.5 c 128,-1,4
 1098 353 1098 353 1073 353 c 2,5,-1
 942 353 l 1,6,-1
 942 0 l 1,7,-1
 726 0 l 1,8,-1
 726 353 l 1,9,-1
 116 353 l 2,10,11
 91 353 91 353 72 368.5 c 128,-1,12
 53 384 53 384 48 407 c 2,13,-1
 23 532 l 1,14,-1
 708 1447 l 1,15,-1
 942 1447 l 1,16,-1
 942 545 l 1,0,-1
726 1018 m 2,17,18
 726 1050 726 1050 728 1087 c 128,-1,19
 730 1124 730 1124 735 1164 c 1,20,-1
 286 545 l 1,21,-1
 726 545 l 1,22,-1
 726 1018 l 2,17,18
EndSplineSet
Validated: 1
EndChar

StartChar: five
Encoding: 53 53 24
Width: 1160
Flags: W
LayerCount: 2
Fore
SplineSet
989 1341 m 2,0,1
 989 1288 989 1288 955.5 1255 c 128,-1,2
 922 1222 922 1222 844 1222 c 2,3,-1
 446 1222 l 1,4,-1
 394 920 l 1,5,6
 492 940 492 940 573 940 c 0,7,8
 687 940 687 940 773.5 906 c 128,-1,9
 860 872 860 872 919 812 c 128,-1,10
 978 752 978 752 1008 671.5 c 128,-1,11
 1038 591 1038 591 1038 498 c 0,12,13
 1038 383 1038 383 997.5 288 c 128,-1,14
 957 193 957 193 885 125.5 c 128,-1,15
 813 58 813 58 714.5 21 c 128,-1,16
 616 -16 616 -16 500 -16 c 0,17,18
 432 -16 432 -16 371 -2 c 128,-1,19
 310 12 310 12 256.5 35.5 c 128,-1,20
 203 59 203 59 157.5 89.5 c 128,-1,21
 112 120 112 120 76 154 c 1,22,-1
 152 259 l 2,23,24
 176 293 176 293 216 293 c 0,25,26
 241 293 241 293 266.5 277 c 128,-1,27
 292 261 292 261 326 242 c 128,-1,28
 360 223 360 223 405 207 c 128,-1,29
 450 191 450 191 514 191 c 0,30,31
 582 191 582 191 634 213 c 128,-1,32
 686 235 686 235 720.5 274.5 c 128,-1,33
 755 314 755 314 772.5 368.5 c 128,-1,34
 790 423 790 423 790 487 c 0,35,36
 790 605 790 605 721.5 671.5 c 128,-1,37
 653 738 653 738 520 738 c 0,38,39
 415 738 415 738 309 700 c 1,40,-1
 155 744 l 1,41,-1
 275 1446 l 1,42,-1
 989 1446 l 1,43,-1
 989 1341 l 2,0,1
EndSplineSet
Validated: 1
EndChar

StartChar: six
Encoding: 54 54 25
Width: 1160
Flags: W
LayerCount: 2
Fore
SplineSet
670 903 m 0,0,1
 752 903 752 903 829.5 876 c 128,-1,2
 907 849 907 849 966 794.5 c 128,-1,3
 1025 740 1025 740 1061 659 c 128,-1,4
 1097 578 1097 578 1097 470 c 0,5,6
 1097 369 1097 369 1060 280.5 c 128,-1,7
 1023 192 1023 192 956 126 c 128,-1,8
 889 60 889 60 794.5 22 c 128,-1,9
 700 -16 700 -16 586 -16 c 0,10,11
 470 -16 470 -16 378 21 c 128,-1,12
 286 58 286 58 221 124.5 c 128,-1,13
 156 191 156 191 121.5 284.5 c 128,-1,14
 87 378 87 378 87 492 c 0,15,16
 87 594 87 594 128.5 701.5 c 128,-1,17
 170 809 170 809 257 925 c 2,18,-1
 602 1388 l 2,19,20
 620 1412 620 1412 654.5 1429 c 128,-1,21
 689 1446 689 1446 734 1446 c 2,22,-1
 954 1446 l 1,23,-1
 525 921 l 2,24,25
 511 904 511 904 498.5 889 c 128,-1,26
 486 874 486 874 474 858 c 1,27,28
 516 879 516 879 564.5 891 c 128,-1,29
 613 903 613 903 670 903 c 0,0,1
324 454 m 0,30,31
 324 394 324 394 340.5 344.5 c 128,-1,32
 357 295 357 295 389.5 260 c 128,-1,33
 422 225 422 225 470 205.5 c 128,-1,34
 518 186 518 186 581 186 c 0,35,36
 640 186 640 186 689.5 206 c 128,-1,37
 739 226 739 226 774.5 262 c 128,-1,38
 810 298 810 298 830 346.5 c 128,-1,39
 850 395 850 395 850 452 c 0,40,41
 850 514 850 514 831 563.5 c 128,-1,42
 812 613 812 613 777 647.5 c 128,-1,43
 742 682 742 682 693 700 c 128,-1,44
 644 718 644 718 585 718 c 256,45,46
 526 718 526 718 478 698 c 128,-1,47
 430 678 430 678 395.5 642.5 c 128,-1,48
 361 607 361 607 342.5 558.5 c 128,-1,49
 324 510 324 510 324 454 c 0,30,31
EndSplineSet
Validated: 1
EndChar

StartChar: seven
Encoding: 55 55 26
Width: 1160
Flags: W
LayerCount: 2
Fore
SplineSet
1096 1446 m 1,0,-1
 1096 1339 l 2,1,2
 1096 1291 1096 1291 1085.5 1261.5 c 128,-1,3
 1075 1232 1075 1232 1065 1212 c 2,4,-1
 518 84 l 2,5,6
 501 49 501 49 470 24.5 c 128,-1,7
 439 0 439 0 386 0 c 2,8,-1
 207 0 l 1,9,-1
 767 1105 l 2,10,11
 802 1173 802 1173 845 1222 c 1,12,-1
 153 1222 l 2,13,14
 130 1222 130 1222 113 1239 c 128,-1,15
 96 1256 96 1256 96 1279 c 2,16,-1
 96 1446 l 1,17,-1
 1096 1446 l 1,0,-1
EndSplineSet
Validated: 1
EndChar

StartChar: eight
Encoding: 56 56 27
Width: 1160
Flags: W
LayerCount: 2
Fore
SplineSet
580 -16 m 256,0,1
 468 -16 468 -16 375.5 14 c 128,-1,2
 283 44 283 44 217 99 c 128,-1,3
 151 154 151 154 114.5 232 c 128,-1,4
 78 310 78 310 78 406 c 0,5,6
 78 534 78 534 141 622.5 c 128,-1,7
 204 711 204 711 337 754 c 1,8,9
 231 798 231 798 178.5 879 c 128,-1,10
 126 960 126 960 126 1074 c 0,11,12
 126 1156 126 1156 159.5 1227 c 128,-1,13
 193 1298 193 1298 253 1350.5 c 128,-1,14
 313 1403 313 1403 396.5 1432.5 c 128,-1,15
 480 1462 480 1462 580 1462 c 256,16,17
 680 1462 680 1462 763.5 1432.5 c 128,-1,18
 847 1403 847 1403 907 1350.5 c 128,-1,19
 967 1298 967 1298 1000.5 1227 c 128,-1,20
 1034 1156 1034 1156 1034 1074 c 0,21,22
 1034 960 1034 960 981 879 c 128,-1,23
 928 798 928 798 823 754 c 1,24,25
 956 711 956 711 1019 622.5 c 128,-1,26
 1082 534 1082 534 1082 406 c 0,27,28
 1082 310 1082 310 1045.5 232 c 128,-1,29
 1009 154 1009 154 943 99 c 128,-1,30
 877 44 877 44 784.5 14 c 128,-1,31
 692 -16 692 -16 580 -16 c 256,0,1
580 177 m 256,32,33
 641 177 641 177 687 194.5 c 128,-1,34
 733 212 733 212 764.5 243 c 128,-1,35
 796 274 796 274 812 317 c 128,-1,36
 828 360 828 360 828 410 c 0,37,38
 828 529 828 529 762 590 c 128,-1,39
 696 651 696 651 580 651 c 256,40,41
 464 651 464 651 398 590 c 128,-1,42
 332 529 332 529 332 410 c 0,43,44
 332 360 332 360 348 317 c 128,-1,45
 364 274 364 274 395.5 243 c 128,-1,46
 427 212 427 212 473 194.5 c 128,-1,47
 519 177 519 177 580 177 c 256,32,33
580 845 m 256,48,49
 640 845 640 845 681 864 c 128,-1,50
 722 883 722 883 747 914.5 c 128,-1,51
 772 946 772 946 782.5 986.5 c 128,-1,52
 793 1027 793 1027 793 1070 c 0,53,54
 793 1111 793 1111 780 1148 c 128,-1,55
 767 1185 767 1185 741 1213.5 c 128,-1,56
 715 1242 715 1242 675 1259 c 128,-1,57
 635 1276 635 1276 580 1276 c 256,58,59
 525 1276 525 1276 485 1259 c 128,-1,60
 445 1242 445 1242 418.5 1213.5 c 128,-1,61
 392 1185 392 1185 379.5 1148 c 128,-1,62
 367 1111 367 1111 367 1070 c 0,63,64
 367 1027 367 1027 377.5 986.5 c 128,-1,65
 388 946 388 946 413 914.5 c 128,-1,66
 438 883 438 883 479 864 c 128,-1,67
 520 845 520 845 580 845 c 256,48,49
EndSplineSet
Validated: 1
EndChar

StartChar: nine
Encoding: 57 57 28
Width: 1160
Flags: W
LayerCount: 2
Fore
SplineSet
530 577 m 0,0,1
 455 577 455 577 383 603 c 128,-1,2
 311 629 311 629 254.5 681.5 c 128,-1,3
 198 734 198 734 164 811.5 c 128,-1,4
 130 889 130 889 130 993 c 0,5,6
 130 1090 130 1090 166 1175 c 128,-1,7
 202 1260 202 1260 267 1324 c 128,-1,8
 332 1388 332 1388 423 1425 c 128,-1,9
 514 1462 514 1462 624 1462 c 0,10,11
 735 1462 735 1462 823.5 1427 c 128,-1,12
 912 1392 912 1392 974.5 1329 c 128,-1,13
 1037 1266 1037 1266 1070.5 1178 c 128,-1,14
 1104 1090 1104 1090 1104 985 c 0,15,16
 1104 918 1104 918 1092.5 858 c 128,-1,17
 1081 798 1081 798 1059.5 742.5 c 128,-1,18
 1038 687 1038 687 1008 634.5 c 128,-1,19
 978 582 978 582 941 529 c 2,20,-1
 610 57 l 2,21,22
 593 33 593 33 559.5 16.5 c 128,-1,23
 526 0 526 0 483 0 c 2,24,-1
 256 0 l 1,25,-1
 705 561 l 2,26,27
 722 582 722 582 737 602 c 128,-1,28
 752 622 752 622 766 642 c 1,29,30
 716 610 716 610 656 593.5 c 128,-1,31
 596 577 596 577 530 577 c 0,0,1
867 1010 m 0,32,33
 867 1069 867 1069 849 1115.5 c 128,-1,34
 831 1162 831 1162 798 1194 c 128,-1,35
 765 1226 765 1226 719.5 1243 c 128,-1,36
 674 1260 674 1260 620 1260 c 0,37,38
 564 1260 564 1260 519 1241.5 c 128,-1,39
 474 1223 474 1223 442.5 1190 c 128,-1,40
 411 1157 411 1157 394 1111.5 c 128,-1,41
 377 1066 377 1066 377 1012 c 0,42,43
 377 891 377 891 439.5 827.5 c 128,-1,44
 502 764 502 764 617 764 c 0,45,46
 677 764 677 764 723.5 783 c 128,-1,47
 770 802 770 802 802 835 c 128,-1,48
 834 868 834 868 850.5 913 c 128,-1,49
 867 958 867 958 867 1010 c 0,32,33
EndSplineSet
Validated: 1
EndChar

StartChar: colon
Encoding: 58 58 29
Width: 530
Flags: W
LayerCount: 2
Fore
SplineSet
113 136 m 0,0,1
 113 167 113 167 124.5 195 c 128,-1,2
 136 223 136 223 156.5 243 c 128,-1,3
 177 263 177 263 205 275 c 128,-1,4
 233 287 233 287 265 287 c 0,5,6
 296 287 296 287 324 275 c 128,-1,7
 352 263 352 263 372 243 c 128,-1,8
 392 223 392 223 404 195 c 128,-1,9
 416 167 416 167 416 136 c 0,10,11
 416 104 416 104 404 76.5 c 128,-1,12
 392 49 392 49 372 29 c 128,-1,13
 352 9 352 9 324 -2.5 c 128,-1,14
 296 -14 296 -14 265 -14 c 0,15,16
 233 -14 233 -14 205 -2.5 c 128,-1,17
 177 9 177 9 156.5 29 c 128,-1,18
 136 49 136 49 124.5 76.5 c 128,-1,19
 113 104 113 104 113 136 c 0,0,1
113 849 m 0,20,21
 113 880 113 880 124.5 908 c 128,-1,22
 136 936 136 936 156.5 956 c 128,-1,23
 177 976 177 976 205 988 c 128,-1,24
 233 1000 233 1000 265 1000 c 0,25,26
 296 1000 296 1000 324 988 c 128,-1,27
 352 976 352 976 372 956 c 128,-1,28
 392 936 392 936 404 908 c 128,-1,29
 416 880 416 880 416 849 c 0,30,31
 416 817 416 817 404 789.5 c 128,-1,32
 392 762 392 762 372 742 c 128,-1,33
 352 722 352 722 324 710.5 c 128,-1,34
 296 699 296 699 265 699 c 0,35,36
 233 699 233 699 205 710.5 c 128,-1,37
 177 722 177 722 156.5 742 c 128,-1,38
 136 762 136 762 124.5 789.5 c 128,-1,39
 113 817 113 817 113 849 c 0,20,21
EndSplineSet
Validated: 1
EndChar

StartChar: semicolon
Encoding: 59 59 30
Width: 530
Flags: W
LayerCount: 2
Fore
SplineSet
120 152 m 0,0,1
 120 180 120 180 130.5 204.5 c 128,-1,2
 141 229 141 229 160 247.5 c 128,-1,3
 179 266 179 266 206 276.5 c 128,-1,4
 233 287 233 287 265 287 c 0,5,6
 303 287 303 287 331 273.5 c 128,-1,7
 359 260 359 260 378 236.5 c 128,-1,8
 397 213 397 213 406 182.5 c 128,-1,9
 415 152 415 152 415 118 c 0,10,11
 415 70 415 70 400.5 17 c 128,-1,12
 386 -36 386 -36 358 -89 c 128,-1,13
 330 -142 330 -142 289 -192 c 128,-1,14
 248 -242 248 -242 195 -284 c 1,15,-1
 152 -245 l 2,16,17
 134 -230 134 -230 134 -208 c 0,18,19
 134 -200 134 -200 139.5 -190 c 128,-1,20
 145 -180 145 -180 153 -172 c 0,21,22
 164 -160 164 -160 180 -142.5 c 128,-1,23
 196 -125 196 -125 212 -102.5 c 128,-1,24
 228 -80 228 -80 241.5 -53.5 c 128,-1,25
 255 -27 255 -27 261 3 c 1,26,27
 230 3 230 3 204 14.5 c 128,-1,28
 178 26 178 26 159.5 46 c 128,-1,29
 141 66 141 66 130.5 93 c 128,-1,30
 120 120 120 120 120 152 c 0,0,1
113 849 m 0,31,32
 113 880 113 880 124.5 908 c 128,-1,33
 136 936 136 936 156.5 956 c 128,-1,34
 177 976 177 976 205 988 c 128,-1,35
 233 1000 233 1000 265 1000 c 0,36,37
 296 1000 296 1000 324 988 c 128,-1,38
 352 976 352 976 372 956 c 128,-1,39
 392 936 392 936 404 908 c 128,-1,40
 416 880 416 880 416 849 c 0,41,42
 416 817 416 817 404 789.5 c 128,-1,43
 392 762 392 762 372 742 c 128,-1,44
 352 722 352 722 324 710.5 c 128,-1,45
 296 699 296 699 265 699 c 0,46,47
 233 699 233 699 205 710.5 c 128,-1,48
 177 722 177 722 156.5 742 c 128,-1,49
 136 762 136 762 124.5 789.5 c 128,-1,50
 113 817 113 817 113 849 c 0,31,32
EndSplineSet
Validated: 1
EndChar

StartChar: less
Encoding: 60 60 31
Width: 1160
Flags: W
LayerCount: 2
Fore
SplineSet
139 724 m 1,0,-1
 931 1137 l 1,1,-1
 931 961 l 2,2,3
 931 941 931 941 921 924.5 c 128,-1,4
 911 908 911 908 888 896 c 2,5,-1
 525 710 l 2,6,7
 502 698 502 698 476.5 689.5 c 128,-1,8
 451 681 451 681 422 674 c 1,9,10
 451 667 451 667 476.5 658.5 c 128,-1,11
 502 650 502 650 525 638 c 2,12,-1
 888 451 l 2,13,14
 911 439 911 439 921 422.5 c 128,-1,15
 931 406 931 406 931 386 c 2,16,-1
 931 210 l 1,17,-1
 139 624 l 1,18,-1
 139 724 l 1,0,-1
EndSplineSet
Validated: 1
EndChar

StartChar: equal
Encoding: 61 61 32
Width: 1160
Flags: W
LayerCount: 2
Fore
SplineSet
136 588 m 1,0,-1
 1022 588 l 1,1,-1
 1022 404 l 1,2,-1
 136 404 l 1,3,-1
 136 588 l 1,0,-1
136 940 m 1,4,-1
 1022 940 l 1,5,-1
 1022 757 l 1,6,-1
 136 757 l 1,7,-1
 136 940 l 1,4,-1
EndSplineSet
Validated: 1
EndChar

StartChar: greater
Encoding: 62 62 33
Width: 1160
Flags: W
LayerCount: 2
Fore
SplineSet
229 210 m 1,0,-1
 229 386 l 2,1,2
 229 406 229 406 239 422.5 c 128,-1,3
 249 439 249 439 272 451 c 2,4,-1
 635 638 l 2,5,6
 679 660 679 660 738 674 c 1,7,8
 709 681 709 681 683.5 689.5 c 128,-1,9
 658 698 658 698 635 710 c 2,10,-1
 272 896 l 2,11,12
 249 908 249 908 239 924.5 c 128,-1,13
 229 941 229 941 229 961 c 2,14,-1
 229 1137 l 1,15,-1
 1021 724 l 1,16,-1
 1021 624 l 1,17,-1
 229 210 l 1,0,-1
EndSplineSet
Validated: 1
EndChar

StartChar: question
Encoding: 63 63 34
Width: 841
Flags: W
LayerCount: 2
Fore
SplineSet
37 1315 m 1,0,1
 71 1345 71 1345 111.5 1372 c 128,-1,2
 152 1399 152 1399 199 1419 c 128,-1,3
 246 1439 246 1439 301 1450.5 c 128,-1,4
 356 1462 356 1462 420 1462 c 0,5,6
 507 1462 507 1462 578.5 1438 c 128,-1,7
 650 1414 650 1414 701 1369.5 c 128,-1,8
 752 1325 752 1325 780 1262 c 128,-1,9
 808 1199 808 1199 808 1121 c 0,10,11
 808 1045 808 1045 786 989.5 c 128,-1,12
 764 934 764 934 730.5 893 c 128,-1,13
 697 852 697 852 658 822 c 128,-1,14
 619 792 619 792 584 765.5 c 128,-1,15
 549 739 549 739 523.5 713.5 c 128,-1,16
 498 688 498 688 493 656 c 2,17,-1
 470 510 l 1,18,-1
 301 510 l 1,19,-1
 284 673 l 2,20,21
 283 678 283 678 283 681.5 c 128,-1,22
 283 685 283 685 283 690 c 0,23,24
 283 734 283 734 305 766.5 c 128,-1,25
 327 799 327 799 360 827.5 c 128,-1,26
 393 856 393 856 431 883 c 128,-1,27
 469 910 469 910 502 941.5 c 128,-1,28
 535 973 535 973 557 1013 c 128,-1,29
 579 1053 579 1053 579 1107 c 0,30,31
 579 1143 579 1143 565.5 1171.5 c 128,-1,32
 552 1200 552 1200 528 1220.5 c 128,-1,33
 504 1241 504 1241 470.5 1252 c 128,-1,34
 437 1263 437 1263 398 1263 c 0,35,36
 341 1263 341 1263 301.5 1250.5 c 128,-1,37
 262 1238 262 1238 234.5 1222.5 c 128,-1,38
 207 1207 207 1207 188 1194.5 c 128,-1,39
 169 1182 169 1182 154 1182 c 0,40,41
 118 1182 118 1182 102 1212 c 2,42,-1
 37 1315 l 1,0,1
226 136 m 0,43,44
 226 167 226 167 237.5 195 c 128,-1,45
 249 223 249 223 269.5 243 c 128,-1,46
 290 263 290 263 318 275 c 128,-1,47
 346 287 346 287 378 287 c 0,48,49
 409 287 409 287 437 275 c 128,-1,50
 465 263 465 263 485 243 c 128,-1,51
 505 223 505 223 517 195 c 128,-1,52
 529 167 529 167 529 136 c 0,53,54
 529 104 529 104 517 76.5 c 128,-1,55
 505 49 505 49 485 29 c 128,-1,56
 465 9 465 9 437 -2.5 c 128,-1,57
 409 -14 409 -14 378 -14 c 0,58,59
 346 -14 346 -14 318 -2.5 c 128,-1,60
 290 9 290 9 269.5 29 c 128,-1,61
 249 49 249 49 237.5 76.5 c 128,-1,62
 226 104 226 104 226 136 c 0,43,44
EndSplineSet
Validated: 1
EndChar

StartChar: at
Encoding: 64 64 35
Width: 1645
Flags: W
LayerCount: 2
Fore
SplineSet
1166 184 m 0,0,1
 1098 184 1098 184 1044.5 216 c 128,-1,2
 991 248 991 248 970 319 c 1,3,4
 911 247 911 247 845 216 c 128,-1,5
 779 185 779 185 703 185 c 0,6,7
 640 185 640 185 593.5 207 c 128,-1,8
 547 229 547 229 515.5 267.5 c 128,-1,9
 484 306 484 306 468.5 358.5 c 128,-1,10
 453 411 453 411 453 473 c 0,11,12
 453 530 453 530 467.5 588.5 c 128,-1,13
 482 647 482 647 511 701.5 c 128,-1,14
 540 756 540 756 583.5 803.5 c 128,-1,15
 627 851 627 851 686 886.5 c 128,-1,16
 745 922 745 922 818 942.5 c 128,-1,17
 891 963 891 963 980 963 c 0,18,19
 1057 963 1057 963 1112 951 c 128,-1,20
 1167 939 1167 939 1218 917 c 1,21,-1
 1122 546 l 2,22,23
 1106 482 1106 482 1106 439 c 0,24,25
 1106 409 1106 409 1113.5 389 c 128,-1,26
 1121 369 1121 369 1133.5 357 c 128,-1,27
 1146 345 1146 345 1164 340.5 c 128,-1,28
 1182 336 1182 336 1203 336 c 0,29,30
 1245 336 1245 336 1282.5 362.5 c 128,-1,31
 1320 389 1320 389 1348 437 c 128,-1,32
 1376 485 1376 485 1392.5 551 c 128,-1,33
 1409 617 1409 617 1409 695 c 0,34,35
 1409 825 1409 825 1368.5 924 c 128,-1,36
 1328 1023 1328 1023 1255.5 1089.5 c 128,-1,37
 1183 1156 1183 1156 1082 1189.5 c 128,-1,38
 981 1223 981 1223 861 1223 c 0,39,40
 730 1223 730 1223 617.5 1173.5 c 128,-1,41
 505 1124 505 1124 422.5 1038 c 128,-1,42
 340 952 340 952 293.5 835 c 128,-1,43
 247 718 247 718 247 583 c 0,44,45
 247 419 247 419 298 294.5 c 128,-1,46
 349 170 349 170 438 86.5 c 128,-1,47
 527 3 527 3 647.5 -39 c 128,-1,48
 768 -81 768 -81 908 -81 c 0,49,50
 985 -81 985 -81 1052 -72.5 c 128,-1,51
 1119 -64 1119 -64 1175 -49.5 c 128,-1,52
 1231 -35 1231 -35 1277 -16.5 c 128,-1,53
 1323 2 1323 2 1359 23 c 0,54,55
 1379 34 1379 34 1393 34 c 0,56,57
 1422 34 1422 34 1434 2 c 2,58,-1
 1468 -87 l 1,59,60
 1364 -155 1364 -155 1225 -198 c 128,-1,61
 1086 -241 1086 -241 908 -241 c 0,62,63
 727 -241 727 -241 573 -184 c 128,-1,64
 419 -127 419 -127 306.5 -20.5 c 128,-1,65
 194 86 194 86 130.5 239 c 128,-1,66
 67 392 67 392 67 583 c 0,67,68
 67 690 67 690 94.5 791 c 128,-1,69
 122 892 122 892 173 980.5 c 128,-1,70
 224 1069 224 1069 296 1143 c 128,-1,71
 368 1217 368 1217 456 1270 c 128,-1,72
 544 1323 544 1323 646.5 1352.5 c 128,-1,73
 749 1382 749 1382 861 1382 c 0,74,75
 1003 1382 1003 1382 1133.5 1334.5 c 128,-1,76
 1264 1287 1264 1287 1364.5 1198.5 c 128,-1,77
 1465 1110 1465 1110 1525 982.5 c 128,-1,78
 1585 855 1585 855 1585 695 c 0,79,80
 1585 588 1585 588 1553.5 494.5 c 128,-1,81
 1522 401 1522 401 1465.5 332 c 128,-1,82
 1409 263 1409 263 1332.5 223.5 c 128,-1,83
 1256 184 1256 184 1166 184 c 0,0,1
752 344 m 0,84,85
 778 344 778 344 804.5 352 c 128,-1,86
 831 360 831 360 855 380.5 c 128,-1,87
 879 401 879 401 899 435 c 128,-1,88
 919 469 919 469 932 520 c 2,89,-1
 1005 802 l 1,90,91
 973 808 973 808 939 808 c 0,92,93
 877 808 877 808 823 781 c 128,-1,94
 769 754 769 754 729.5 708 c 128,-1,95
 690 662 690 662 667 602.5 c 128,-1,96
 644 543 644 543 644 479 c 256,97,98
 644 415 644 415 671.5 379.5 c 128,-1,99
 699 344 699 344 752 344 c 0,84,85
EndSplineSet
Validated: 1
EndChar

StartChar: A
Encoding: 65 65 36
Width: 1420
Flags: W
LayerCount: 2
Fore
SplineSet
1417 0 m 1,0,-1
 1209 0 l 2,1,2
 1174 0 1174 0 1151.5 17.5 c 128,-1,3
 1129 35 1129 35 1119 61 c 2,4,-1
 1011 356 l 1,5,-1
 412 356 l 1,6,-1
 304 61 l 2,7,8
 296 38 296 38 272.5 19 c 128,-1,9
 249 0 249 0 215 0 c 2,10,-1
 6 0 l 1,11,-1
 574 1446 l 1,12,-1
 849 1446 l 1,13,-1
 1417 0 l 1,0,-1
481 546 m 1,14,-1
 942 546 l 1,15,-1
 766 1027 l 2,16,17
 754 1059 754 1059 739.5 1102.5 c 128,-1,18
 725 1146 725 1146 711 1197 c 1,19,20
 697 1146 697 1146 683.5 1102 c 128,-1,21
 670 1058 670 1058 657 1025 c 2,22,-1
 481 546 l 1,14,-1
EndSplineSet
Validated: 1
EndChar

StartChar: B
Encoding: 66 66 37
Width: 1303
Flags: W
LayerCount: 2
Fore
SplineSet
146 0 m 1,0,-1
 146 1446 l 1,1,-1
 645 1446 l 2,2,3
 787 1446 787 1446 887.5 1419 c 128,-1,4
 988 1392 988 1392 1052.5 1342 c 128,-1,5
 1117 1292 1117 1292 1147 1221 c 128,-1,6
 1177 1150 1177 1150 1177 1061 c 0,7,8
 1177 1010 1177 1010 1162 963.5 c 128,-1,9
 1147 917 1147 917 1115.5 876.5 c 128,-1,10
 1084 836 1084 836 1035.5 803 c 128,-1,11
 987 770 987 770 920 747 c 1,12,13
 1218 680 1218 680 1218 425 c 0,14,15
 1218 333 1218 333 1183 255 c 128,-1,16
 1148 177 1148 177 1081 120.5 c 128,-1,17
 1014 64 1014 64 916 32 c 128,-1,18
 818 0 818 0 692 0 c 2,19,-1
 146 0 l 1,0,-1
415 634 m 1,20,-1
 415 210 l 1,21,-1
 688 210 l 2,22,23
 763 210 763 210 813.5 228 c 128,-1,24
 864 246 864 246 894.5 276 c 128,-1,25
 925 306 925 306 938.5 346 c 128,-1,26
 952 386 952 386 952 431 c 0,27,28
 952 478 952 478 937 515.5 c 128,-1,29
 922 553 922 553 890 579.5 c 128,-1,30
 858 606 858 606 808 620 c 128,-1,31
 758 634 758 634 687 634 c 2,32,-1
 415 634 l 1,20,-1
415 820 m 1,33,-1
 630 820 l 2,34,35
 767 820 767 820 838 870 c 128,-1,36
 909 920 909 920 909 1029 c 0,37,38
 909 1142 909 1142 845 1190 c 128,-1,39
 781 1238 781 1238 645 1238 c 2,40,-1
 415 1238 l 1,41,-1
 415 820 l 1,33,-1
EndSplineSet
Validated: 1
EndChar

StartChar: C
Encoding: 67 67 38
Width: 1341
Flags: W
LayerCount: 2
Fore
SplineSet
1140 341 m 0,0,1
 1162 341 1162 341 1178 324 c 2,2,-1
 1284 209 l 1,3,4
 1196 100 1196 100 1067.5 42 c 128,-1,5
 939 -16 939 -16 759 -16 c 0,6,7
 598 -16 598 -16 469.5 39 c 128,-1,8
 341 94 341 94 250 192 c 128,-1,9
 159 290 159 290 110.5 426 c 128,-1,10
 62 562 62 562 62 723 c 0,11,12
 62 886 62 886 116 1021.5 c 128,-1,13
 170 1157 170 1157 268 1255 c 128,-1,14
 366 1353 366 1353 502.5 1407.5 c 128,-1,15
 639 1462 639 1462 804 1462 c 0,16,17
 965 1462 965 1462 1085.5 1410.5 c 128,-1,18
 1206 1359 1206 1359 1292 1274 c 1,19,-1
 1202 1149 l 2,20,21
 1194 1137 1194 1137 1181.5 1128 c 128,-1,22
 1169 1119 1169 1119 1147 1119 c 0,23,24
 1124 1119 1124 1119 1100 1137 c 128,-1,25
 1076 1155 1076 1155 1039 1176 c 128,-1,26
 1002 1197 1002 1197 945.5 1215 c 128,-1,27
 889 1233 889 1233 802 1233 c 0,28,29
 700 1233 700 1233 614.5 1197.5 c 128,-1,30
 529 1162 529 1162 467.5 1096 c 128,-1,31
 406 1030 406 1030 371.5 935.5 c 128,-1,32
 337 841 337 841 337 723 c 0,33,34
 337 601 337 601 371.5 506 c 128,-1,35
 406 411 406 411 465 346 c 128,-1,36
 524 281 524 281 604 246.5 c 128,-1,37
 684 212 684 212 776 212 c 0,38,39
 831 212 831 212 875.5 218 c 128,-1,40
 920 224 920 224 957.5 237 c 128,-1,41
 995 250 995 250 1028.5 270.5 c 128,-1,42
 1062 291 1062 291 1095 321 c 0,43,44
 1105 330 1105 330 1116 335.5 c 128,-1,45
 1127 341 1127 341 1140 341 c 0,0,1
EndSplineSet
Validated: 1
EndChar

StartChar: D
Encoding: 68 68 39
Width: 1495
Flags: W
LayerCount: 2
Fore
SplineSet
1430 723 m 256,0,1
 1430 564 1430 564 1377 431 c 128,-1,2
 1324 298 1324 298 1228 202 c 128,-1,3
 1132 106 1132 106 997 53 c 128,-1,4
 862 0 862 0 698 0 c 2,5,-1
 146 0 l 1,6,-1
 146 1446 l 1,7,-1
 698 1446 l 2,8,9
 862 1446 862 1446 997 1392.5 c 128,-1,10
 1132 1339 1132 1339 1228 1243.5 c 128,-1,11
 1324 1148 1324 1148 1377 1015 c 128,-1,12
 1430 882 1430 882 1430 723 c 256,0,1
1155 723 m 256,13,14
 1155 842 1155 842 1123 936.5 c 128,-1,15
 1091 1031 1091 1031 1032 1096.5 c 128,-1,16
 973 1162 973 1162 888.5 1197 c 128,-1,17
 804 1232 804 1232 698 1232 c 2,18,-1
 417 1232 l 1,19,-1
 417 214 l 1,20,-1
 698 214 l 2,21,22
 804 214 804 214 888.5 249 c 128,-1,23
 973 284 973 284 1032 349.5 c 128,-1,24
 1091 415 1091 415 1123 509.5 c 128,-1,25
 1155 604 1155 604 1155 723 c 256,13,14
EndSplineSet
Validated: 1
EndChar

StartChar: E
Encoding: 69 69 40
Width: 1145
Flags: W
LayerCount: 2
Fore
SplineSet
1058 1446 m 1,0,-1
 1058 1232 l 1,1,-1
 417 1232 l 1,2,-1
 417 831 l 1,3,-1
 922 831 l 1,4,-1
 922 624 l 1,5,-1
 417 624 l 1,6,-1
 417 215 l 1,7,-1
 1058 215 l 1,8,-1
 1058 0 l 1,9,-1
 146 0 l 1,10,-1
 146 1446 l 1,11,-1
 1058 1446 l 1,0,-1
EndSplineSet
Validated: 1
EndChar

StartChar: F
Encoding: 70 70 41
Width: 1123
Flags: W
LayerCount: 2
Fore
SplineSet
1058 1446 m 1,0,-1
 1058 1232 l 1,1,-1
 417 1232 l 1,2,-1
 417 804 l 1,3,-1
 958 804 l 1,4,-1
 958 589 l 1,5,-1
 417 589 l 1,6,-1
 417 0 l 1,7,-1
 146 0 l 1,8,-1
 146 1446 l 1,9,-1
 1058 1446 l 1,0,-1
EndSplineSet
Validated: 1
EndChar

StartChar: G
Encoding: 71 71 42
Width: 1446
Flags: W
LayerCount: 2
Fore
SplineSet
810 198 m 0,0,1
 901 198 901 198 968.5 214.5 c 128,-1,2
 1036 231 1036 231 1097 260 c 1,3,-1
 1097 523 l 1,4,-1
 916 523 l 2,5,6
 890 523 890 523 875 537.5 c 128,-1,7
 860 552 860 552 860 573 c 2,8,-1
 860 725 l 1,9,-1
 1341 725 l 1,10,-1
 1341 140 l 1,11,12
 1286 100 1286 100 1226.5 70.5 c 128,-1,13
 1167 41 1167 41 1099.5 22 c 128,-1,14
 1032 3 1032 3 955 -6.5 c 128,-1,15
 878 -16 878 -16 789 -16 c 0,16,17
 631 -16 631 -16 498 39 c 128,-1,18
 365 94 365 94 268 192 c 128,-1,19
 171 290 171 290 116.5 426 c 128,-1,20
 62 562 62 562 62 723 c 0,21,22
 62 886 62 886 115 1022 c 128,-1,23
 168 1158 168 1158 265.5 1256 c 128,-1,24
 363 1354 363 1354 502 1408 c 128,-1,25
 641 1462 641 1462 814 1462 c 0,26,27
 991 1462 991 1462 1120.5 1409.5 c 128,-1,28
 1250 1357 1250 1357 1340 1273 c 1,29,-1
 1262 1151 l 2,30,31
 1239 1114 1239 1114 1201 1114 c 0,32,33
 1177 1114 1177 1114 1152 1130 c 0,34,35
 1120 1149 1120 1149 1086.5 1168 c 128,-1,36
 1053 1187 1053 1187 1012.5 1201 c 128,-1,37
 972 1215 972 1215 921.5 1224 c 128,-1,38
 871 1233 871 1233 805 1233 c 0,39,40
 698 1233 698 1233 611.5 1197 c 128,-1,41
 525 1161 525 1161 464 1094 c 128,-1,42
 403 1027 403 1027 370 933 c 128,-1,43
 337 839 337 839 337 723 c 0,44,45
 337 598 337 598 372 500.5 c 128,-1,46
 407 403 407 403 470 336 c 128,-1,47
 533 269 533 269 620 233.5 c 128,-1,48
 707 198 707 198 810 198 c 0,0,1
EndSplineSet
Validated: 1
EndChar

StartChar: H
Encoding: 72 72 43
Width: 1512
Flags: W
LayerCount: 2
Fore
SplineSet
1366 0 m 1,0,-1
 1095 0 l 1,1,-1
 1095 632 l 1,2,-1
 417 632 l 1,3,-1
 417 0 l 1,4,-1
 146 0 l 1,5,-1
 146 1446 l 1,6,-1
 417 1446 l 1,7,-1
 417 824 l 1,8,-1
 1095 824 l 1,9,-1
 1095 1446 l 1,10,-1
 1366 1446 l 1,11,-1
 1366 0 l 1,0,-1
EndSplineSet
Validated: 1
EndChar

StartChar: I
Encoding: 73 73 44
Width: 628
Flags: W
LayerCount: 2
Fore
SplineSet
449 0 m 1,0,-1
 179 0 l 1,1,-1
 179 1446 l 1,2,-1
 449 1446 l 1,3,-1
 449 0 l 1,0,-1
EndSplineSet
Validated: 1
EndChar

StartChar: J
Encoding: 74 74 45
Width: 874
Flags: W
LayerCount: 2
Fore
SplineSet
728 514 m 2,0,1
 728 392 728 392 698 294 c 128,-1,2
 668 196 668 196 608.5 127 c 128,-1,3
 549 58 549 58 460 21 c 128,-1,4
 371 -16 371 -16 253 -16 c 0,5,6
 199 -16 199 -16 147 -9.5 c 128,-1,7
 95 -3 95 -3 38 11 c 1,8,-1
 52 171 l 2,9,10
 54 193 54 193 68.5 206.5 c 128,-1,11
 83 220 83 220 111 220 c 0,12,13
 128 220 128 220 155.5 213 c 128,-1,14
 183 206 183 206 225 206 c 0,15,16
 282 206 282 206 326 222.5 c 128,-1,17
 370 239 370 239 399.5 275 c 128,-1,18
 429 311 429 311 444 368.5 c 128,-1,19
 459 426 459 426 459 508 c 2,20,-1
 459 1446 l 1,21,-1
 728 1446 l 1,22,-1
 728 514 l 2,0,1
EndSplineSet
Validated: 1
EndChar

StartChar: K
Encoding: 75 75 46
Width: 1396
Flags: W
LayerCount: 2
Fore
SplineSet
424 840 m 1,0,-1
 487 840 l 2,1,2
 525 840 525 840 550 850.5 c 128,-1,3
 575 861 575 861 593 884 c 2,4,-1
 992 1389 l 2,5,6
 1017 1421 1017 1421 1044.5 1433.5 c 128,-1,7
 1072 1446 1072 1446 1114 1446 c 2,8,-1
 1346 1446 l 1,9,-1
 859 845 l 2,10,11
 836 817 836 817 815 798 c 128,-1,12
 794 779 794 779 770 767 c 1,13,14
 803 755 803 755 829.5 733 c 128,-1,15
 856 711 856 711 881 677 c 2,16,-1
 1383 0 l 1,17,-1
 1145 0 l 2,18,19
 1097 0 1097 0 1073.5 13.5 c 128,-1,20
 1050 27 1050 27 1034 53 c 2,21,-1
 625 587 l 2,22,23
 605 613 605 613 580 624.5 c 128,-1,24
 555 636 555 636 509 636 c 2,25,-1
 424 636 l 1,26,-1
 424 0 l 1,27,-1
 155 0 l 1,28,-1
 155 1447 l 1,29,-1
 424 1447 l 1,30,-1
 424 840 l 1,0,-1
EndSplineSet
Validated: 1
EndChar

StartChar: L
Encoding: 76 76 47
Width: 1034
Flags: W
LayerCount: 2
Fore
SplineSet
415 222 m 1,0,-1
 994 222 l 1,1,-1
 994 0 l 1,2,-1
 146 0 l 1,3,-1
 146 1446 l 1,4,-1
 415 1446 l 1,5,-1
 415 222 l 1,0,-1
EndSplineSet
Validated: 1
EndChar

StartChar: M
Encoding: 77 77 48
Width: 1860
Flags: W
LayerCount: 2
Fore
SplineSet
872 600 m 1,0,1
 889 568 889 568 903.5 533.5 c 128,-1,2
 918 499 918 499 932 464 c 1,3,4
 946 500 946 500 961 535 c 128,-1,5
 976 570 976 570 993 602 c 2,6,-1
 1421 1403 l 2,7,8
 1429 1418 1429 1418 1437.5 1427 c 128,-1,9
 1446 1436 1446 1436 1456.5 1440 c 128,-1,10
 1467 1444 1467 1444 1480 1445 c 128,-1,11
 1493 1446 1493 1446 1511 1446 c 2,12,-1
 1714 1446 l 1,13,-1
 1714 0 l 1,14,-1
 1477 0 l 1,15,-1
 1477 934 l 2,16,17
 1477 960 1477 960 1478.5 991 c 128,-1,18
 1480 1022 1480 1022 1483 1054 c 1,19,-1
 1046 234 l 2,20,21
 1031 206 1031 206 1007 190.5 c 128,-1,22
 983 175 983 175 951 175 c 2,23,-1
 914 175 l 2,24,25
 882 175 882 175 858 190.5 c 128,-1,26
 834 206 834 206 819 234 c 2,27,-1
 376 1057 l 1,28,29
 380 1024 380 1024 381.5 992.5 c 128,-1,30
 383 961 383 961 383 934 c 2,31,-1
 383 0 l 1,32,-1
 146 0 l 1,33,-1
 146 1446 l 1,34,-1
 349 1446 l 2,35,36
 367 1446 367 1446 380 1445 c 128,-1,37
 393 1444 393 1444 403.5 1440 c 128,-1,38
 414 1436 414 1436 423 1427 c 128,-1,39
 432 1418 432 1418 440 1403 c 2,40,-1
 872 600 l 1,41,-1
 872 600 l 1,0,1
EndSplineSet
Validated: 5
EndChar

StartChar: N
Encoding: 78 78 49
Width: 1512
Flags: W
LayerCount: 2
Fore
SplineSet
287 1446 m 1,0,1
 305 1446 305 1446 317 1444.5 c 128,-1,2
 329 1443 329 1443 338.5 1438.5 c 128,-1,3
 348 1434 348 1434 357 1425.5 c 128,-1,4
 366 1417 366 1417 377 1403 c 2,5,-1
 1136 436 l 1,6,7
 1132 471 1132 471 1130.5 504.5 c 128,-1,8
 1129 538 1129 538 1129 567 c 2,9,-1
 1129 1446 l 1,10,-1
 1366 1446 l 1,11,-1
 1366 0 l 1,12,-1
 1227 0 l 2,13,14
 1195 0 1195 0 1174 10 c 128,-1,15
 1153 20 1153 20 1133 46 c 2,16,-1
 377 1009 l 1,17,18
 380 977 380 977 381.5 945.5 c 128,-1,19
 383 914 383 914 383 888 c 2,20,-1
 383 0 l 1,21,-1
 146 0 l 1,22,-1
 146 1446 l 1,23,-1
 287 1446 l 1,24,-1
 287 1446 l 1,0,1
EndSplineSet
Validated: 5
EndChar

StartChar: O
Encoding: 79 79 50
Width: 1599
Flags: W
LayerCount: 2
Fore
SplineSet
1533 723 m 256,0,1
 1533 564 1533 564 1480 428.5 c 128,-1,2
 1427 293 1427 293 1331 194 c 128,-1,3
 1235 95 1235 95 1100 39.5 c 128,-1,4
 965 -16 965 -16 801 -16 c 256,5,6
 637 -16 637 -16 501.5 39.5 c 128,-1,7
 366 95 366 95 269.5 194 c 128,-1,8
 173 293 173 293 120 428.5 c 128,-1,9
 67 564 67 564 67 723 c 256,10,11
 67 882 67 882 120 1017.5 c 128,-1,12
 173 1153 173 1153 269.5 1252 c 128,-1,13
 366 1351 366 1351 501.5 1406.5 c 128,-1,14
 637 1462 637 1462 801 1462 c 256,15,16
 965 1462 965 1462 1100 1406 c 128,-1,17
 1235 1350 1235 1350 1331 1251.5 c 128,-1,18
 1427 1153 1427 1153 1480 1017.5 c 128,-1,19
 1533 882 1533 882 1533 723 c 256,0,1
1257 723 m 256,20,21
 1257 842 1257 842 1225.5 936.5 c 128,-1,22
 1194 1031 1194 1031 1135 1097 c 128,-1,23
 1076 1163 1076 1163 991.5 1198 c 128,-1,24
 907 1233 907 1233 801 1233 c 256,25,26
 695 1233 695 1233 610 1198 c 128,-1,27
 525 1163 525 1163 465.5 1097 c 128,-1,28
 406 1031 406 1031 374 936.5 c 128,-1,29
 342 842 342 842 342 723 c 256,30,31
 342 604 342 604 374 509.5 c 128,-1,32
 406 415 406 415 465.5 349.5 c 128,-1,33
 525 284 525 284 610 249 c 128,-1,34
 695 214 695 214 801 214 c 256,35,36
 907 214 907 214 991.5 249 c 128,-1,37
 1076 284 1076 284 1135 349.5 c 128,-1,38
 1194 415 1194 415 1225.5 509.5 c 128,-1,39
 1257 604 1257 604 1257 723 c 256,20,21
EndSplineSet
Validated: 1
EndChar

StartChar: P
Encoding: 80 80 51
Width: 1250
Flags: W
LayerCount: 2
Fore
SplineSet
424 509 m 1,0,-1
 424 0 l 1,1,-1
 155 0 l 1,2,-1
 155 1446 l 1,3,-1
 626 1446 l 2,4,5
 771 1446 771 1446 877 1412 c 128,-1,6
 983 1378 983 1378 1052 1317 c 128,-1,7
 1121 1256 1121 1256 1154 1171 c 128,-1,8
 1187 1086 1187 1086 1187 985 c 0,9,10
 1187 880 1187 880 1152 792.5 c 128,-1,11
 1117 705 1117 705 1047 642 c 128,-1,12
 977 579 977 579 872 544 c 128,-1,13
 767 509 767 509 626 509 c 2,14,-1
 424 509 l 1,0,-1
424 719 m 1,15,-1
 626 719 l 2,16,17
 700 719 700 719 755 737.5 c 128,-1,18
 810 756 810 756 846 790.5 c 128,-1,19
 882 825 882 825 900 874.5 c 128,-1,20
 918 924 918 924 918 985 c 0,21,22
 918 1043 918 1043 900 1090 c 128,-1,23
 882 1137 882 1137 846 1170 c 128,-1,24
 810 1203 810 1203 755 1220.5 c 128,-1,25
 700 1238 700 1238 626 1238 c 2,26,-1
 424 1238 l 1,27,-1
 424 719 l 1,15,-1
EndSplineSet
Validated: 1
EndChar

StartChar: Q
Encoding: 81 81 52
Width: 1599
Flags: W
LayerCount: 2
Fore
SplineSet
1533 723 m 0,0,1
 1533 626 1533 626 1513 537.5 c 128,-1,2
 1493 449 1493 449 1455.5 372 c 128,-1,3
 1418 295 1418 295 1364 230.5 c 128,-1,4
 1310 166 1310 166 1241 117 c 1,5,-1
 1608 -283 l 1,6,-1
 1386 -283 l 2,7,8
 1338 -283 1338 -283 1299.5 -270 c 128,-1,9
 1261 -257 1261 -257 1229 -222 c 2,10,-1
 1017 12 l 1,11,12
 966 -2 966 -2 912.5 -9 c 128,-1,13
 859 -16 859 -16 801 -16 c 0,14,15
 637 -16 637 -16 501.5 39.5 c 128,-1,16
 366 95 366 95 269.5 194 c 128,-1,17
 173 293 173 293 120 428.5 c 128,-1,18
 67 564 67 564 67 723 c 256,19,20
 67 882 67 882 120 1017.5 c 128,-1,21
 173 1153 173 1153 269.5 1252 c 128,-1,22
 366 1351 366 1351 501.5 1406.5 c 128,-1,23
 637 1462 637 1462 801 1462 c 256,24,25
 965 1462 965 1462 1100 1406 c 128,-1,26
 1235 1350 1235 1350 1331 1251.5 c 128,-1,27
 1427 1153 1427 1153 1480 1017.5 c 128,-1,28
 1533 882 1533 882 1533 723 c 0,0,1
1257 723 m 256,29,30
 1257 842 1257 842 1225.5 936.5 c 128,-1,31
 1194 1031 1194 1031 1135 1097 c 128,-1,32
 1076 1163 1076 1163 991.5 1198 c 128,-1,33
 907 1233 907 1233 801 1233 c 256,34,35
 695 1233 695 1233 610 1198 c 128,-1,36
 525 1163 525 1163 465.5 1097 c 128,-1,37
 406 1031 406 1031 374 936.5 c 128,-1,38
 342 842 342 842 342 723 c 256,39,40
 342 604 342 604 374 509.5 c 128,-1,41
 406 415 406 415 465.5 349.5 c 128,-1,42
 525 284 525 284 610 249 c 128,-1,43
 695 214 695 214 801 214 c 256,44,45
 907 214 907 214 991.5 249 c 128,-1,46
 1076 284 1076 284 1135 349.5 c 128,-1,47
 1194 415 1194 415 1225.5 509.5 c 128,-1,48
 1257 604 1257 604 1257 723 c 256,29,30
EndSplineSet
Validated: 1
EndChar

StartChar: R
Encoding: 82 82 53
Width: 1310
Flags: W
LayerCount: 2
Fore
SplineSet
424 565 m 1,0,-1
 424 0 l 1,1,-1
 155 0 l 1,2,-1
 155 1446 l 1,3,-1
 596 1446 l 2,4,5
 744 1446 744 1446 849.5 1415.5 c 128,-1,6
 955 1385 955 1385 1022.5 1330 c 128,-1,7
 1090 1275 1090 1275 1121.5 1198.5 c 128,-1,8
 1153 1122 1153 1122 1153 1030 c 0,9,10
 1153 957 1153 957 1131.5 892 c 128,-1,11
 1110 827 1110 827 1069.5 774 c 128,-1,12
 1029 721 1029 721 969.5 681 c 128,-1,13
 910 641 910 641 834 617 c 1,14,15
 885 588 885 588 922 534 c 2,16,-1
 1284 0 l 1,17,-1
 1042 0 l 2,18,19
 1007 0 1007 0 982.5 14 c 128,-1,20
 958 28 958 28 941 54 c 2,21,-1
 637 517 l 2,22,23
 620 543 620 543 599.5 554 c 128,-1,24
 579 565 579 565 539 565 c 2,25,-1
 424 565 l 1,0,-1
424 758 m 1,26,-1
 592 758 l 2,27,28
 668 758 668 758 724.5 777 c 128,-1,29
 781 796 781 796 817.5 829.5 c 128,-1,30
 854 863 854 863 872 909 c 128,-1,31
 890 955 890 955 890 1010 c 0,32,33
 890 1120 890 1120 817.5 1179 c 128,-1,34
 745 1238 745 1238 596 1238 c 2,35,-1
 424 1238 l 1,36,-1
 424 758 l 1,26,-1
EndSplineSet
Validated: 1
EndChar

StartChar: S
Encoding: 83 83 54
Width: 1073
Flags: W
LayerCount: 2
Fore
SplineSet
921 1183 m 2,0,1
 910 1161 910 1161 895.5 1152 c 128,-1,2
 881 1143 881 1143 861 1143 c 256,3,4
 841 1143 841 1143 816 1158.5 c 128,-1,5
 791 1174 791 1174 757 1193 c 128,-1,6
 723 1212 723 1212 677.5 1227.5 c 128,-1,7
 632 1243 632 1243 570 1243 c 0,8,9
 514 1243 514 1243 472.5 1229.5 c 128,-1,10
 431 1216 431 1216 402.5 1192 c 128,-1,11
 374 1168 374 1168 360 1134.5 c 128,-1,12
 346 1101 346 1101 346 1061 c 0,13,14
 346 1010 346 1010 374.5 976 c 128,-1,15
 403 942 403 942 450 918 c 128,-1,16
 497 894 497 894 557 875 c 128,-1,17
 617 856 617 856 679.5 834.5 c 128,-1,18
 742 813 742 813 802 784.5 c 128,-1,19
 862 756 862 756 909 712.5 c 128,-1,20
 956 669 956 669 984.5 606 c 128,-1,21
 1013 543 1013 543 1013 453 c 0,22,23
 1013 355 1013 355 979.5 269.5 c 128,-1,24
 946 184 946 184 881.5 120.5 c 128,-1,25
 817 57 817 57 724 20.5 c 128,-1,26
 631 -16 631 -16 511 -16 c 0,27,28
 442 -16 442 -16 375 -2.5 c 128,-1,29
 308 11 308 11 246.5 36 c 128,-1,30
 185 61 185 61 131.5 96 c 128,-1,31
 78 131 78 131 36 174 c 1,32,-1
 114 303 l 2,33,34
 125 317 125 317 140.5 326.5 c 128,-1,35
 156 336 156 336 175 336 c 0,36,37
 200 336 200 336 229 315.5 c 128,-1,38
 258 295 258 295 297.5 270 c 128,-1,39
 337 245 337 245 390.5 224.5 c 128,-1,40
 444 204 444 204 519 204 c 0,41,42
 634 204 634 204 697 258.5 c 128,-1,43
 760 313 760 313 760 415 c 0,44,45
 760 472 760 472 731.5 508 c 128,-1,46
 703 544 703 544 656 568.5 c 128,-1,47
 609 593 609 593 549 610 c 128,-1,48
 489 627 489 627 427 647 c 128,-1,49
 365 667 365 667 305 695 c 128,-1,50
 245 723 245 723 198 768 c 128,-1,51
 151 813 151 813 122.5 880.5 c 128,-1,52
 94 948 94 948 94 1047 c 0,53,54
 94 1126 94 1126 125.5 1201 c 128,-1,55
 157 1276 157 1276 217.5 1334 c 128,-1,56
 278 1392 278 1392 366 1427 c 128,-1,57
 454 1462 454 1462 567 1462 c 0,58,59
 695 1462 695 1462 803 1422 c 128,-1,60
 911 1382 911 1382 987 1310 c 1,61,-1
 921 1183 l 2,0,1
EndSplineSet
Validated: 1
EndChar

StartChar: T
Encoding: 84 84 55
Width: 1190
Flags: W
LayerCount: 2
Fore
SplineSet
1165 1446 m 1,0,-1
 1165 1225 l 1,1,-1
 730 1225 l 1,2,-1
 730 0 l 1,3,-1
 461 0 l 1,4,-1
 461 1225 l 1,5,-1
 24 1225 l 1,6,-1
 24 1446 l 1,7,-1
 1165 1446 l 1,0,-1
EndSplineSet
Validated: 1
EndChar

StartChar: U
Encoding: 85 85 56
Width: 1456
Flags: W
LayerCount: 2
Fore
SplineSet
728 217 m 256,0,1
 806 217 806 217 867.5 243 c 128,-1,2
 929 269 929 269 971.5 316 c 128,-1,3
 1014 363 1014 363 1036.5 430 c 128,-1,4
 1059 497 1059 497 1059 580 c 2,5,-1
 1059 1446 l 1,6,-1
 1328 1446 l 1,7,-1
 1328 580 l 2,8,9
 1328 451 1328 451 1286.5 341.5 c 128,-1,10
 1245 232 1245 232 1167 152.5 c 128,-1,11
 1089 73 1089 73 978 28.5 c 128,-1,12
 867 -16 867 -16 728 -16 c 256,13,14
 589 -16 589 -16 478 28.5 c 128,-1,15
 367 73 367 73 289.5 152.5 c 128,-1,16
 212 232 212 232 170.5 341.5 c 128,-1,17
 129 451 129 451 129 580 c 2,18,-1
 129 1446 l 1,19,-1
 398 1446 l 1,20,-1
 398 581 l 2,21,22
 398 498 398 498 420.5 431 c 128,-1,23
 443 364 443 364 485 316.5 c 128,-1,24
 527 269 527 269 588.5 243 c 128,-1,25
 650 217 650 217 728 217 c 256,0,1
EndSplineSet
Validated: 1
EndChar

StartChar: V
Encoding: 86 86 57
Width: 1420
Flags: W
LayerCount: 2
Fore
SplineSet
4 1446 m 1,0,-1
 221 1446 l 2,1,2
 256 1446 256 1446 278 1429 c 128,-1,3
 300 1412 300 1412 311 1385 c 2,4,-1
 651 503 l 2,5,6
 668 460 668 460 683.5 408.5 c 128,-1,7
 699 357 699 357 713 300 c 1,8,9
 736 415 736 415 770 503 c 2,10,-1
 1109 1385 l 2,11,12
 1118 1408 1118 1408 1141 1427 c 128,-1,13
 1164 1446 1164 1446 1198 1446 c 2,14,-1
 1415 1446 l 1,15,-1
 831 0 l 1,16,-1
 588 0 l 1,17,-1
 4 1446 l 1,0,-1
EndSplineSet
Validated: 1
EndChar

StartChar: W
Encoding: 87 87 58
Width: 2093
Flags: W
LayerCount: 2
Fore
SplineSet
12 1446 m 1,0,-1
 238 1446 l 2,1,2
 273 1446 273 1446 296.5 1429.5 c 128,-1,3
 320 1413 320 1413 328 1385 c 2,4,-1
 574 520 l 2,5,6
 583 488 583 488 590.5 450.5 c 128,-1,7
 598 413 598 413 605 371 c 1,8,9
 613 413 613 413 622.5 450.5 c 128,-1,10
 632 488 632 488 643 520 c 2,11,-1
 927 1385 l 2,12,13
 935 1408 935 1408 958.5 1427 c 128,-1,14
 982 1446 982 1446 1016 1446 c 2,15,-1
 1095 1446 l 2,16,17
 1130 1446 1130 1446 1153 1429.5 c 128,-1,18
 1176 1413 1176 1413 1185 1385 c 2,19,-1
 1467 520 l 2,20,21
 1489 456 1489 456 1505 378 c 1,22,23
 1512 417 1512 417 1519.5 453 c 128,-1,24
 1527 489 1527 489 1535 520 c 2,25,-1
 1781 1385 l 2,26,27
 1788 1410 1788 1410 1812 1428 c 128,-1,28
 1836 1446 1836 1446 1870 1446 c 2,29,-1
 2081 1446 l 1,30,-1
 1632 0 l 1,31,-1
 1389 0 l 1,32,-1
 1073 988 l 2,33,34
 1067 1007 1067 1007 1060.5 1029 c 128,-1,35
 1054 1051 1054 1051 1048 1076 c 1,36,37
 1042 1051 1042 1051 1035.5 1029 c 128,-1,38
 1029 1007 1029 1007 1023 988 c 2,39,-1
 704 0 l 1,40,-1
 461 0 l 1,41,-1
 12 1446 l 1,0,-1
EndSplineSet
Validated: 1
EndChar

StartChar: X
Encoding: 88 88 59
Width: 1358
Flags: W
LayerCount: 2
Fore
SplineSet
493 744 m 1,0,-1
 32 1446 l 1,1,-1
 300 1446 l 2,2,3
 328 1446 328 1446 340.5 1438.5 c 128,-1,4
 353 1431 353 1431 363 1414 c 2,5,-1
 692 883 l 1,6,7
 697 896 697 896 703 908.5 c 128,-1,8
 709 921 709 921 717 934 c 2,9,-1
 1018 1409 l 2,10,11
 1040 1446 1040 1446 1075 1446 c 2,12,-1
 1333 1446 l 1,13,-1
 867 755 l 1,14,-1
 1346 0 l 1,15,-1
 1077 0 l 2,16,17
 1050 0 1050 0 1033.5 14 c 128,-1,18
 1017 28 1017 28 1006 46 c 2,19,-1
 671 600 l 1,20,21
 667 588 667 588 662 577.5 c 128,-1,22
 657 567 657 567 652 558 c 2,23,-1
 331 46 l 2,24,25
 320 29 320 29 304 14.5 c 128,-1,26
 288 0 288 0 264 0 c 2,27,-1
 12 0 l 1,28,-1
 493 744 l 1,0,-1
EndSplineSet
Validated: 1
EndChar

StartChar: Y
Encoding: 89 89 60
Width: 1309
Flags: W
LayerCount: 2
Fore
SplineSet
789 562 m 1,0,-1
 789 0 l 1,1,-1
 520 0 l 1,2,-1
 520 562 l 1,3,-1
 -7 1446 l 1,4,-1
 230 1446 l 2,5,6
 265 1446 265 1446 285.5 1429 c 128,-1,7
 306 1412 306 1412 320 1386 c 2,8,-1
 585 903 l 2,9,10
 608 860 608 860 625 821.5 c 128,-1,11
 642 783 642 783 656 746 c 1,12,13
 669 784 669 784 685.5 822.5 c 128,-1,14
 702 861 702 861 725 903 c 2,15,-1
 988 1386 l 2,16,17
 999 1408 999 1408 1021 1427 c 128,-1,18
 1043 1446 1043 1446 1077 1446 c 2,19,-1
 1315 1446 l 1,20,-1
 789 562 l 1,0,-1
EndSplineSet
Validated: 1
EndChar

StartChar: Z
Encoding: 90 90 61
Width: 1234
Flags: W
LayerCount: 2
Fore
SplineSet
1179 1446 m 1,0,-1
 1179 1347 l 2,1,2
 1179 1301 1179 1301 1153 1263 c 2,3,-1
 411 215 l 1,4,-1
 1161 215 l 1,5,-1
 1161 0 l 1,6,-1
 62 0 l 1,7,-1
 62 106 l 2,8,9
 62 126 62 126 69 144.5 c 128,-1,10
 76 163 76 163 87 179 c 2,11,-1
 831 1232 l 1,12,-1
 109 1232 l 1,13,-1
 109 1446 l 1,14,-1
 1179 1446 l 1,0,-1
EndSplineSet
Validated: 1
EndChar

StartChar: bracketleft
Encoding: 91 91 62
Width: 600
Flags: W
LayerCount: 2
Fore
SplineSet
115 -308 m 1,0,-1
 115 1547 l 1,1,-1
 525 1547 l 1,2,-1
 525 1450 l 2,3,4
 525 1424 525 1424 506.5 1405.5 c 128,-1,5
 488 1387 488 1387 459 1387 c 2,6,-1
 321 1387 l 1,7,-1
 321 -148 l 1,8,-1
 459 -148 l 2,9,10
 488 -148 488 -148 506.5 -166.5 c 128,-1,11
 525 -185 525 -185 525 -211 c 2,12,-1
 525 -308 l 1,13,-1
 115 -308 l 1,0,-1
EndSplineSet
Validated: 1
EndChar

StartChar: backslash
Encoding: 92 92 63
Width: 781
Flags: W
LayerCount: 2
Fore
SplineSet
-28 1486 m 1,0,-1
 78 1486 l 2,1,2
 122 1486 122 1486 154.5 1463.5 c 128,-1,3
 187 1441 187 1441 204 1399 c 2,4,-1
 787 -95 l 1,5,-1
 683 -95 l 2,6,7
 644 -95 644 -95 606.5 -72 c 128,-1,8
 569 -49 569 -49 552 -3 c 2,9,-1
 -28 1486 l 1,0,-1
EndSplineSet
Validated: 1
EndChar

StartChar: bracketright
Encoding: 93 93 64
Width: 600
Flags: W
LayerCount: 2
Fore
SplineSet
75 -308 m 1,0,-1
 75 -211 l 2,1,2
 75 -185 75 -185 93.5 -166.5 c 128,-1,3
 112 -148 112 -148 141 -148 c 2,4,-1
 279 -148 l 1,5,-1
 279 1387 l 1,6,-1
 141 1387 l 2,7,8
 112 1387 112 1387 93.5 1405.5 c 128,-1,9
 75 1424 75 1424 75 1450 c 2,10,-1
 75 1547 l 1,11,-1
 485 1547 l 1,12,-1
 485 -308 l 1,13,-1
 75 -308 l 1,0,-1
EndSplineSet
Validated: 1
EndChar

StartChar: asciicircum
Encoding: 94 94 65
Width: 1160
Flags: W
LayerCount: 2
Fore
SplineSet
1028 777 m 1,0,-1
 847 777 l 2,1,2
 824 777 824 777 809.5 789 c 128,-1,3
 795 801 795 801 785 818 c 2,4,-1
 626 1107 l 2,5,6
 611 1135 611 1135 598.5 1160 c 128,-1,7
 586 1185 586 1185 578 1211 c 1,8,9
 570 1185 570 1185 559 1159.5 c 128,-1,10
 548 1134 548 1134 533 1107 c 2,11,-1
 377 818 l 2,12,13
 368 801 368 801 353 789 c 128,-1,14
 338 777 338 777 312 777 c 2,15,-1
 122 777 l 1,16,-1
 495 1446 l 1,17,-1
 655 1446 l 1,18,-1
 1028 777 l 1,0,-1
EndSplineSet
Validated: 1
EndChar

StartChar: underscore
Encoding: 95 95 66
Width: 788
Flags: W
LayerCount: 2
Fore
SplineSet
788 -134 m 1,0,-1
 788 -294 l 1,1,-1
 0 -294 l 1,2,-1
 0 -134 l 1,3,-1
 788 -134 l 1,0,-1
EndSplineSet
Validated: 1
EndChar

StartChar: grave
Encoding: 96 96 67
Width: 638
Flags: W
LayerCount: 2
Fore
SplineSet
230 1462 m 2,0,1
 271 1462 271 1462 290.5 1448.5 c 128,-1,2
 310 1435 310 1435 325 1409 c 2,3,-1
 468 1166 l 1,4,-1
 327 1166 l 2,5,6
 299 1166 299 1166 281.5 1173.5 c 128,-1,7
 264 1181 264 1181 246 1201 c 2,8,-1
 -1 1462 l 1,9,-1
 230 1462 l 2,0,1
EndSplineSet
Validated: 1
EndChar

StartChar: a
Encoding: 97 97 68
Width: 1047
Flags: W
LayerCount: 2
Fore
SplineSet
936 0 m 1,0,-1
 825 0 l 2,1,2
 790 0 790 0 770 10.5 c 128,-1,3
 750 21 750 21 740 53 c 2,4,-1
 718 126 l 1,5,6
 679 91 679 91 641.5 64.5 c 128,-1,7
 604 38 604 38 564 20 c 128,-1,8
 524 2 524 2 479 -7 c 128,-1,9
 434 -16 434 -16 379 -16 c 0,10,11
 314 -16 314 -16 259 1.5 c 128,-1,12
 204 19 204 19 164.5 54 c 128,-1,13
 125 89 125 89 103 141 c 128,-1,14
 81 193 81 193 81 262 c 0,15,16
 81 320 81 320 111.5 376.5 c 128,-1,17
 142 433 142 433 213 478.5 c 128,-1,18
 284 524 284 524 402 554 c 128,-1,19
 520 584 520 584 695 588 c 1,20,-1
 695 648 l 2,21,22
 695 751 695 751 651.5 800.5 c 128,-1,23
 608 850 608 850 525 850 c 0,24,25
 465 850 465 850 425 836 c 128,-1,26
 385 822 385 822 355.5 804.5 c 128,-1,27
 326 787 326 787 301 773 c 128,-1,28
 276 759 276 759 246 759 c 0,29,30
 221 759 221 759 203 772 c 128,-1,31
 185 785 185 785 174 804 c 2,32,-1
 129 883 l 1,33,34
 306 1045 306 1045 556 1045 c 0,35,36
 646 1045 646 1045 716.5 1015.5 c 128,-1,37
 787 986 787 986 836 933.5 c 128,-1,38
 885 881 885 881 910.5 808 c 128,-1,39
 936 735 936 735 936 648 c 2,40,-1
 936 0 l 1,0,-1
456 154 m 0,41,42
 494 154 494 154 526 161 c 128,-1,43
 558 168 558 168 586.5 182 c 128,-1,44
 615 196 615 196 641.5 216.5 c 128,-1,45
 668 237 668 237 695 265 c 1,46,-1
 695 438 l 1,47,48
 587 433 587 433 514.5 419.5 c 128,-1,49
 442 406 442 406 398 385 c 128,-1,50
 354 364 354 364 335.5 336 c 128,-1,51
 317 308 317 308 317 275 c 0,52,53
 317 210 317 210 355.5 182 c 128,-1,54
 394 154 394 154 456 154 c 0,41,42
EndSplineSet
Validated: 1
EndChar

StartChar: b
Encoding: 98 98 69
Width: 1140
Flags: W
LayerCount: 2
Fore
SplineSet
135 0 m 1,0,-1
 135 1486 l 1,1,-1
 382 1486 l 1,2,-1
 382 900 l 1,3,4
 443 965 443 965 520 1003.5 c 128,-1,5
 597 1042 597 1042 700 1042 c 0,6,7
 784 1042 784 1042 853.5 1007.5 c 128,-1,8
 923 973 923 973 973.5 907 c 128,-1,9
 1024 841 1024 841 1051.5 744 c 128,-1,10
 1079 647 1079 647 1079 521 c 0,11,12
 1079 406 1079 406 1048 308 c 128,-1,13
 1017 210 1017 210 959.5 138 c 128,-1,14
 902 66 902 66 820.5 25.5 c 128,-1,15
 739 -15 739 -15 638 -15 c 0,16,17
 591 -15 591 -15 552 -5.5 c 128,-1,18
 513 4 513 4 481 21 c 128,-1,19
 449 38 449 38 421.5 62.5 c 128,-1,20
 394 87 394 87 369 117 c 1,21,-1
 358 48 l 2,22,23
 352 22 352 22 337.5 11 c 128,-1,24
 323 0 323 0 298 0 c 2,25,-1
 135 0 l 1,0,-1
615 850 m 0,26,27
 538 850 538 850 483.5 817.5 c 128,-1,28
 429 785 429 785 382 726 c 1,29,-1
 382 266 l 1,30,31
 424 214 424 214 473.5 193.5 c 128,-1,32
 523 173 523 173 581 173 c 0,33,34
 637 173 637 173 682 194 c 128,-1,35
 727 215 727 215 758.5 258 c 128,-1,36
 790 301 790 301 807 366.5 c 128,-1,37
 824 432 824 432 824 521 c 0,38,39
 824 611 824 611 809.5 673.5 c 128,-1,40
 795 736 795 736 768 775 c 128,-1,41
 741 814 741 814 702.5 832 c 128,-1,42
 664 850 664 850 615 850 c 0,26,27
EndSplineSet
Validated: 1
EndChar

StartChar: c
Encoding: 99 99 70
Width: 954
Flags: W
LayerCount: 2
Fore
SplineSet
853 809 m 2,0,1
 842 795 842 795 831.5 787 c 128,-1,2
 821 779 821 779 801 779 c 0,3,4
 782 779 782 779 764 790.5 c 128,-1,5
 746 802 746 802 721 816.5 c 128,-1,6
 696 831 696 831 661.5 842.5 c 128,-1,7
 627 854 627 854 576 854 c 0,8,9
 511 854 511 854 462 830.5 c 128,-1,10
 413 807 413 807 380.5 763 c 128,-1,11
 348 719 348 719 332 656.5 c 128,-1,12
 316 594 316 594 316 515 c 0,13,14
 316 433 316 433 333.5 369 c 128,-1,15
 351 305 351 305 384 261.5 c 128,-1,16
 417 218 417 218 464 195.5 c 128,-1,17
 511 173 511 173 570 173 c 256,18,19
 629 173 629 173 665.5 187.5 c 128,-1,20
 702 202 702 202 727 219.5 c 128,-1,21
 752 237 752 237 770.5 251.5 c 128,-1,22
 789 266 789 266 812 266 c 0,23,24
 842 266 842 266 857 243 c 2,25,-1
 928 153 l 1,26,27
 887 105 887 105 839 72.5 c 128,-1,28
 791 40 791 40 739.5 20.5 c 128,-1,29
 688 1 688 1 633 -7 c 128,-1,30
 578 -15 578 -15 524 -15 c 0,31,32
 429 -15 429 -15 345 20.5 c 128,-1,33
 261 56 261 56 198.5 124 c 128,-1,34
 136 192 136 192 99.5 290.5 c 128,-1,35
 63 389 63 389 63 515 c 0,36,37
 63 628 63 628 95.5 724.5 c 128,-1,38
 128 821 128 821 191 891.5 c 128,-1,39
 254 962 254 962 347 1002 c 128,-1,40
 440 1042 440 1042 561 1042 c 0,41,42
 676 1042 676 1042 762.5 1005 c 128,-1,43
 849 968 849 968 918 899 c 1,44,-1
 853 809 l 2,0,1
EndSplineSet
Validated: 1
EndChar

StartChar: d
Encoding: 100 100 71
Width: 1140
Flags: W
LayerCount: 2
Fore
SplineSet
854 0 m 2,0,1
 806 0 806 0 791 45 c 1,2,-1
 771 144 l 1,3,4
 739 108 739 108 704 79 c 128,-1,5
 669 50 669 50 628.5 29 c 128,-1,6
 588 8 588 8 541.5 -3.5 c 128,-1,7
 495 -15 495 -15 441 -15 c 0,8,9
 357 -15 357 -15 287 20 c 128,-1,10
 217 55 217 55 166.5 121.5 c 128,-1,11
 116 188 116 188 88.5 286 c 128,-1,12
 61 384 61 384 61 510 c 0,13,14
 61 624 61 624 92 722 c 128,-1,15
 123 820 123 820 181 892 c 128,-1,16
 239 964 239 964 320 1004.5 c 128,-1,17
 401 1045 401 1045 502 1045 c 0,18,19
 588 1045 588 1045 649 1017.5 c 128,-1,20
 710 990 710 990 758 944 c 1,21,-1
 758 1486 l 1,22,-1
 1005 1486 l 1,23,-1
 1005 0 l 1,24,-1
 854 0 l 2,0,1
525 181 m 0,25,26
 602 181 602 181 656 213 c 128,-1,27
 710 245 710 245 758 304 c 1,28,-1
 758 764 l 1,29,30
 716 815 716 815 666.5 836 c 128,-1,31
 617 857 617 857 560 857 c 0,32,33
 504 857 504 857 458.5 836 c 128,-1,34
 413 815 413 815 381.5 772.5 c 128,-1,35
 350 730 350 730 333 664.5 c 128,-1,36
 316 599 316 599 316 510 c 0,37,38
 316 420 316 420 330.5 357.5 c 128,-1,39
 345 295 345 295 372 255.5 c 128,-1,40
 399 216 399 216 438 198.5 c 128,-1,41
 477 181 477 181 525 181 c 0,25,26
EndSplineSet
Validated: 1
EndChar

StartChar: e
Encoding: 101 101 72
Width: 1069
Flags: W
LayerCount: 2
Fore
SplineSet
556 1042 m 0,0,1
 653 1042 653 1042 734.5 1011 c 128,-1,2
 816 980 816 980 875 920.5 c 128,-1,3
 934 861 934 861 967 774.5 c 128,-1,4
 1000 688 1000 688 1000 577 c 0,5,6
 1000 549 1000 549 997.5 530.5 c 128,-1,7
 995 512 995 512 988.5 501.5 c 128,-1,8
 982 491 982 491 971 486.5 c 128,-1,9
 960 482 960 482 943 482 c 2,10,-1
 309 482 l 1,11,12
 320 324 320 324 394 250 c 128,-1,13
 468 176 468 176 590 176 c 0,14,15
 650 176 650 176 693.5 190 c 128,-1,16
 737 204 737 204 769.5 221 c 128,-1,17
 802 238 802 238 826.5 252 c 128,-1,18
 851 266 851 266 874 266 c 0,19,20
 889 266 889 266 900 260 c 128,-1,21
 911 254 911 254 919 243 c 2,22,-1
 991 153 l 1,23,24
 950 105 950 105 899 72.5 c 128,-1,25
 848 40 848 40 792.5 20.5 c 128,-1,26
 737 1 737 1 679.5 -7 c 128,-1,27
 622 -15 622 -15 568 -15 c 0,28,29
 461 -15 461 -15 369 20.5 c 128,-1,30
 277 56 277 56 209 125.5 c 128,-1,31
 141 195 141 195 102 297.5 c 128,-1,32
 63 400 63 400 63 535 c 0,33,34
 63 640 63 640 97 732.5 c 128,-1,35
 131 825 131 825 194.5 893.5 c 128,-1,36
 258 962 258 962 349.5 1002 c 128,-1,37
 441 1042 441 1042 556 1042 c 0,0,1
561 865 m 0,38,39
 453 865 453 865 392 804 c 128,-1,40
 331 743 331 743 314 631 c 1,41,-1
 778 631 l 1,42,43
 778 679 778 679 765 721.5 c 128,-1,44
 752 764 752 764 725 796 c 128,-1,45
 698 828 698 828 657 846.5 c 128,-1,46
 616 865 616 865 561 865 c 0,38,39
EndSplineSet
Validated: 1
EndChar

StartChar: f
Encoding: 102 102 73
Width: 701
Flags: W
LayerCount: 2
Fore
SplineSet
176 0 m 1,0,-1
 176 840 l 1,1,-1
 87 854 l 2,2,3
 58 859 58 859 40.5 874 c 128,-1,4
 23 889 23 889 23 916 c 2,5,-1
 23 1017 l 1,6,-1
 176 1017 l 1,7,-1
 176 1093 l 2,8,9
 176 1181 176 1181 202.5 1251 c 128,-1,10
 229 1321 229 1321 278.5 1370 c 128,-1,11
 328 1419 328 1419 399 1445 c 128,-1,12
 470 1471 470 1471 559 1471 c 0,13,14
 630 1471 630 1471 691 1452 c 1,15,-1
 686 1328 l 2,16,17
 684 1299 684 1299 659 1292 c 128,-1,18
 634 1285 634 1285 601 1285 c 0,19,20
 557 1285 557 1285 522.5 1275.5 c 128,-1,21
 488 1266 488 1266 464 1242.5 c 128,-1,22
 440 1219 440 1219 427.5 1180.5 c 128,-1,23
 415 1142 415 1142 415 1085 c 2,24,-1
 415 1017 l 1,25,-1
 682 1017 l 1,26,-1
 682 841 l 1,27,-1
 423 841 l 1,28,-1
 423 0 l 1,29,-1
 176 0 l 1,0,-1
EndSplineSet
Validated: 1
EndChar

StartChar: g
Encoding: 103 103 74
Width: 1035
Flags: W
LayerCount: 2
Fore
SplineSet
487 1044 m 0,0,1
 553 1044 553 1044 611 1030.5 c 128,-1,2
 669 1017 669 1017 717 991 c 1,3,-1
 1012 991 l 1,4,-1
 1012 899 l 2,5,6
 1012 876 1012 876 1000 863 c 128,-1,7
 988 850 988 850 959 845 c 2,8,-1
 867 828 l 1,9,10
 877 802 877 802 882.5 773 c 128,-1,11
 888 744 888 744 888 712 c 0,12,13
 888 636 888 636 857.5 574.5 c 128,-1,14
 827 513 827 513 773.5 470 c 128,-1,15
 720 427 720 427 646.5 403.5 c 128,-1,16
 573 380 573 380 487 380 c 0,17,18
 429 380 429 380 374 391 c 1,19,20
 326 362 326 362 326 326 c 0,21,22
 326 295 326 295 354.5 280.5 c 128,-1,23
 383 266 383 266 429.5 260 c 128,-1,24
 476 254 476 254 535 252.5 c 128,-1,25
 594 251 594 251 656 246 c 128,-1,26
 718 241 718 241 777 228.5 c 128,-1,27
 836 216 836 216 882.5 189 c 128,-1,28
 929 162 929 162 957.5 115.5 c 128,-1,29
 986 69 986 69 986 -4 c 0,30,31
 986 -72 986 -72 952.5 -136 c 128,-1,32
 919 -200 919 -200 855.5 -250 c 128,-1,33
 792 -300 792 -300 700 -330.5 c 128,-1,34
 608 -361 608 -361 490 -361 c 0,35,36
 373 -361 373 -361 287 -338.5 c 128,-1,37
 201 -316 201 -316 144.5 -278.5 c 128,-1,38
 88 -241 88 -241 60 -192 c 128,-1,39
 32 -143 32 -143 32 -90 c 0,40,41
 32 -18 32 -18 76 31 c 128,-1,42
 120 80 120 80 198 109 c 1,43,44
 160 130 160 130 137 165 c 128,-1,45
 114 200 114 200 114 256 c 0,46,47
 114 279 114 279 122 303.5 c 128,-1,48
 130 328 130 328 146.5 352 c 128,-1,49
 163 376 163 376 188 397.5 c 128,-1,50
 213 419 213 419 247 436 c 1,51,52
 169 478 169 478 124.5 548 c 128,-1,53
 80 618 80 618 80 712 c 0,54,55
 80 788 80 788 110.5 849.5 c 128,-1,56
 141 911 141 911 195.5 954.5 c 128,-1,57
 250 998 250 998 324.5 1021 c 128,-1,58
 399 1044 399 1044 487 1044 c 0,0,1
758 -46 m 256,59,60
 758 -16 758 -16 740 3 c 128,-1,61
 722 22 722 22 691 32.5 c 128,-1,62
 660 43 660 43 618.5 48 c 128,-1,63
 577 53 577 53 530.5 55.5 c 128,-1,64
 484 58 484 58 434.5 60.5 c 128,-1,65
 385 63 385 63 339 69 c 1,66,67
 297 46 297 46 271.5 14.5 c 128,-1,68
 246 -17 246 -17 246 -58 c 0,69,70
 246 -85 246 -85 259.5 -108.5 c 128,-1,71
 273 -132 273 -132 302.5 -149 c 128,-1,72
 332 -166 332 -166 379 -175.5 c 128,-1,73
 426 -185 426 -185 494 -185 c 0,74,75
 563 -185 563 -185 613 -174.5 c 128,-1,76
 663 -164 663 -164 695.5 -145.5 c 128,-1,77
 728 -127 728 -127 743 -101.5 c 128,-1,78
 758 -76 758 -76 758 -46 c 256,59,60
487 538 m 0,79,80
 533 538 533 538 567 550.5 c 128,-1,81
 601 563 601 563 623.5 585 c 128,-1,82
 646 607 646 607 657.5 638 c 128,-1,83
 669 669 669 669 669 706 c 0,84,85
 669 782 669 782 623.5 826.5 c 128,-1,86
 578 871 578 871 487 871 c 256,87,88
 396 871 396 871 350.5 826.5 c 128,-1,89
 305 782 305 782 305 706 c 0,90,91
 305 670 305 670 316.5 639 c 128,-1,92
 328 608 328 608 350.5 585.5 c 128,-1,93
 373 563 373 563 407.5 550.5 c 128,-1,94
 442 538 442 538 487 538 c 0,79,80
EndSplineSet
Validated: 1
EndChar

StartChar: h
Encoding: 104 104 75
Width: 1137
Flags: W
LayerCount: 2
Fore
SplineSet
132 0 m 1,0,-1
 132 1486 l 1,1,-1
 379 1486 l 1,2,-1
 379 915 l 1,3,4
 439 972 439 972 511 1007 c 128,-1,5
 583 1042 583 1042 680 1042 c 0,6,7
 764 1042 764 1042 829 1013.5 c 128,-1,8
 894 985 894 985 937.5 933.5 c 128,-1,9
 981 882 981 882 1003.5 810.5 c 128,-1,10
 1026 739 1026 739 1026 653 c 2,11,-1
 1026 0 l 1,12,-1
 779 0 l 1,13,-1
 779 653 l 2,14,15
 779 747 779 747 735.5 798.5 c 128,-1,16
 692 850 692 850 605 850 c 0,17,18
 541 850 541 850 485 821 c 128,-1,19
 429 792 429 792 379 742 c 1,20,-1
 379 0 l 1,21,-1
 132 0 l 1,0,-1
EndSplineSet
Validated: 1
EndChar

StartChar: i
Encoding: 105 105 76
Width: 542
Flags: W
LayerCount: 2
Fore
SplineSet
395 1026 m 1,0,-1
 395 0 l 1,1,-1
 148 0 l 1,2,-1
 148 1026 l 1,3,-1
 395 1026 l 1,0,-1
432 1325 m 0,4,5
 432 1293 432 1293 419 1265 c 128,-1,6
 406 1237 406 1237 384.5 1216 c 128,-1,7
 363 1195 363 1195 334 1182.5 c 128,-1,8
 305 1170 305 1170 272 1170 c 0,9,10
 240 1170 240 1170 211.5 1182.5 c 128,-1,11
 183 1195 183 1195 162 1216 c 128,-1,12
 141 1237 141 1237 128.5 1265 c 128,-1,13
 116 1293 116 1293 116 1325 c 0,14,15
 116 1358 116 1358 128.5 1387 c 128,-1,16
 141 1416 141 1416 162 1437 c 128,-1,17
 183 1458 183 1458 211.5 1470.5 c 128,-1,18
 240 1483 240 1483 272 1483 c 0,19,20
 305 1483 305 1483 334 1470.5 c 128,-1,21
 363 1458 363 1458 384.5 1437 c 128,-1,22
 406 1416 406 1416 419 1387 c 128,-1,23
 432 1358 432 1358 432 1325 c 0,4,5
EndSplineSet
Validated: 1
EndChar

StartChar: j
Encoding: 106 106 77
Width: 538
Flags: W
LayerCount: 2
Fore
SplineSet
395 1026 m 1,0,-1
 395 -35 l 2,1,2
 395 -102 395 -102 377.5 -161 c 128,-1,3
 360 -220 360 -220 321.5 -264.5 c 128,-1,4
 283 -309 283 -309 220.5 -334.5 c 128,-1,5
 158 -360 158 -360 68 -360 c 0,6,7
 33 -360 33 -360 3 -355.5 c 128,-1,8
 -27 -351 -27 -351 -58 -341 c 1,9,-1
 -50 -208 l 2,10,11
 -47 -188 -47 -188 -34 -182.5 c 128,-1,12
 -21 -177 -21 -177 16 -177 c 256,13,14
 53 -177 53 -177 78.5 -169.5 c 128,-1,15
 104 -162 104 -162 119.5 -145.5 c 128,-1,16
 135 -129 135 -129 141.5 -102 c 128,-1,17
 148 -75 148 -75 148 -35 c 2,18,-1
 148 1026 l 1,19,-1
 395 1026 l 1,0,-1
432 1325 m 0,20,21
 432 1293 432 1293 419 1265 c 128,-1,22
 406 1237 406 1237 384.5 1216 c 128,-1,23
 363 1195 363 1195 334 1182.5 c 128,-1,24
 305 1170 305 1170 272 1170 c 0,25,26
 240 1170 240 1170 211.5 1182.5 c 128,-1,27
 183 1195 183 1195 162 1216 c 128,-1,28
 141 1237 141 1237 128.5 1265 c 128,-1,29
 116 1293 116 1293 116 1325 c 0,30,31
 116 1358 116 1358 128.5 1387 c 128,-1,32
 141 1416 141 1416 162 1437 c 128,-1,33
 183 1458 183 1458 211.5 1470.5 c 128,-1,34
 240 1483 240 1483 272 1483 c 0,35,36
 305 1483 305 1483 334 1470.5 c 128,-1,37
 363 1458 363 1458 384.5 1437 c 128,-1,38
 406 1416 406 1416 419 1387 c 128,-1,39
 432 1358 432 1358 432 1325 c 0,20,21
EndSplineSet
Validated: 1
EndChar

StartChar: k
Encoding: 107 107 78
Width: 1103
Flags: W
LayerCount: 2
Fore
SplineSet
382 1486 m 1,0,-1
 382 635 l 1,1,-1
 428 635 l 2,2,3
 453 635 453 635 467 642 c 128,-1,4
 481 649 481 649 497 668 c 2,5,-1
 752 983 l 2,6,7
 769 1003 769 1003 788 1014.5 c 128,-1,8
 807 1026 807 1026 838 1026 c 2,9,-1
 1064 1026 l 1,10,-1
 745 645 l 2,11,12
 728 624 728 624 710 606.5 c 128,-1,13
 692 589 692 589 671 576 c 1,14,15
 692 561 692 561 708 541 c 128,-1,16
 724 521 724 521 740 498 c 2,17,-1
 1082 0 l 1,18,-1
 859 0 l 2,19,20
 830 0 830 0 810 10 c 128,-1,21
 790 20 790 20 774 44 c 2,22,-1
 513 433 l 2,23,24
 498 456 498 456 483 463 c 128,-1,25
 468 470 468 470 438 470 c 2,26,-1
 382 470 l 1,27,-1
 382 0 l 1,28,-1
 135 0 l 1,29,-1
 135 1486 l 1,30,-1
 382 1486 l 1,0,-1
EndSplineSet
Validated: 1
EndChar

StartChar: l
Encoding: 108 108 79
Width: 542
Flags: W
LayerCount: 2
Fore
SplineSet
395 1486 m 1,0,-1
 395 0 l 1,1,-1
 148 0 l 1,2,-1
 148 1486 l 1,3,-1
 395 1486 l 1,0,-1
EndSplineSet
Validated: 1
EndChar

StartChar: m
Encoding: 109 109 80
Width: 1684
Flags: W
LayerCount: 2
Fore
SplineSet
132 0 m 1,0,-1
 132 1026 l 1,1,-1
 283 1026 l 2,2,3
 331 1026 331 1026 346 981 c 1,4,-1
 362 905 l 1,5,6
 389 935 389 935 418.5 960 c 128,-1,7
 448 985 448 985 481.5 1003 c 128,-1,8
 515 1021 515 1021 553.5 1031.5 c 128,-1,9
 592 1042 592 1042 638 1042 c 0,10,11
 735 1042 735 1042 797.5 989.5 c 128,-1,12
 860 937 860 937 891 850 c 1,13,14
 915 901 915 901 951 937.5 c 128,-1,15
 987 974 987 974 1030 997 c 128,-1,16
 1073 1020 1073 1020 1121.5 1031 c 128,-1,17
 1170 1042 1170 1042 1219 1042 c 0,18,19
 1304 1042 1304 1042 1370 1016 c 128,-1,20
 1436 990 1436 990 1481 940 c 128,-1,21
 1526 890 1526 890 1549.5 818 c 128,-1,22
 1573 746 1573 746 1573 653 c 2,23,-1
 1573 0 l 1,24,-1
 1326 0 l 1,25,-1
 1326 653 l 2,26,27
 1326 751 1326 751 1283 800.5 c 128,-1,28
 1240 850 1240 850 1157 850 c 0,29,30
 1119 850 1119 850 1086.5 837 c 128,-1,31
 1054 824 1054 824 1029.5 799.5 c 128,-1,32
 1005 775 1005 775 991 738 c 128,-1,33
 977 701 977 701 977 653 c 2,34,-1
 977 0 l 1,35,-1
 729 0 l 1,36,-1
 729 653 l 2,37,38
 729 756 729 756 687.5 803 c 128,-1,39
 646 850 646 850 565 850 c 0,40,41
 512 850 512 850 465.5 823.5 c 128,-1,42
 419 797 419 797 379 751 c 1,43,-1
 379 0 l 1,44,-1
 132 0 l 1,0,-1
EndSplineSet
Validated: 1
EndChar

StartChar: n
Encoding: 110 110 81
Width: 1137
Flags: W
LayerCount: 2
Fore
SplineSet
132 0 m 1,0,-1
 132 1026 l 1,1,-1
 283 1026 l 2,2,3
 331 1026 331 1026 346 981 c 1,4,-1
 363 900 l 1,5,6
 394 932 394 932 428.5 958 c 128,-1,7
 463 984 463 984 501.5 1003 c 128,-1,8
 540 1022 540 1022 584 1032 c 128,-1,9
 628 1042 628 1042 680 1042 c 0,10,11
 764 1042 764 1042 829 1013.5 c 128,-1,12
 894 985 894 985 937.5 933.5 c 128,-1,13
 981 882 981 882 1003.5 810.5 c 128,-1,14
 1026 739 1026 739 1026 653 c 2,15,-1
 1026 0 l 1,16,-1
 779 0 l 1,17,-1
 779 653 l 2,18,19
 779 747 779 747 735.5 798.5 c 128,-1,20
 692 850 692 850 605 850 c 0,21,22
 541 850 541 850 485 821 c 128,-1,23
 429 792 429 792 379 742 c 1,24,-1
 379 0 l 1,25,-1
 132 0 l 1,0,-1
EndSplineSet
Validated: 1
EndChar

StartChar: o
Encoding: 111 111 82
Width: 1137
Flags: W
LayerCount: 2
Fore
SplineSet
570 1042 m 256,0,1
 685 1042 685 1042 778.5 1005 c 128,-1,2
 872 968 872 968 938 900 c 128,-1,3
 1004 832 1004 832 1040 734 c 128,-1,4
 1076 636 1076 636 1076 515 c 0,5,6
 1076 393 1076 393 1040 295 c 128,-1,7
 1004 197 1004 197 938 128 c 128,-1,8
 872 59 872 59 778.5 22 c 128,-1,9
 685 -15 685 -15 570 -15 c 256,10,11
 455 -15 455 -15 361 22 c 128,-1,12
 267 59 267 59 200.5 128 c 128,-1,13
 134 197 134 197 97.5 295 c 128,-1,14
 61 393 61 393 61 515 c 0,15,16
 61 636 61 636 97.5 734 c 128,-1,17
 134 832 134 832 200.5 900 c 128,-1,18
 267 968 267 968 361 1005 c 128,-1,19
 455 1042 455 1042 570 1042 c 256,0,1
570 175 m 0,20,21
 698 175 698 175 759.5 261 c 128,-1,22
 821 347 821 347 821 513 c 256,23,24
 821 679 821 679 759.5 766 c 128,-1,25
 698 853 698 853 570 853 c 0,26,27
 440 853 440 853 378 765.5 c 128,-1,28
 316 678 316 678 316 513 c 256,29,30
 316 348 316 348 378 261.5 c 128,-1,31
 440 175 440 175 570 175 c 0,20,21
EndSplineSet
Validated: 1
EndChar

StartChar: p
Encoding: 112 112 83
Width: 1131
Flags: W
LayerCount: 2
Fore
SplineSet
132 -335 m 1,0,-1
 132 1026 l 1,1,-1
 283 1026 l 2,2,3
 307 1026 307 1026 324 1015 c 128,-1,4
 341 1004 341 1004 346 981 c 2,5,-1
 366 886 l 1,6,7
 428 957 428 957 508.5 1001 c 128,-1,8
 589 1045 589 1045 697 1045 c 0,9,10
 781 1045 781 1045 850.5 1010 c 128,-1,11
 920 975 920 975 970.5 908.5 c 128,-1,12
 1021 842 1021 842 1048.5 744.5 c 128,-1,13
 1076 647 1076 647 1076 521 c 0,14,15
 1076 406 1076 406 1045 308 c 128,-1,16
 1014 210 1014 210 956.5 138 c 128,-1,17
 899 66 899 66 817.5 25.5 c 128,-1,18
 736 -15 736 -15 635 -15 c 0,19,20
 548 -15 548 -15 487.5 11.5 c 128,-1,21
 427 38 427 38 379 85 c 1,22,-1
 379 -335 l 1,23,-1
 132 -335 l 1,0,-1
612 850 m 0,24,25
 535 850 535 850 480.5 817.5 c 128,-1,26
 426 785 426 785 379 726 c 1,27,-1
 379 266 l 1,28,29
 421 214 421 214 470.5 193.5 c 128,-1,30
 520 173 520 173 577 173 c 0,31,32
 633 173 633 173 678.5 194 c 128,-1,33
 724 215 724 215 755.5 258 c 128,-1,34
 787 301 787 301 804 366.5 c 128,-1,35
 821 432 821 432 821 521 c 0,36,37
 821 611 821 611 806.5 673.5 c 128,-1,38
 792 736 792 736 765 775 c 128,-1,39
 738 814 738 814 699.5 832 c 128,-1,40
 661 850 661 850 612 850 c 0,24,25
EndSplineSet
Validated: 1
EndChar

StartChar: q
Encoding: 113 113 84
Width: 1140
Flags: W
LayerCount: 2
Fore
SplineSet
1005 1026 m 1,0,-1
 1005 -335 l 1,1,-1
 758 -335 l 1,2,-1
 758 129 l 1,3,4
 727 96 727 96 692.5 69.5 c 128,-1,5
 658 43 658 43 619 24.5 c 128,-1,6
 580 6 580 6 536 -4.5 c 128,-1,7
 492 -15 492 -15 441 -15 c 0,8,9
 357 -15 357 -15 287 20 c 128,-1,10
 217 55 217 55 166.5 121.5 c 128,-1,11
 116 188 116 188 88.5 286 c 128,-1,12
 61 384 61 384 61 510 c 0,13,14
 61 624 61 624 92 722 c 128,-1,15
 123 820 123 820 181 892 c 128,-1,16
 239 964 239 964 320 1004.5 c 128,-1,17
 401 1045 401 1045 502 1045 c 0,18,19
 550 1045 550 1045 589.5 1036.5 c 128,-1,20
 629 1028 629 1028 662.5 1012 c 128,-1,21
 696 996 696 996 724 974 c 128,-1,22
 752 952 752 952 778 924 c 1,23,-1
 791 981 l 2,24,25
 796 1004 796 1004 813 1015 c 128,-1,26
 830 1026 830 1026 854 1026 c 2,27,-1
 1005 1026 l 1,0,-1
525 181 m 0,28,29
 602 181 602 181 656 213 c 128,-1,30
 710 245 710 245 758 304 c 1,31,-1
 758 764 l 1,32,33
 716 815 716 815 666.5 836 c 128,-1,34
 617 857 617 857 560 857 c 0,35,36
 504 857 504 857 458.5 836 c 128,-1,37
 413 815 413 815 381.5 772.5 c 128,-1,38
 350 730 350 730 333 664.5 c 128,-1,39
 316 599 316 599 316 510 c 0,40,41
 316 420 316 420 330.5 357.5 c 128,-1,42
 345 295 345 295 372 255.5 c 128,-1,43
 399 216 399 216 438 198.5 c 128,-1,44
 477 181 477 181 525 181 c 0,28,29
EndSplineSet
Validated: 1
EndChar

StartChar: r
Encoding: 114 114 85
Width: 817
Flags: W
LayerCount: 2
Fore
SplineSet
132 0 m 1,0,-1
 132 1026 l 1,1,-1
 277 1026 l 2,2,3
 315 1026 315 1026 330 1012 c 128,-1,4
 345 998 345 998 350 964 c 2,5,-1
 365 840 l 1,6,7
 420 935 420 935 494 990 c 128,-1,8
 568 1045 568 1045 660 1045 c 0,9,10
 736 1045 736 1045 786 1010 c 1,11,-1
 754 825 l 2,12,13
 751 807 751 807 741 799.5 c 128,-1,14
 731 792 731 792 714 792 c 0,15,16
 699 792 699 792 673 799 c 128,-1,17
 647 806 647 806 604 806 c 0,18,19
 527 806 527 806 472 763.5 c 128,-1,20
 417 721 417 721 379 639 c 1,21,-1
 379 0 l 1,22,-1
 132 0 l 1,0,-1
EndSplineSet
Validated: 1
EndChar

StartChar: s
Encoding: 115 115 86
Width: 874
Flags: W
LayerCount: 2
Fore
SplineSet
741 826 m 2,0,1
 731 810 731 810 720 803.5 c 128,-1,2
 709 797 709 797 692 797 c 0,3,4
 674 797 674 797 653.5 807 c 128,-1,5
 633 817 633 817 606 829.5 c 128,-1,6
 579 842 579 842 544.5 852 c 128,-1,7
 510 862 510 862 463 862 c 0,8,9
 390 862 390 862 348 831 c 128,-1,10
 306 800 306 800 306 750 c 0,11,12
 306 717 306 717 327.5 694.5 c 128,-1,13
 349 672 349 672 384.5 655 c 128,-1,14
 420 638 420 638 465 624.5 c 128,-1,15
 510 611 510 611 557 595 c 128,-1,16
 604 579 604 579 649 558.5 c 128,-1,17
 694 538 694 538 729.5 506.5 c 128,-1,18
 765 475 765 475 786.5 431 c 128,-1,19
 808 387 808 387 808 325 c 0,20,21
 808 251 808 251 781 188.5 c 128,-1,22
 754 126 754 126 702 80.5 c 128,-1,23
 650 35 650 35 573.5 9.5 c 128,-1,24
 497 -16 497 -16 398 -16 c 0,25,26
 345 -16 345 -16 294.5 -6.5 c 128,-1,27
 244 3 244 3 197.5 20 c 128,-1,28
 151 37 151 37 111.5 60 c 128,-1,29
 72 83 72 83 42 110 c 1,30,-1
 99 204 l 2,31,32
 110 221 110 221 125 230 c 128,-1,33
 140 239 140 239 163 239 c 256,34,35
 186 239 186 239 206.5 226 c 128,-1,36
 227 213 227 213 254 198 c 128,-1,37
 281 183 281 183 317.5 170 c 128,-1,38
 354 157 354 157 410 157 c 0,39,40
 454 157 454 157 485.5 167.5 c 128,-1,41
 517 178 517 178 537.5 195 c 128,-1,42
 558 212 558 212 567.5 234.5 c 128,-1,43
 577 257 577 257 577 281 c 0,44,45
 577 317 577 317 555.5 340 c 128,-1,46
 534 363 534 363 498.5 380 c 128,-1,47
 463 397 463 397 417.5 410.5 c 128,-1,48
 372 424 372 424 324.5 440 c 128,-1,49
 277 456 277 456 231.5 477.5 c 128,-1,50
 186 499 186 499 150.5 532 c 128,-1,51
 115 565 115 565 93.5 613 c 128,-1,52
 72 661 72 661 72 729 c 0,53,54
 72 792 72 792 97 849 c 128,-1,55
 122 906 122 906 170.5 948.5 c 128,-1,56
 219 991 219 991 291.5 1016.5 c 128,-1,57
 364 1042 364 1042 459 1042 c 0,58,59
 565 1042 565 1042 652 1007 c 128,-1,60
 739 972 739 972 797 915 c 1,61,-1
 741 826 l 2,0,1
EndSplineSet
Validated: 1
EndChar

StartChar: t
Encoding: 116 116 87
Width: 774
Flags: W
LayerCount: 2
Fore
SplineSet
469 -16 m 0,0,1
 336 -16 336 -16 264 59.5 c 128,-1,2
 192 135 192 135 192 268 c 2,3,-1
 192 841 l 1,4,-1
 88 841 l 2,5,6
 68 841 68 841 53.5 854 c 128,-1,7
 39 867 39 867 39 893 c 2,8,-1
 39 991 l 1,9,-1
 204 1018 l 1,10,-1
 256 1298 l 2,11,12
 260 1318 260 1318 274.5 1329 c 128,-1,13
 289 1340 289 1340 311 1340 c 2,14,-1
 439 1340 l 1,15,-1
 439 1017 l 1,16,-1
 709 1017 l 1,17,-1
 709 841 l 1,18,-1
 439 841 l 1,19,-1
 439 285 l 2,20,21
 439 237 439 237 463 210 c 128,-1,22
 487 183 487 183 527 183 c 0,23,24
 550 183 550 183 565.5 188.5 c 128,-1,25
 581 194 581 194 592.5 200 c 128,-1,26
 604 206 604 206 613 211.5 c 128,-1,27
 622 217 622 217 631 217 c 0,28,29
 642 217 642 217 649 211.5 c 128,-1,30
 656 206 656 206 664 195 c 2,31,-1
 738 75 l 1,32,33
 684 30 684 30 614 7 c 128,-1,34
 544 -16 544 -16 469 -16 c 0,0,1
EndSplineSet
Validated: 1
EndChar

StartChar: u
Encoding: 117 117 88
Width: 1137
Flags: W
LayerCount: 2
Fore
SplineSet
358 1026 m 1,0,-1
 358 374 l 2,1,2
 358 280 358 280 401.5 228.5 c 128,-1,3
 445 177 445 177 532 177 c 0,4,5
 596 177 596 177 652 205.5 c 128,-1,6
 708 234 708 234 758 284 c 1,7,-1
 758 1026 l 1,8,-1
 1005 1026 l 1,9,-1
 1005 0 l 1,10,-1
 854 0 l 2,11,12
 806 0 806 0 791 45 c 1,13,-1
 774 127 l 1,14,15
 742 95 742 95 708 68.5 c 128,-1,16
 674 42 674 42 635.5 23.5 c 128,-1,17
 597 5 597 5 552.5 -5.5 c 128,-1,18
 508 -16 508 -16 457 -16 c 0,19,20
 373 -16 373 -16 308.5 12.5 c 128,-1,21
 244 41 244 41 200 93 c 128,-1,22
 156 145 156 145 133.5 216.5 c 128,-1,23
 111 288 111 288 111 374 c 2,24,-1
 111 1026 l 1,25,-1
 358 1026 l 1,0,-1
EndSplineSet
Validated: 1
EndChar

StartChar: v
Encoding: 118 118 89
Width: 1067
Flags: W
LayerCount: 2
Fore
SplineSet
646 0 m 1,0,-1
 422 0 l 1,1,-1
 14 1026 l 1,2,-1
 219 1026 l 2,3,4
 246 1026 246 1026 264.5 1013 c 128,-1,5
 283 1000 283 1000 290 980 c 2,6,-1
 488 432 l 2,7,8
 505 384 505 384 516.5 338 c 128,-1,9
 528 292 528 292 537 246 c 1,10,11
 546 292 546 292 557.5 338 c 128,-1,12
 569 384 569 384 587 432 c 2,13,-1
 790 980 l 2,14,15
 797 1000 797 1000 815 1013 c 128,-1,16
 833 1026 833 1026 858 1026 c 2,17,-1
 1053 1026 l 1,18,-1
 646 0 l 1,0,-1
EndSplineSet
Validated: 1
EndChar

StartChar: w
Encoding: 119 119 90
Width: 1582
Flags: W
LayerCount: 2
Fore
SplineSet
7 1026 m 1,0,-1
 203 1026 l 2,1,2
 231 1026 231 1026 250 1013 c 128,-1,3
 269 1000 269 1000 274 980 c 2,4,-1
 421 432 l 2,5,6
 433 387 433 387 440.5 344 c 128,-1,7
 448 301 448 301 455 258 c 1,8,9
 466 301 466 301 478.5 344 c 128,-1,10
 491 387 491 387 505 432 c 2,11,-1
 675 982 l 2,12,13
 681 1002 681 1002 699 1015 c 128,-1,14
 717 1028 717 1028 741 1028 c 2,15,-1
 850 1028 l 2,16,17
 877 1028 877 1028 895 1015 c 128,-1,18
 913 1002 913 1002 919 982 c 2,19,-1
 1087 422 l 2,20,21
 1100 379 1100 379 1110.5 338.5 c 128,-1,22
 1121 298 1121 298 1131 257 c 1,23,24
 1138 300 1138 300 1146.5 343 c 128,-1,25
 1155 386 1155 386 1168 432 c 2,26,-1
 1320 980 l 2,27,28
 1325 1000 1325 1000 1344 1013 c 128,-1,29
 1363 1026 1363 1026 1388 1026 c 2,30,-1
 1575 1026 l 1,31,-1
 1250 0 l 1,32,-1
 1051 0 l 2,33,34
 1019 0 1019 0 1005 44 c 2,35,-1
 820 637 l 2,36,37
 811 666 811 666 803.5 695.5 c 128,-1,38
 796 725 796 725 791 754 c 1,39,40
 785 724 785 724 778 694.5 c 128,-1,41
 771 665 771 665 762 635 c 2,42,-1
 575 44 l 2,43,44
 561 0 561 0 521 0 c 2,45,-1
 332 0 l 1,46,-1
 7 1026 l 1,0,-1
EndSplineSet
Validated: 1
EndChar

StartChar: x
Encoding: 120 120 91
Width: 1080
Flags: W
LayerCount: 2
Fore
SplineSet
375 529 m 1,0,-1
 38 1026 l 1,1,-1
 276 1026 l 2,2,3
 303 1026 303 1026 316 1018.5 c 128,-1,4
 329 1011 329 1011 339 994 c 2,5,-1
 554 651 l 1,6,7
 559 668 559 668 566.5 685 c 128,-1,8
 574 702 574 702 585 719 c 2,9,-1
 758 989 l 2,10,11
 770 1008 770 1008 783 1017 c 128,-1,12
 796 1026 796 1026 815 1026 c 2,13,-1
 1042 1026 l 1,14,-1
 704 540 l 1,15,-1
 1056 0 l 1,16,-1
 818 0 l 2,17,18
 791 0 791 0 774.5 14 c 128,-1,19
 758 28 758 28 747 46 c 2,20,-1
 529 403 l 1,21,22
 520 367 520 367 504 343 c 2,23,-1
 312 46 l 2,24,25
 301 29 301 29 285 14.5 c 128,-1,26
 269 0 269 0 245 0 c 2,27,-1
 24 0 l 1,28,-1
 375 529 l 1,0,-1
EndSplineSet
Validated: 1
EndChar

StartChar: y
Encoding: 121 121 92
Width: 1067
Flags: W
LayerCount: 2
Fore
SplineSet
496 -282 m 2,0,1
 485 -308 485 -308 467.5 -321.5 c 128,-1,2
 450 -335 450 -335 414 -335 c 2,3,-1
 230 -335 l 1,4,-1
 422 76 l 1,5,-1
 7 1026 l 1,6,-1
 223 1026 l 2,7,8
 253 1026 253 1026 269 1012 c 128,-1,9
 285 998 285 998 293 980 c 2,10,-1
 512 448 l 2,11,12
 523 422 523 422 531 394 c 128,-1,13
 539 366 539 366 545 338 c 1,14,15
 553 367 553 367 562.5 394 c 128,-1,16
 572 421 572 421 583 449 c 2,17,-1
 789 980 l 2,18,19
 797 1000 797 1000 815.5 1013 c 128,-1,20
 834 1026 834 1026 857 1026 c 2,21,-1
 1055 1026 l 1,22,-1
 496 -282 l 2,0,1
EndSplineSet
Validated: 1
EndChar

StartChar: z
Encoding: 122 122 93
Width: 939
Flags: W
LayerCount: 2
Fore
SplineSet
874 924 m 2,0,1
 874 898 874 898 864.5 873.5 c 128,-1,2
 855 849 855 849 842 832 c 2,3,-1
 354 190 l 1,4,-1
 860 190 l 1,5,-1
 860 0 l 1,6,-1
 67 0 l 1,7,-1
 67 103 l 2,8,9
 67 120 67 120 75 143.5 c 128,-1,10
 83 167 83 167 100 188 c 2,11,-1
 592 837 l 1,12,-1
 96 837 l 1,13,-1
 96 1026 l 1,14,-1
 874 1026 l 1,15,-1
 874 924 l 2,0,1
EndSplineSet
Validated: 1
EndChar

StartChar: braceleft
Encoding: 123 123 94
Width: 600
Flags: W
LayerCount: 2
Fore
SplineSet
149 410 m 0,0,1
 149 471 149 471 120.5 509.5 c 128,-1,2
 92 548 92 548 29 548 c 1,3,-1
 29 691 l 1,4,5
 92 691 92 691 120.5 729.5 c 128,-1,6
 149 768 149 768 149 829 c 0,7,8
 149 876 149 876 142.5 922.5 c 128,-1,9
 136 969 136 969 127.5 1016 c 128,-1,10
 119 1063 119 1063 112.5 1110.5 c 128,-1,11
 106 1158 106 1158 106 1207 c 0,12,13
 106 1283 106 1283 128 1345.5 c 128,-1,14
 150 1408 150 1408 195.5 1453 c 128,-1,15
 241 1498 241 1498 310.5 1522.5 c 128,-1,16
 380 1547 380 1547 474 1547 c 2,17,-1
 527 1547 l 1,18,-1
 527 1437 l 2,19,20
 527 1424 527 1424 521.5 1414.5 c 128,-1,21
 516 1405 516 1405 507.5 1399 c 128,-1,22
 499 1393 499 1393 490 1390 c 128,-1,23
 481 1387 481 1387 474 1387 c 2,24,-1
 465 1387 l 2,25,26
 395 1387 395 1387 358 1343 c 128,-1,27
 321 1299 321 1299 321 1222 c 0,28,29
 321 1167 321 1167 327 1116.5 c 128,-1,30
 333 1066 333 1066 339.5 1018.5 c 128,-1,31
 346 971 346 971 352 925 c 128,-1,32
 358 879 358 879 358 832 c 0,33,34
 358 794 358 794 347.5 760 c 128,-1,35
 337 726 337 726 316.5 698.5 c 128,-1,36
 296 671 296 671 267.5 650 c 128,-1,37
 239 629 239 629 203 619 c 1,38,39
 239 608 239 608 267.5 587.5 c 128,-1,40
 296 567 296 567 316.5 539 c 128,-1,41
 337 511 337 511 347.5 477 c 128,-1,42
 358 443 358 443 358 406 c 0,43,44
 358 359 358 359 352 313 c 128,-1,45
 346 267 346 267 339.5 219.5 c 128,-1,46
 333 172 333 172 327 121.5 c 128,-1,47
 321 71 321 71 321 16 c 0,48,49
 321 -60 321 -60 358 -104 c 128,-1,50
 395 -148 395 -148 465 -148 c 2,51,-1
 474 -148 l 2,52,53
 481 -148 481 -148 490 -151 c 128,-1,54
 499 -154 499 -154 507.5 -160 c 128,-1,55
 516 -166 516 -166 521.5 -176 c 128,-1,56
 527 -186 527 -186 527 -199 c 2,57,-1
 527 -308 l 1,58,-1
 474 -308 l 2,59,60
 380 -308 380 -308 310.5 -283.5 c 128,-1,61
 241 -259 241 -259 195.5 -214.5 c 128,-1,62
 150 -170 150 -170 128 -107.5 c 128,-1,63
 106 -45 106 -45 106 31 c 0,64,65
 106 80 106 80 112.5 127.5 c 128,-1,66
 119 175 119 175 127.5 222 c 128,-1,67
 136 269 136 269 142.5 316 c 128,-1,68
 149 363 149 363 149 410 c 0,0,1
EndSplineSet
Validated: 1
EndChar

StartChar: bar
Encoding: 124 124 95
Width: 600
Flags: W
LayerCount: 2
Fore
SplineSet
204 1547 m 1,0,-1
 396 1547 l 1,1,-1
 396 -335 l 1,2,-1
 204 -335 l 1,3,-1
 204 1547 l 1,0,-1
EndSplineSet
Validated: 1
EndChar

StartChar: braceright
Encoding: 125 125 96
Width: 600
Flags: W
LayerCount: 2
Fore
SplineSet
451 410 m 0,0,1
 451 363 451 363 457.5 316 c 128,-1,2
 464 269 464 269 472.5 222 c 128,-1,3
 481 175 481 175 487.5 127.5 c 128,-1,4
 494 80 494 80 494 31 c 0,5,6
 494 -45 494 -45 472 -107.5 c 128,-1,7
 450 -170 450 -170 404.5 -214.5 c 128,-1,8
 359 -259 359 -259 289.5 -283.5 c 128,-1,9
 220 -308 220 -308 126 -308 c 2,10,-1
 73 -308 l 1,11,-1
 73 -199 l 2,12,13
 73 -186 73 -186 78.5 -176 c 128,-1,14
 84 -166 84 -166 92.5 -160 c 128,-1,15
 101 -154 101 -154 110 -151 c 128,-1,16
 119 -148 119 -148 126 -148 c 2,17,-1
 135 -148 l 2,18,19
 205 -148 205 -148 242 -104 c 128,-1,20
 279 -60 279 -60 279 16 c 0,21,22
 279 71 279 71 273 121.5 c 128,-1,23
 267 172 267 172 260.5 219.5 c 128,-1,24
 254 267 254 267 248 313 c 128,-1,25
 242 359 242 359 242 406 c 0,26,27
 242 443 242 443 252.5 477 c 128,-1,28
 263 511 263 511 283 539 c 128,-1,29
 303 567 303 567 332 587.5 c 128,-1,30
 361 608 361 608 397 619 c 1,31,32
 361 629 361 629 332 650 c 128,-1,33
 303 671 303 671 283 698.5 c 128,-1,34
 263 726 263 726 252.5 760 c 128,-1,35
 242 794 242 794 242 832 c 0,36,37
 242 879 242 879 248 925 c 128,-1,38
 254 971 254 971 260.5 1018.5 c 128,-1,39
 267 1066 267 1066 273 1116.5 c 128,-1,40
 279 1167 279 1167 279 1222 c 0,41,42
 279 1299 279 1299 242 1343 c 128,-1,43
 205 1387 205 1387 135 1387 c 2,44,-1
 126 1387 l 2,45,46
 119 1387 119 1387 110 1390 c 128,-1,47
 101 1393 101 1393 92.5 1399 c 128,-1,48
 84 1405 84 1405 78.5 1414.5 c 128,-1,49
 73 1424 73 1424 73 1437 c 2,50,-1
 73 1547 l 1,51,-1
 126 1547 l 2,52,53
 220 1547 220 1547 289.5 1522.5 c 128,-1,54
 359 1498 359 1498 404.5 1453 c 128,-1,55
 450 1408 450 1408 472 1345.5 c 128,-1,56
 494 1283 494 1283 494 1207 c 0,57,58
 494 1158 494 1158 487.5 1110.5 c 128,-1,59
 481 1063 481 1063 472.5 1016 c 128,-1,60
 464 969 464 969 457.5 922.5 c 128,-1,61
 451 876 451 876 451 829 c 0,62,63
 451 768 451 768 479.5 729.5 c 128,-1,64
 508 691 508 691 571 691 c 1,65,-1
 571 548 l 1,66,67
 508 548 508 548 479.5 509.5 c 128,-1,68
 451 471 451 471 451 410 c 0,0,1
EndSplineSet
Validated: 1
EndChar

StartChar: asciitilde
Encoding: 126 126 97
Width: 1160
Flags: W
LayerCount: 2
Fore
SplineSet
745 648 m 0,0,1
 801 648 801 648 832 684 c 128,-1,2
 863 720 863 720 863 785 c 1,3,-1
 1062 785 l 1,4,5
 1062 708 1062 708 1041.5 645.5 c 128,-1,6
 1021 583 1021 583 982.5 538.5 c 128,-1,7
 944 494 944 494 888 470 c 128,-1,8
 832 446 832 446 760 446 c 0,9,10
 707 446 707 446 658.5 460 c 128,-1,11
 610 474 610 474 566.5 490.5 c 128,-1,12
 523 507 523 507 485 521 c 128,-1,13
 447 535 447 535 415 535 c 0,14,15
 359 535 359 535 328 499 c 128,-1,16
 297 463 297 463 297 398 c 1,17,-1
 98 398 l 1,18,19
 98 475 98 475 118.5 537.5 c 128,-1,20
 139 600 139 600 177.5 644.5 c 128,-1,21
 216 689 216 689 272 713 c 128,-1,22
 328 737 328 737 400 737 c 0,23,24
 453 737 453 737 501.5 723 c 128,-1,25
 550 709 550 709 593.5 692.5 c 128,-1,26
 637 676 637 676 675 662 c 128,-1,27
 713 648 713 648 745 648 c 0,0,1
EndSplineSet
Validated: 1
EndChar

StartChar: exclamdown
Encoding: 161 161 99
Width: 721
Flags: W
LayerCount: 2
Fore
SplineSet
247 -335 m 1,0,-1
 247 198 l 2,1,2
 247 289 247 289 256 376.5 c 128,-1,3
 265 464 265 464 280 562 c 1,4,-1
 447 562 l 1,5,6
 462 464 462 464 471 376.5 c 128,-1,7
 480 289 480 289 480 198 c 2,8,-1
 480 -335 l 1,9,-1
 247 -335 l 1,0,-1
209 892 m 256,10,11
 209 924 209 924 220.5 951.5 c 128,-1,12
 232 979 232 979 252 999 c 128,-1,13
 272 1019 272 1019 300 1030.5 c 128,-1,14
 328 1042 328 1042 360 1042 c 256,15,16
 392 1042 392 1042 419.5 1030.5 c 128,-1,17
 447 1019 447 1019 467.5 999 c 128,-1,18
 488 979 488 979 500 951.5 c 128,-1,19
 512 924 512 924 512 892 c 256,20,21
 512 860 512 860 500 832.5 c 128,-1,22
 488 805 488 805 467.5 785 c 128,-1,23
 447 765 447 765 419.5 753 c 128,-1,24
 392 741 392 741 360 741 c 256,25,26
 328 741 328 741 300 753 c 128,-1,27
 272 765 272 765 252 785 c 128,-1,28
 232 805 232 805 220.5 832.5 c 128,-1,29
 209 860 209 860 209 892 c 256,10,11
EndSplineSet
Validated: 1
EndChar

StartChar: cent
Encoding: 162 162 100
Width: 1160
Flags: W
LayerCount: 2
Fore
SplineSet
539 -8 m 1,0,1
 450 5 450 5 374 45.5 c 128,-1,2
 298 86 298 86 242 152.5 c 128,-1,3
 186 219 186 219 154.5 309.5 c 128,-1,4
 123 400 123 400 123 513 c 0,5,6
 123 622 123 622 156 716.5 c 128,-1,7
 189 811 189 811 253.5 881 c 128,-1,8
 318 951 318 951 412.5 993 c 128,-1,9
 507 1035 507 1035 629 1040 c 1,10,-1
 643 1197 l 2,11,12
 645 1220 645 1220 663 1239.5 c 128,-1,13
 681 1259 681 1259 710 1259 c 2,14,-1
 801 1259 l 1,15,-1
 781 1030 l 1,16,17
 860 1016 860 1016 924 982.5 c 128,-1,18
 988 949 988 949 1042 899 c 1,19,-1
 978 812 l 2,20,21
 968 798 968 798 958 791 c 128,-1,22
 948 784 948 784 928 784 c 0,23,24
 914 784 914 784 899 790.5 c 128,-1,25
 884 797 884 797 864.5 807 c 128,-1,26
 845 817 845 817 821 827 c 128,-1,27
 797 837 797 837 765 845 c 1,28,-1
 707 172 l 1,29,30
 760 177 760 177 795.5 191.5 c 128,-1,31
 831 206 831 206 856.5 221 c 128,-1,32
 882 236 882 236 901 248 c 128,-1,33
 920 260 920 260 940 260 c 0,34,35
 970 260 970 260 986 239 c 2,36,-1
 1054 151 l 1,37,38
 1019 110 1019 110 977 81 c 128,-1,39
 935 52 935 52 889 32.5 c 128,-1,40
 843 13 843 13 793 2.5 c 128,-1,41
 743 -8 743 -8 691 -12 c 1,42,-1
 679 -159 l 2,43,44
 677 -183 677 -183 659 -202.5 c 128,-1,45
 641 -222 641 -222 612 -222 c 2,46,-1
 521 -222 l 1,47,-1
 539 -8 l 1,0,1
367 513 m 0,48,49
 367 379 367 379 416 296.5 c 128,-1,50
 465 214 465 214 556 185 c 1,51,-1
 613 852 l 1,52,53
 487 836 487 836 427 748 c 128,-1,54
 367 660 367 660 367 513 c 0,48,49
EndSplineSet
Validated: 1
EndChar

StartChar: sterling
Encoding: 163 163 101
Width: 1160
Flags: W
LayerCount: 2
Fore
SplineSet
39 679 m 2,0,1
 39 713 39 713 60 737.5 c 128,-1,2
 81 762 81 762 122 762 c 2,3,-1
 230 762 l 1,4,-1
 230 998 l 2,5,6
 230 1092 230 1092 258 1176.5 c 128,-1,7
 286 1261 286 1261 343 1324.5 c 128,-1,8
 400 1388 400 1388 486 1425 c 128,-1,9
 572 1462 572 1462 688 1462 c 0,10,11
 768 1462 768 1462 831.5 1441.5 c 128,-1,12
 895 1421 895 1421 944.5 1386 c 128,-1,13
 994 1351 994 1351 1030.5 1303.5 c 128,-1,14
 1067 1256 1067 1256 1093 1201 c 1,15,-1
 994 1138 l 2,16,17
 962 1122 962 1122 937 1122 c 0,18,19
 900 1122 900 1122 871 1155 c 0,20,21
 852 1177 852 1177 833.5 1195.5 c 128,-1,22
 815 1214 815 1214 793.5 1227 c 128,-1,23
 772 1240 772 1240 746.5 1247 c 128,-1,24
 721 1254 721 1254 688 1254 c 0,25,26
 585 1254 585 1254 534 1186.5 c 128,-1,27
 483 1119 483 1119 483 999 c 2,28,-1
 483 762 l 1,29,-1
 892 762 l 1,30,-1
 892 664 l 2,31,32
 892 640 892 640 872.5 620 c 128,-1,33
 853 600 853 600 822 600 c 2,34,-1
 483 600 l 1,35,-1
 483 406 l 2,36,37
 483 340 483 340 458.5 288.5 c 128,-1,38
 434 237 434 237 391 193 c 1,39,40
 465 210 465 210 538 210 c 2,41,-1
 1124 210 l 1,42,-1
 1124 106 l 2,43,44
 1124 88 1124 88 1116.5 69 c 128,-1,45
 1109 50 1109 50 1095 34.5 c 128,-1,46
 1081 19 1081 19 1061.5 9.5 c 128,-1,47
 1042 0 1042 0 1018 0 c 2,48,-1
 59 0 l 1,49,-1
 59 155 l 1,50,51
 93 163 93 163 124 177.5 c 128,-1,52
 155 192 155 192 178.5 214.5 c 128,-1,53
 202 237 202 237 216 267.5 c 128,-1,54
 230 298 230 298 230 339 c 2,55,-1
 230 600 l 1,56,-1
 39 600 l 1,57,-1
 39 679 l 2,0,1
EndSplineSet
Validated: 1
EndChar

StartChar: currency
Encoding: 164 164 102
Width: 1160
Flags: W
LayerCount: 2
Fore
SplineSet
211 673 m 0,0,1
 211 726 211 726 224.5 773.5 c 128,-1,2
 238 821 238 821 263 863 c 1,3,-1
 110 1015 l 1,4,-1
 235 1137 l 1,5,-1
 385 987 l 1,6,7
 428 1013 428 1013 477 1027.5 c 128,-1,8
 526 1042 526 1042 580 1042 c 0,9,10
 632 1042 632 1042 680 1028.5 c 128,-1,11
 728 1015 728 1015 770 990 c 1,12,-1
 922 1142 l 1,13,-1
 1045 1019 l 1,14,-1
 894 868 l 1,15,16
 920 825 920 825 934.5 776 c 128,-1,17
 949 727 949 727 949 673 c 0,18,19
 949 620 949 620 935.5 573 c 128,-1,20
 922 526 922 526 897 484 c 1,21,-1
 1050 332 l 1,22,-1
 925 209 l 1,23,-1
 774 359 l 1,24,25
 732 333 732 333 683 319 c 128,-1,26
 634 305 634 305 580 305 c 0,27,28
 528 305 528 305 480.5 318 c 128,-1,29
 433 331 433 331 391 356 c 1,30,-1
 238 204 l 1,31,-1
 115 328 l 1,32,-1
 266 478 l 1,33,34
 240 521 240 521 225.5 570 c 128,-1,35
 211 619 211 619 211 673 c 0,0,1
393 673 m 0,36,37
 393 635 393 635 407.5 600.5 c 128,-1,38
 422 566 422 566 447.5 540.5 c 128,-1,39
 473 515 473 515 507 500 c 128,-1,40
 541 485 541 485 580 485 c 256,41,42
 619 485 619 485 653.5 500 c 128,-1,43
 688 515 688 515 713.5 540.5 c 128,-1,44
 739 566 739 566 754 600.5 c 128,-1,45
 769 635 769 635 769 673 c 0,46,47
 769 713 769 713 754 747.5 c 128,-1,48
 739 782 739 782 713.5 807.5 c 128,-1,49
 688 833 688 833 653.5 848 c 128,-1,50
 619 863 619 863 580 863 c 256,51,52
 541 863 541 863 507 848 c 128,-1,53
 473 833 473 833 447.5 807.5 c 128,-1,54
 422 782 422 782 407.5 747.5 c 128,-1,55
 393 713 393 713 393 673 c 0,36,37
EndSplineSet
Validated: 1
EndChar

StartChar: yen
Encoding: 165 165 103
Width: 1160
Flags: W
LayerCount: 2
Fore
SplineSet
133 633 m 1,0,-1
 409 633 l 1,1,-1
 11 1446 l 1,2,-1
 216 1446 l 2,3,4
 251 1446 251 1446 273 1429.5 c 128,-1,5
 295 1413 295 1413 307 1386 c 2,6,-1
 526 898 l 2,7,8
 546 853 546 853 558 815 c 128,-1,9
 570 777 570 777 578 740 c 1,10,11
 586 777 586 777 597.5 815.5 c 128,-1,12
 609 854 609 854 629 898 c 2,13,-1
 846 1386 l 2,14,15
 857 1409 857 1409 879 1427.5 c 128,-1,16
 901 1446 901 1446 935 1446 c 2,17,-1
 1142 1446 l 1,18,-1
 743 633 l 1,19,-1
 1019 633 l 1,20,-1
 1019 495 l 1,21,-1
 700 495 l 1,22,-1
 700 400 l 1,23,-1
 1019 400 l 1,24,-1
 1019 263 l 1,25,-1
 700 263 l 1,26,-1
 700 0 l 1,27,-1
 453 0 l 1,28,-1
 453 263 l 1,29,-1
 133 263 l 1,30,-1
 133 400 l 1,31,-1
 453 400 l 1,32,-1
 453 495 l 1,33,-1
 133 495 l 1,34,-1
 133 633 l 1,0,-1
EndSplineSet
Validated: 1
EndChar

StartChar: brokenbar
Encoding: 166 166 104
Width: 600
Flags: W
LayerCount: 2
Fore
SplineSet
204 1547 m 1,0,-1
 396 1547 l 1,1,-1
 396 738 l 1,2,-1
 204 738 l 1,3,-1
 204 1547 l 1,0,-1
204 473 m 1,4,-1
 396 473 l 1,5,-1
 396 -335 l 1,6,-1
 204 -335 l 1,7,-1
 204 473 l 1,4,-1
EndSplineSet
Validated: 1
EndChar

StartChar: section
Encoding: 167 167 105
Width: 1010
Flags: W
LayerCount: 2
Fore
SplineSet
827 1245 m 2,0,1
 817 1229 817 1229 806 1222 c 128,-1,2
 795 1215 795 1215 778 1215 c 0,3,4
 759 1215 759 1215 738.5 1225 c 128,-1,5
 718 1235 718 1235 691 1247.5 c 128,-1,6
 664 1260 664 1260 629.5 1270 c 128,-1,7
 595 1280 595 1280 548 1280 c 0,8,9
 506 1280 506 1280 474 1270.5 c 128,-1,10
 442 1261 442 1261 420.5 1244.5 c 128,-1,11
 399 1228 399 1228 387.5 1206 c 128,-1,12
 376 1184 376 1184 376 1159 c 0,13,14
 376 1127 376 1127 399.5 1103 c 128,-1,15
 423 1079 423 1079 462 1057.5 c 128,-1,16
 501 1036 501 1036 550.5 1016 c 128,-1,17
 600 996 600 996 652 973.5 c 128,-1,18
 704 951 704 951 753.5 924 c 128,-1,19
 803 897 803 897 842 862 c 128,-1,20
 881 827 881 827 904.5 781 c 128,-1,21
 928 735 928 735 928 675 c 0,22,23
 928 594 928 594 890.5 528.5 c 128,-1,24
 853 463 853 463 770 423 c 1,25,26
 815 386 815 386 843.5 337 c 128,-1,27
 872 288 872 288 872 220 c 0,28,29
 872 146 872 146 845.5 83.5 c 128,-1,30
 819 21 819 21 767 -24.5 c 128,-1,31
 715 -70 715 -70 638.5 -95.5 c 128,-1,32
 562 -121 562 -121 462 -121 c 0,33,34
 409 -121 409 -121 358.5 -111.5 c 128,-1,35
 308 -102 308 -102 261.5 -85 c 128,-1,36
 215 -68 215 -68 175.5 -45 c 128,-1,37
 136 -22 136 -22 106 5 c 1,38,-1
 164 99 l 2,39,40
 175 116 175 116 189.5 125 c 128,-1,41
 204 134 204 134 227 134 c 256,42,43
 250 134 250 134 270.5 121 c 128,-1,44
 291 108 291 108 319 93 c 128,-1,45
 347 78 347 78 386 65 c 128,-1,46
 425 52 425 52 484 52 c 0,47,48
 566 52 566 52 611.5 86 c 128,-1,49
 657 120 657 120 657 180 c 0,50,51
 657 220 657 220 633 249 c 128,-1,52
 609 278 609 278 569 300.5 c 128,-1,53
 529 323 529 323 478.5 341.5 c 128,-1,54
 428 360 428 360 375.5 381 c 128,-1,55
 323 402 323 402 272.5 427.5 c 128,-1,56
 222 453 222 453 182 488 c 128,-1,57
 142 523 142 523 118 571 c 128,-1,58
 94 619 94 619 94 685 c 0,59,60
 94 764 94 764 135.5 826.5 c 128,-1,61
 177 889 177 889 262 926 c 1,62,63
 216 965 216 965 187 1018.5 c 128,-1,64
 158 1072 158 1072 158 1148 c 0,65,66
 158 1211 158 1211 182.5 1267.5 c 128,-1,67
 207 1324 207 1324 256 1367 c 128,-1,68
 305 1410 305 1410 377 1435.5 c 128,-1,69
 449 1461 449 1461 544 1461 c 0,70,71
 650 1461 650 1461 737.5 1426 c 128,-1,72
 825 1391 825 1391 882 1334 c 1,73,-1
 827 1245 l 2,0,1
313 725 m 0,74,75
 313 683 313 683 342 652.5 c 128,-1,76
 371 622 371 622 417.5 597.5 c 128,-1,77
 464 573 464 573 522 550.5 c 128,-1,78
 580 528 580 528 637 502 c 1,79,80
 677 522 677 522 695 552.5 c 128,-1,81
 713 583 713 583 713 619 c 0,82,83
 713 663 713 663 685 693.5 c 128,-1,84
 657 724 657 724 612 749 c 128,-1,85
 567 774 567 774 510.5 796 c 128,-1,86
 454 818 454 818 398 844 c 1,87,88
 353 820 353 820 333 791.5 c 128,-1,89
 313 763 313 763 313 725 c 0,74,75
EndSplineSet
Validated: 1
EndChar

StartChar: dieresis
Encoding: 168 168 106
Width: 638
Flags: W
LayerCount: 2
Fore
SplineSet
270 1292 m 0,0,1
 270 1264 270 1264 259 1239.5 c 128,-1,2
 248 1215 248 1215 228.5 1197 c 128,-1,3
 209 1179 209 1179 183.5 1168.5 c 128,-1,4
 158 1158 158 1158 130 1158 c 0,5,6
 103 1158 103 1158 78.5 1168.5 c 128,-1,7
 54 1179 54 1179 35 1197 c 128,-1,8
 16 1215 16 1215 5 1239.5 c 128,-1,9
 -6 1264 -6 1264 -6 1292 c 0,10,11
 -6 1321 -6 1321 5 1346.5 c 128,-1,12
 16 1372 16 1372 35 1391 c 128,-1,13
 54 1410 54 1410 78.5 1421 c 128,-1,14
 103 1432 103 1432 130 1432 c 0,15,16
 158 1432 158 1432 183.5 1421 c 128,-1,17
 209 1410 209 1410 228.5 1391 c 128,-1,18
 248 1372 248 1372 259 1346.5 c 128,-1,19
 270 1321 270 1321 270 1292 c 0,0,1
644 1292 m 0,20,21
 644 1264 644 1264 633 1239.5 c 128,-1,22
 622 1215 622 1215 603 1197 c 128,-1,23
 584 1179 584 1179 558.5 1168.5 c 128,-1,24
 533 1158 533 1158 505 1158 c 256,25,26
 477 1158 477 1158 452 1168.5 c 128,-1,27
 427 1179 427 1179 408.5 1197 c 128,-1,28
 390 1215 390 1215 379 1239.5 c 128,-1,29
 368 1264 368 1264 368 1292 c 0,30,31
 368 1321 368 1321 379 1346.5 c 128,-1,32
 390 1372 390 1372 408.5 1391 c 128,-1,33
 427 1410 427 1410 452 1421 c 128,-1,34
 477 1432 477 1432 505 1432 c 256,35,36
 533 1432 533 1432 558.5 1421 c 128,-1,37
 584 1410 584 1410 603 1391 c 128,-1,38
 622 1372 622 1372 633 1346.5 c 128,-1,39
 644 1321 644 1321 644 1292 c 0,20,21
EndSplineSet
Validated: 1
EndChar

StartChar: copyright
Encoding: 169 169 107
Width: 1583
Flags: W
LayerCount: 2
Fore
SplineSet
1017 512 m 0,0,1
 1028 512 1028 512 1037 507.5 c 128,-1,2
 1046 503 1046 503 1052 495 c 2,3,-1
 1134 408 l 1,4,5
 1078 337 1078 337 993 299.5 c 128,-1,6
 908 262 908 262 793 262 c 0,7,8
 693 262 693 262 612 297.5 c 128,-1,9
 531 333 531 333 473.5 395.5 c 128,-1,10
 416 458 416 458 385 542.5 c 128,-1,11
 354 627 354 627 354 726 c 0,12,13
 354 828 354 828 389 913 c 128,-1,14
 424 998 424 998 486 1059.5 c 128,-1,15
 548 1121 548 1121 631.5 1155 c 128,-1,16
 715 1189 715 1189 813 1189 c 0,17,18
 925 1189 925 1189 1004.5 1152 c 128,-1,19
 1084 1115 1084 1115 1138 1056 c 1,20,-1
 1073 967 l 2,21,22
 1067 959 1067 959 1057 951 c 128,-1,23
 1047 943 1047 943 1030 943 c 256,24,25
 1013 943 1013 943 998 953 c 128,-1,26
 983 963 983 963 962 975 c 128,-1,27
 941 987 941 987 909 997 c 128,-1,28
 877 1007 877 1007 826 1007 c 0,29,30
 766 1007 766 1007 719 987.5 c 128,-1,31
 672 968 672 968 639.5 931.5 c 128,-1,32
 607 895 607 895 590 843 c 128,-1,33
 573 791 573 791 573 726 c 0,34,35
 573 658 573 658 590.5 606 c 128,-1,36
 608 554 608 554 639 518.5 c 128,-1,37
 670 483 670 483 712.5 464.5 c 128,-1,38
 755 446 755 446 805 446 c 0,39,40
 854 446 854 446 885.5 454 c 128,-1,41
 917 462 917 462 939 473 c 128,-1,42
 961 484 961 484 978 495 c 128,-1,43
 995 506 995 506 1017 512 c 0,0,1
53 723 m 256,44,45
 53 825 53 825 79.5 919.5 c 128,-1,46
 106 1014 106 1014 154 1096 c 128,-1,47
 202 1178 202 1178 269.5 1245.5 c 128,-1,48
 337 1313 337 1313 419 1361 c 128,-1,49
 501 1409 501 1409 595 1435.5 c 128,-1,50
 689 1462 689 1462 791 1462 c 256,51,52
 893 1462 893 1462 987.5 1435.5 c 128,-1,53
 1082 1409 1082 1409 1164 1361 c 128,-1,54
 1246 1313 1246 1313 1313.5 1245.5 c 128,-1,55
 1381 1178 1381 1178 1429 1096 c 128,-1,56
 1477 1014 1477 1014 1503.5 919.5 c 128,-1,57
 1530 825 1530 825 1530 723 c 0,58,59
 1530 622 1530 622 1503.5 527.5 c 128,-1,60
 1477 433 1477 433 1429 351.5 c 128,-1,61
 1381 270 1381 270 1313.5 202.5 c 128,-1,62
 1246 135 1246 135 1164 87 c 128,-1,63
 1082 39 1082 39 987.5 12.5 c 128,-1,64
 893 -14 893 -14 791 -14 c 256,65,66
 689 -14 689 -14 595 12.5 c 128,-1,67
 501 39 501 39 419 87 c 128,-1,68
 337 135 337 135 269.5 202.5 c 128,-1,69
 202 270 202 270 154 351.5 c 128,-1,70
 106 433 106 433 79.5 527 c 128,-1,71
 53 621 53 621 53 723 c 256,44,45
188 723 m 0,72,73
 188 593 188 593 234.5 480 c 128,-1,74
 281 367 281 367 362.5 283.5 c 128,-1,75
 444 200 444 200 554 152 c 128,-1,76
 664 104 664 104 791 104 c 256,77,78
 918 104 918 104 1029 152 c 128,-1,79
 1140 200 1140 200 1222 283.5 c 128,-1,80
 1304 367 1304 367 1351 480 c 128,-1,81
 1398 593 1398 593 1398 723 c 0,82,83
 1398 810 1398 810 1376.5 890 c 128,-1,84
 1355 970 1355 970 1316 1039.5 c 128,-1,85
 1277 1109 1277 1109 1221.5 1165.5 c 128,-1,86
 1166 1222 1166 1222 1099 1262.5 c 128,-1,87
 1032 1303 1032 1303 954 1325 c 128,-1,88
 876 1347 876 1347 791 1347 c 256,89,90
 706 1347 706 1347 628.5 1325 c 128,-1,91
 551 1303 551 1303 484 1262.5 c 128,-1,92
 417 1222 417 1222 362.5 1165.5 c 128,-1,93
 308 1109 308 1109 269 1039.5 c 128,-1,94
 230 970 230 970 209 890 c 128,-1,95
 188 810 188 810 188 723 c 0,72,73
EndSplineSet
Validated: 1
EndChar

StartChar: ordfeminine
Encoding: 170 170 108
Width: 696
Flags: W
LayerCount: 2
Fore
SplineSet
622 841 m 1,0,-1
 539 841 l 2,1,2
 515 841 515 841 501 847.5 c 128,-1,3
 487 854 487 854 479 877 c 2,4,-1
 467 913 l 1,5,6
 443 893 443 893 421 878 c 128,-1,7
 399 863 399 863 376 853 c 128,-1,8
 353 843 353 843 326.5 838 c 128,-1,9
 300 833 300 833 267 833 c 0,10,11
 225 833 225 833 191 844 c 128,-1,12
 157 855 157 855 132.5 876.5 c 128,-1,13
 108 898 108 898 94.5 929.5 c 128,-1,14
 81 961 81 961 81 1002 c 0,15,16
 81 1035 81 1035 98 1069.5 c 128,-1,17
 115 1104 115 1104 157 1132 c 128,-1,18
 199 1160 199 1160 270 1178.5 c 128,-1,19
 341 1197 341 1197 449 1200 c 1,20,-1
 449 1225 l 2,21,22
 449 1279 449 1279 425.5 1301.5 c 128,-1,23
 402 1324 402 1324 357 1324 c 0,24,25
 323 1324 323 1324 301 1317 c 128,-1,26
 279 1310 279 1310 262 1301 c 128,-1,27
 245 1292 245 1292 230 1285 c 128,-1,28
 215 1278 215 1278 194 1278 c 0,29,30
 175 1278 175 1278 162 1288 c 128,-1,31
 149 1298 149 1298 142 1311 c 2,32,-1
 111 1368 l 1,33,34
 167 1419 167 1419 234 1442.5 c 128,-1,35
 301 1466 301 1466 379 1466 c 0,36,37
 435 1466 435 1466 480 1448 c 128,-1,38
 525 1430 525 1430 556.5 1397.5 c 128,-1,39
 588 1365 588 1365 605 1321 c 128,-1,40
 622 1277 622 1277 622 1225 c 2,41,-1
 622 841 l 1,0,-1
323 954 m 0,42,43
 361 954 361 954 390 967.5 c 128,-1,44
 419 981 419 981 449 1010 c 1,45,-1
 449 1091 l 1,46,47
 390 1089 390 1089 352 1082 c 128,-1,48
 314 1075 314 1075 291.5 1064.5 c 128,-1,49
 269 1054 269 1054 260 1040.5 c 128,-1,50
 251 1027 251 1027 251 1011 c 0,51,52
 251 979 251 979 269.5 966.5 c 128,-1,53
 288 954 288 954 323 954 c 0,42,43
EndSplineSet
Validated: 1
EndChar

StartChar: guillemotleft
Encoding: 171 171 109
Width: 972
Flags: W
LayerCount: 2
Fore
SplineSet
123 522 m 1,0,-1
 123 554 l 1,1,-1
 379 950 l 1,2,-1
 460 912 l 2,3,4
 480 903 480 903 489 889 c 128,-1,5
 498 875 498 875 498 858 c 0,6,7
 498 837 498 837 485 815 c 2,8,-1
 347 580 l 2,9,10
 333 554 333 554 315 538 c 1,11,12
 331 524 331 524 347 496 c 2,13,-1
 485 260 l 2,14,15
 498 238 498 238 498 216 c 0,16,17
 498 182 498 182 460 164 c 2,18,-1
 379 126 l 1,19,-1
 123 522 l 1,0,-1
452 522 m 1,20,-1
 452 554 l 1,21,-1
 708 950 l 1,22,-1
 789 912 l 2,23,24
 809 903 809 903 818 889 c 128,-1,25
 827 875 827 875 827 858 c 0,26,27
 827 837 827 837 814 815 c 2,28,-1
 676 580 l 2,29,30
 662 554 662 554 644 538 c 1,31,32
 660 524 660 524 676 496 c 2,33,-1
 814 260 l 2,34,35
 827 238 827 238 827 216 c 0,36,37
 827 182 827 182 789 164 c 2,38,-1
 708 126 l 1,39,-1
 452 522 l 1,20,-1
EndSplineSet
Validated: 1
EndChar

StartChar: logicalnot
Encoding: 172 172 110
Width: 1160
Flags: W
LayerCount: 2
Fore
SplineSet
136 763 m 1,0,-1
 1022 763 l 1,1,-1
 1022 297 l 1,2,-1
 813 297 l 1,3,-1
 813 580 l 1,4,-1
 136 580 l 1,5,-1
 136 763 l 1,0,-1
EndSplineSet
Validated: 1
EndChar

StartChar: uni00AD
Encoding: 173 173 111
Width: 718
Flags: W
LayerCount: 2
Fore
SplineSet
100 707 m 1,0,-1
 618 707 l 1,1,-1
 618 501 l 1,2,-1
 100 501 l 1,3,-1
 100 707 l 1,0,-1
EndSplineSet
Validated: 1
EndChar

StartChar: registered
Encoding: 174 174 112
Width: 1583
Flags: W
LayerCount: 2
Fore
SplineSet
53 723 m 256,0,1
 53 825 53 825 79.5 919.5 c 128,-1,2
 106 1014 106 1014 154 1096 c 128,-1,3
 202 1178 202 1178 269.5 1245.5 c 128,-1,4
 337 1313 337 1313 419 1361 c 128,-1,5
 501 1409 501 1409 595 1435.5 c 128,-1,6
 689 1462 689 1462 791 1462 c 256,7,8
 893 1462 893 1462 987.5 1435.5 c 128,-1,9
 1082 1409 1082 1409 1164 1361 c 128,-1,10
 1246 1313 1246 1313 1313.5 1245.5 c 128,-1,11
 1381 1178 1381 1178 1429 1096 c 128,-1,12
 1477 1014 1477 1014 1503.5 919.5 c 128,-1,13
 1530 825 1530 825 1530 723 c 0,14,15
 1530 622 1530 622 1503.5 527.5 c 128,-1,16
 1477 433 1477 433 1429 351.5 c 128,-1,17
 1381 270 1381 270 1313.5 202.5 c 128,-1,18
 1246 135 1246 135 1164 87 c 128,-1,19
 1082 39 1082 39 987.5 12.5 c 128,-1,20
 893 -14 893 -14 791 -14 c 256,21,22
 689 -14 689 -14 595 12.5 c 128,-1,23
 501 39 501 39 419 87 c 128,-1,24
 337 135 337 135 269.5 202.5 c 128,-1,25
 202 270 202 270 154 351.5 c 128,-1,26
 106 433 106 433 79.5 527 c 128,-1,27
 53 621 53 621 53 723 c 256,0,1
188 723 m 0,28,29
 188 593 188 593 234.5 480 c 128,-1,30
 281 367 281 367 362.5 283.5 c 128,-1,31
 444 200 444 200 554 152 c 128,-1,32
 664 104 664 104 791 104 c 256,33,34
 918 104 918 104 1029 152 c 128,-1,35
 1140 200 1140 200 1222 283.5 c 128,-1,36
 1304 367 1304 367 1351 480 c 128,-1,37
 1398 593 1398 593 1398 723 c 0,38,39
 1398 810 1398 810 1376.5 890 c 128,-1,40
 1355 970 1355 970 1316 1039.5 c 128,-1,41
 1277 1109 1277 1109 1221.5 1165.5 c 128,-1,42
 1166 1222 1166 1222 1099 1262.5 c 128,-1,43
 1032 1303 1032 1303 954 1325 c 128,-1,44
 876 1347 876 1347 791 1347 c 256,45,46
 706 1347 706 1347 628.5 1325 c 128,-1,47
 551 1303 551 1303 484 1262.5 c 128,-1,48
 417 1222 417 1222 362.5 1165.5 c 128,-1,49
 308 1109 308 1109 269 1039.5 c 128,-1,50
 230 970 230 970 209 890 c 128,-1,51
 188 810 188 810 188 723 c 0,28,29
679 602 m 1,52,-1
 679 277 l 1,53,-1
 465 277 l 1,54,-1
 465 1174 l 1,55,-1
 786 1174 l 2,56,57
 973 1174 973 1174 1060 1107 c 128,-1,58
 1147 1040 1147 1040 1147 915 c 0,59,60
 1147 826 1147 826 1101 759.5 c 128,-1,61
 1055 693 1055 693 958 662 c 1,62,63
 981 649 981 649 996 629.5 c 128,-1,64
 1011 610 1011 610 1026 584 c 2,65,-1
 1207 277 l 1,66,-1
 1001 277 l 2,67,68
 956 277 956 277 938 310 c 2,69,-1
 794 573 l 2,70,71
 784 587 784 587 771.5 594.5 c 128,-1,72
 759 602 759 602 734 602 c 2,73,-1
 679 602 l 1,52,-1
679 755 m 1,74,-1
 768 755 l 2,75,76
 819 755 819 755 852 763.5 c 128,-1,77
 885 772 885 772 903.5 789 c 128,-1,78
 922 806 922 806 929 831 c 128,-1,79
 936 856 936 856 936 888 c 0,80,81
 936 919 936 919 930 942.5 c 128,-1,82
 924 966 924 966 907.5 981.5 c 128,-1,83
 891 997 891 997 861.5 1004.5 c 128,-1,84
 832 1012 832 1012 786 1012 c 2,85,-1
 679 1012 l 1,86,-1
 679 755 l 1,74,-1
EndSplineSet
Validated: 1
EndChar

StartChar: macron
Encoding: 175 175 113
Width: 638
Flags: W
LayerCount: 2
Fore
SplineSet
20 1372 m 1,0,-1
 618 1372 l 1,1,-1
 618 1214 l 1,2,-1
 20 1214 l 1,3,-1
 20 1372 l 1,0,-1
EndSplineSet
Validated: 1
EndChar

StartChar: degree
Encoding: 176 176 114
Width: 803
Flags: W
LayerCount: 2
Fore
SplineSet
55 1123 m 0,0,1
 55 1194 55 1194 81.5 1256.5 c 128,-1,2
 108 1319 108 1319 154.5 1365 c 128,-1,3
 201 1411 201 1411 264 1437.5 c 128,-1,4
 327 1464 327 1464 400 1464 c 256,5,6
 473 1464 473 1464 536.5 1437.5 c 128,-1,7
 600 1411 600 1411 647 1365 c 128,-1,8
 694 1319 694 1319 721 1256.5 c 128,-1,9
 748 1194 748 1194 748 1123 c 0,10,11
 748 1054 748 1054 721 992 c 128,-1,12
 694 930 694 930 647 883.5 c 128,-1,13
 600 837 600 837 536.5 810 c 128,-1,14
 473 783 473 783 400 783 c 256,15,16
 327 783 327 783 264 810 c 128,-1,17
 201 837 201 837 154.5 883.5 c 128,-1,18
 108 930 108 930 81.5 992 c 128,-1,19
 55 1054 55 1054 55 1123 c 0,0,1
227 1121 m 0,20,21
 227 1084 227 1084 240 1052 c 128,-1,22
 253 1020 253 1020 276.5 996.5 c 128,-1,23
 300 973 300 973 331.5 959.5 c 128,-1,24
 363 946 363 946 400 946 c 256,25,26
 437 946 437 946 469 959.5 c 128,-1,27
 501 973 501 973 524.5 996.5 c 128,-1,28
 548 1020 548 1020 561 1052 c 128,-1,29
 574 1084 574 1084 574 1121 c 0,30,31
 574 1159 574 1159 561 1191.5 c 128,-1,32
 548 1224 548 1224 524.5 1248 c 128,-1,33
 501 1272 501 1272 469 1286 c 128,-1,34
 437 1300 437 1300 400 1300 c 256,35,36
 363 1300 363 1300 331.5 1286 c 128,-1,37
 300 1272 300 1272 276.5 1248 c 128,-1,38
 253 1224 253 1224 240 1191.5 c 128,-1,39
 227 1159 227 1159 227 1121 c 0,20,21
EndSplineSet
Validated: 1
EndChar

StartChar: plusminus
Encoding: 177 177 115
Width: 1160
Flags: W
LayerCount: 2
Fore
SplineSet
678 1241 m 1,0,-1
 678 887 l 1,1,-1
 1067 887 l 1,2,-1
 1067 703 l 1,3,-1
 678 703 l 1,4,-1
 678 362 l 1,5,-1
 478 362 l 1,6,-1
 478 703 l 1,7,-1
 91 703 l 1,8,-1
 91 887 l 1,9,-1
 478 887 l 1,10,-1
 478 1241 l 1,11,-1
 678 1241 l 1,0,-1
91 263 m 1,12,-1
 1067 263 l 1,13,-1
 1067 80 l 1,14,-1
 91 80 l 1,15,-1
 91 263 l 1,12,-1
EndSplineSet
Validated: 1
EndChar

StartChar: twosuperior
Encoding: 178 178 116
Width: 666
Flags: W
LayerCount: 2
Fore
SplineSet
350 1649 m 0,0,1
 408 1649 408 1649 453.5 1632 c 128,-1,2
 499 1615 499 1615 530.5 1586 c 128,-1,3
 562 1557 562 1557 578 1517.5 c 128,-1,4
 594 1478 594 1478 594 1432 c 0,5,6
 594 1391 594 1391 581.5 1357 c 128,-1,7
 569 1323 569 1323 548.5 1292 c 128,-1,8
 528 1261 528 1261 501 1232 c 128,-1,9
 474 1203 474 1203 445 1173 c 2,10,-1
 317 1043 l 1,11,12
 345 1051 345 1051 372 1055.5 c 128,-1,13
 399 1060 399 1060 422 1060 c 2,14,-1
 551 1060 l 2,15,16
 579 1060 579 1060 594.5 1045 c 128,-1,17
 610 1030 610 1030 610 1005 c 2,18,-1
 610 900 l 1,19,-1
 69 900 l 1,20,-1
 69 957 l 2,21,22
 69 974 69 974 75.5 993 c 128,-1,23
 82 1012 82 1012 98 1028 c 2,24,-1
 307 1234 l 2,25,26
 329 1256 329 1256 349 1280.5 c 128,-1,27
 369 1305 369 1305 383 1329.5 c 128,-1,28
 397 1354 397 1354 405.5 1378.5 c 128,-1,29
 414 1403 414 1403 414 1426 c 0,30,31
 414 1462 414 1462 394.5 1484.5 c 128,-1,32
 375 1507 375 1507 340 1507 c 0,33,34
 307 1507 307 1507 287 1490.5 c 128,-1,35
 267 1474 267 1474 254 1443 c 0,36,37
 243 1425 243 1425 230.5 1416 c 128,-1,38
 218 1407 218 1407 195 1407 c 0,39,40
 190 1407 190 1407 184.5 1407.5 c 128,-1,41
 179 1408 179 1408 172 1409 c 2,42,-1
 73 1424 l 1,43,44
 90 1539 90 1539 164 1594 c 128,-1,45
 238 1649 238 1649 350 1649 c 0,0,1
EndSplineSet
Validated: 1
EndChar

StartChar: threesuperior
Encoding: 179 179 117
Width: 666
Flags: W
LayerCount: 2
Fore
SplineSet
360 1649 m 0,0,1
 417 1649 417 1649 461 1632.5 c 128,-1,2
 505 1616 505 1616 536 1589 c 128,-1,3
 567 1562 567 1562 583 1527.5 c 128,-1,4
 599 1493 599 1493 599 1456 c 0,5,6
 599 1393 599 1393 573 1349.5 c 128,-1,7
 547 1306 547 1306 490 1282 c 1,8,9
 550 1262 550 1262 581 1225.5 c 128,-1,10
 612 1189 612 1189 612 1130 c 0,11,12
 612 1068 612 1068 589 1023.5 c 128,-1,13
 566 979 566 979 529 949.5 c 128,-1,14
 492 920 492 920 445 906 c 128,-1,15
 398 892 398 892 350 892 c 0,16,17
 296 892 296 892 253 902.5 c 128,-1,18
 210 913 210 913 176.5 936.5 c 128,-1,19
 143 960 143 960 118 998.5 c 128,-1,20
 93 1037 93 1037 74 1093 c 1,21,-1
 151 1124 l 2,22,23
 173 1132 173 1132 191 1132 c 0,24,25
 228 1132 228 1132 242 1104 c 0,26,27
 248 1093 248 1093 256 1081 c 128,-1,28
 264 1069 264 1069 276 1059.5 c 128,-1,29
 288 1050 288 1050 304 1044 c 128,-1,30
 320 1038 320 1038 341 1038 c 0,31,32
 386 1038 386 1038 410 1063 c 128,-1,33
 434 1088 434 1088 434 1123 c 0,34,35
 434 1150 434 1150 427 1168 c 128,-1,36
 420 1186 420 1186 403.5 1197 c 128,-1,37
 387 1208 387 1208 358.5 1212.5 c 128,-1,38
 330 1217 330 1217 288 1217 c 1,39,-1
 288 1333 l 1,40,41
 330 1333 330 1333 357.5 1339.5 c 128,-1,42
 385 1346 385 1346 400.5 1357.5 c 128,-1,43
 416 1369 416 1369 422.5 1386 c 128,-1,44
 429 1403 429 1403 429 1424 c 0,45,46
 429 1461 429 1461 409.5 1482.5 c 128,-1,47
 390 1504 390 1504 351 1504 c 0,48,49
 316 1504 316 1504 295.5 1487.5 c 128,-1,50
 275 1471 275 1471 264 1445 c 0,51,52
 255 1425 255 1425 243 1415.5 c 128,-1,53
 231 1406 231 1406 211 1406 c 0,54,55
 200 1406 200 1406 185 1409 c 2,56,-1
 94 1424 l 1,57,58
 102 1481 102 1481 125.5 1523.5 c 128,-1,59
 149 1566 149 1566 184 1594 c 128,-1,60
 219 1622 219 1622 264 1635.5 c 128,-1,61
 309 1649 309 1649 360 1649 c 0,0,1
EndSplineSet
Validated: 1
EndChar

StartChar: acute
Encoding: 180 180 118
Width: 638
Flags: W
LayerCount: 2
Fore
SplineSet
665 1462 m 1,0,-1
 418 1201 l 2,1,2
 399 1181 399 1181 381.5 1173.5 c 128,-1,3
 364 1166 364 1166 336 1166 c 2,4,-1
 188 1166 l 1,5,-1
 330 1409 l 2,6,7
 345 1435 345 1435 365 1448.5 c 128,-1,8
 385 1462 385 1462 425 1462 c 2,9,-1
 665 1462 l 1,0,-1
EndSplineSet
Validated: 1
EndChar

StartChar: mu
Encoding: 181 181 119
Width: 1137
Flags: W
LayerCount: 2
Fore
SplineSet
358 1026 m 1,0,-1
 358 374 l 2,1,2
 358 280 358 280 401.5 228.5 c 128,-1,3
 445 177 445 177 532 177 c 0,4,5
 596 177 596 177 652 205.5 c 128,-1,6
 708 234 708 234 758 284 c 1,7,-1
 758 1026 l 1,8,-1
 1005 1026 l 1,9,-1
 1005 0 l 1,10,-1
 854 0 l 2,11,12
 806 0 806 0 791 45 c 1,13,-1
 774 128 l 1,14,15
 743 97 743 97 713 75.5 c 128,-1,16
 683 54 683 54 652 40.5 c 128,-1,17
 621 27 621 27 587.5 21 c 128,-1,18
 554 15 554 15 516 15 c 0,19,20
 457 15 457 15 409 33 c 128,-1,21
 361 51 361 51 324 84 c 1,22,23
 335 40 335 40 338.5 -7 c 128,-1,24
 342 -54 342 -54 342 -95 c 2,25,-1
 342 -335 l 1,26,-1
 220 -335 l 2,27,28
 168 -335 168 -335 139.5 -308.5 c 128,-1,29
 111 -282 111 -282 111 -232 c 2,30,-1
 111 1026 l 1,31,-1
 358 1026 l 1,0,-1
EndSplineSet
Validated: 1
EndChar

StartChar: paragraph
Encoding: 182 182 120
Width: 1401
Flags: W
LayerCount: 2
Fore
SplineSet
1370 1446 m 1,0,-1
 1370 1239 l 1,1,-1
 1156 1239 l 1,2,-1
 1156 -209 l 1,3,-1
 940 -209 l 1,4,-1
 940 1239 l 1,5,-1
 705 1239 l 1,6,-1
 705 -209 l 1,7,-1
 489 -209 l 1,8,-1
 489 630 l 1,9,10
 385 630 385 630 301 662.5 c 128,-1,11
 217 695 217 695 157.5 750.5 c 128,-1,12
 98 806 98 806 65.5 880 c 128,-1,13
 33 954 33 954 33 1037 c 0,14,15
 33 1128 33 1128 65.5 1203 c 128,-1,16
 98 1278 98 1278 157.5 1332 c 128,-1,17
 217 1386 217 1386 301 1416 c 128,-1,18
 385 1446 385 1446 489 1446 c 2,19,-1
 1370 1446 l 1,0,-1
EndSplineSet
Validated: 1
EndChar

StartChar: periodcentered
Encoding: 183 183 121
Width: 559
Flags: W
LayerCount: 2
Fore
SplineSet
91 595 m 256,0,1
 91 634 91 634 105.5 668.5 c 128,-1,2
 120 703 120 703 145.5 728.5 c 128,-1,3
 171 754 171 754 205 768.5 c 128,-1,4
 239 783 239 783 278 783 c 0,5,6
 318 783 318 783 352.5 768.5 c 128,-1,7
 387 754 387 754 412.5 728.5 c 128,-1,8
 438 703 438 703 453 668.5 c 128,-1,9
 468 634 468 634 468 595 c 256,10,11
 468 556 468 556 453 522.5 c 128,-1,12
 438 489 438 489 412.5 463.5 c 128,-1,13
 387 438 387 438 352.5 423.5 c 128,-1,14
 318 409 318 409 278 409 c 0,15,16
 239 409 239 409 205 423.5 c 128,-1,17
 171 438 171 438 145.5 463.5 c 128,-1,18
 120 489 120 489 105.5 522.5 c 128,-1,19
 91 556 91 556 91 595 c 256,0,1
EndSplineSet
Validated: 1
EndChar

StartChar: cedilla
Encoding: 184 184 122
Width: 638
Flags: W
LayerCount: 2
Fore
SplineSet
183 -227 m 0,0,1
 190 -227 190 -227 197.5 -229 c 128,-1,2
 205 -231 205 -231 214.5 -234 c 128,-1,3
 224 -237 224 -237 235.5 -239 c 128,-1,4
 247 -241 247 -241 263 -241 c 0,5,6
 296 -241 296 -241 312.5 -228.5 c 128,-1,7
 329 -216 329 -216 329 -198 c 0,8,9
 329 -169 329 -169 293 -156.5 c 128,-1,10
 257 -144 257 -144 182 -134 c 1,11,-1
 227 14 l 1,12,-1
 381 14 l 1,13,-1
 361 -55 l 1,14,15
 450 -77 450 -77 486 -114.5 c 128,-1,16
 522 -152 522 -152 522 -203 c 0,17,18
 522 -236 522 -236 504.5 -263 c 128,-1,19
 487 -290 487 -290 455 -309 c 128,-1,20
 423 -328 423 -328 378 -338.5 c 128,-1,21
 333 -349 333 -349 279 -349 c 0,22,23
 238 -349 238 -349 202.5 -343 c 128,-1,24
 167 -337 167 -337 132 -326 c 1,25,-1
 155 -250 l 2,26,27
 161 -227 161 -227 183 -227 c 0,0,1
EndSplineSet
Validated: 1
EndChar

StartChar: onesuperior
Encoding: 185 185 123
Width: 666
Flags: W
LayerCount: 2
Fore
SplineSet
161 1014 m 1,0,-1
 300 1014 l 1,1,-1
 300 1374 l 1,2,-1
 305 1425 l 1,3,-1
 228 1364 l 2,4,5
 212 1352 212 1352 194 1352 c 0,6,7
 179 1352 179 1352 167 1358 c 128,-1,8
 155 1364 155 1364 150 1372 c 2,9,-1
 95 1447 l 1,10,-1
 328 1641 l 1,11,-1
 477 1641 l 1,12,-1
 477 1014 l 1,13,-1
 592 1014 l 1,14,-1
 592 900 l 1,15,-1
 161 900 l 1,16,-1
 161 1014 l 1,0,-1
EndSplineSet
Validated: 1
EndChar

StartChar: ordmasculine
Encoding: 186 186 124
Width: 776
Flags: W
LayerCount: 2
Fore
SplineSet
390 1464 m 0,0,1
 462 1464 462 1464 522 1442 c 128,-1,2
 582 1420 582 1420 625 1379.5 c 128,-1,3
 668 1339 668 1339 691.5 1280.5 c 128,-1,4
 715 1222 715 1222 715 1149 c 0,5,6
 715 1075 715 1075 691.5 1015.5 c 128,-1,7
 668 956 668 956 625 914.5 c 128,-1,8
 582 873 582 873 522 851 c 128,-1,9
 462 829 462 829 390 829 c 0,10,11
 316 829 316 829 255.5 851 c 128,-1,12
 195 873 195 873 152 914.5 c 128,-1,13
 109 956 109 956 85 1015.5 c 128,-1,14
 61 1075 61 1075 61 1149 c 0,15,16
 61 1222 61 1222 85 1280.5 c 128,-1,17
 109 1339 109 1339 152 1379.5 c 128,-1,18
 195 1420 195 1420 255.5 1442 c 128,-1,19
 316 1464 316 1464 390 1464 c 0,0,1
390 973 m 0,20,21
 457 973 457 973 489.5 1015.5 c 128,-1,22
 522 1058 522 1058 522 1147 c 256,23,24
 522 1236 522 1236 489.5 1278 c 128,-1,25
 457 1320 457 1320 390 1320 c 0,26,27
 319 1320 319 1320 286.5 1278 c 128,-1,28
 254 1236 254 1236 254 1147 c 256,29,30
 254 1058 254 1058 286.5 1015.5 c 128,-1,31
 319 973 319 973 390 973 c 0,20,21
EndSplineSet
Validated: 1
EndChar

StartChar: guillemotright
Encoding: 187 187 125
Width: 972
Flags: W
LayerCount: 2
Fore
SplineSet
263 126 m 1,0,-1
 182 164 l 2,1,2
 162 173 162 173 153 187 c 128,-1,3
 144 201 144 201 144 218 c 0,4,5
 144 238 144 238 157 260 c 2,6,-1
 295 496 l 2,7,8
 311 524 311 524 327 538 c 1,9,10
 309 554 309 554 295 580 c 2,11,-1
 157 815 l 2,12,13
 144 837 144 837 144 858 c 0,14,15
 144 894 144 894 182 912 c 2,16,-1
 263 950 l 1,17,-1
 519 554 l 1,18,-1
 519 522 l 1,19,-1
 263 126 l 1,0,-1
592 126 m 1,20,-1
 511 164 l 2,21,22
 491 173 491 173 482 187 c 128,-1,23
 473 201 473 201 473 218 c 0,24,25
 473 238 473 238 486 260 c 2,26,-1
 624 496 l 2,27,28
 640 524 640 524 656 538 c 1,29,30
 638 554 638 554 624 580 c 2,31,-1
 486 815 l 2,32,33
 473 837 473 837 473 858 c 0,34,35
 473 894 473 894 511 912 c 2,36,-1
 592 950 l 1,37,-1
 848 554 l 1,38,-1
 848 522 l 1,39,-1
 592 126 l 1,20,-1
EndSplineSet
Validated: 1
EndChar

StartChar: onequarter
Encoding: 188 188 126
Width: 1424
Flags: W
LayerCount: 2
Fore
SplineSet
455 71 m 2,0,1
 429 30 429 30 399.5 15 c 128,-1,2
 370 0 370 0 332 0 c 2,3,-1
 226 0 l 1,4,-1
 1060 1365 l 2,5,6
 1083 1403 1083 1403 1114 1424.5 c 128,-1,7
 1145 1446 1145 1446 1190 1446 c 2,8,-1
 1295 1446 l 1,9,-1
 455 71 l 2,0,1
1320 282 m 1,10,-1
 1414 282 l 1,11,-1
 1414 194 l 2,12,13
 1414 181 1414 181 1405 171 c 128,-1,14
 1396 161 1396 161 1380 161 c 2,15,-1
 1320 161 l 1,16,-1
 1320 0 l 1,17,-1
 1172 0 l 1,18,-1
 1172 161 l 1,19,-1
 883 161 l 2,20,21
 859 161 859 161 845.5 171.5 c 128,-1,22
 832 182 832 182 829 198 c 2,23,-1
 814 274 l 1,24,-1
 1149 741 l 1,25,-1
 1320 741 l 1,26,-1
 1320 282 l 1,10,-1
142 820 m 1,27,-1
 281 820 l 1,28,-1
 281 1180 l 1,29,-1
 286 1231 l 1,30,-1
 209 1170 l 2,31,32
 193 1158 193 1158 175 1158 c 0,33,34
 160 1158 160 1158 148 1164 c 128,-1,35
 136 1170 136 1170 131 1178 c 2,36,-1
 76 1253 l 1,37,-1
 309 1447 l 1,38,-1
 458 1447 l 1,39,-1
 458 820 l 1,40,-1
 573 820 l 1,41,-1
 573 706 l 1,42,-1
 142 706 l 1,43,-1
 142 820 l 1,27,-1
1172 450 m 2,44,45
 1172 473 1172 473 1173.5 501 c 128,-1,46
 1175 529 1175 529 1179 559 c 1,47,-1
 977 282 l 1,48,-1
 1172 282 l 1,49,-1
 1172 450 l 2,44,45
EndSplineSet
Validated: 1
EndChar

StartChar: onehalf
Encoding: 189 189 127
Width: 1424
Flags: W
LayerCount: 2
Fore
SplineSet
414 71 m 2,0,1
 388 30 388 30 358.5 15 c 128,-1,2
 329 0 329 0 291 0 c 2,3,-1
 185 0 l 1,4,-1
 1019 1365 l 2,5,6
 1042 1403 1042 1403 1073 1424.5 c 128,-1,7
 1104 1446 1104 1446 1149 1446 c 2,8,-1
 1254 1446 l 1,9,-1
 414 71 l 2,0,1
1128 749 m 0,10,11
 1186 749 1186 749 1231.5 732 c 128,-1,12
 1277 715 1277 715 1308.5 686 c 128,-1,13
 1340 657 1340 657 1356 617.5 c 128,-1,14
 1372 578 1372 578 1372 532 c 0,15,16
 1372 491 1372 491 1359.5 457 c 128,-1,17
 1347 423 1347 423 1326.5 392 c 128,-1,18
 1306 361 1306 361 1279 332 c 128,-1,19
 1252 303 1252 303 1223 273 c 2,20,-1
 1095 143 l 1,21,22
 1123 151 1123 151 1150 155.5 c 128,-1,23
 1177 160 1177 160 1200 160 c 2,24,-1
 1329 160 l 2,25,26
 1357 160 1357 160 1372.5 145 c 128,-1,27
 1388 130 1388 130 1388 105 c 2,28,-1
 1388 0 l 1,29,-1
 847 0 l 1,30,-1
 847 57 l 2,31,32
 847 74 847 74 853.5 93 c 128,-1,33
 860 112 860 112 876 128 c 2,34,-1
 1085 334 l 2,35,36
 1107 356 1107 356 1127 380.5 c 128,-1,37
 1147 405 1147 405 1161 429.5 c 128,-1,38
 1175 454 1175 454 1183.5 478.5 c 128,-1,39
 1192 503 1192 503 1192 526 c 0,40,41
 1192 562 1192 562 1172.5 584.5 c 128,-1,42
 1153 607 1153 607 1118 607 c 0,43,44
 1085 607 1085 607 1066 591.5 c 128,-1,45
 1047 576 1047 576 1032 543 c 0,46,47
 1016 507 1016 507 973 507 c 0,48,49
 968 507 968 507 962.5 507.5 c 128,-1,50
 957 508 957 508 950 509 c 2,51,-1
 851 524 l 1,52,53
 868 639 868 639 942 694 c 128,-1,54
 1016 749 1016 749 1128 749 c 0,10,11
142 820 m 1,55,-1
 281 820 l 1,56,-1
 281 1180 l 1,57,-1
 286 1231 l 1,58,-1
 209 1170 l 2,59,60
 193 1158 193 1158 175 1158 c 0,61,62
 160 1158 160 1158 148 1164 c 128,-1,63
 136 1170 136 1170 131 1178 c 2,64,-1
 76 1253 l 1,65,-1
 309 1447 l 1,66,-1
 458 1447 l 1,67,-1
 458 820 l 1,68,-1
 573 820 l 1,69,-1
 573 706 l 1,70,-1
 142 706 l 1,71,-1
 142 820 l 1,55,-1
EndSplineSet
Validated: 1
EndChar

StartChar: threequarters
Encoding: 190 190 128
Width: 1425
Flags: W
LayerCount: 2
Fore
SplineSet
458 71 m 2,0,1
 432 30 432 30 402.5 15 c 128,-1,2
 373 0 373 0 335 0 c 2,3,-1
 229 0 l 1,4,-1
 1063 1365 l 2,5,6
 1086 1403 1086 1403 1117 1424.5 c 128,-1,7
 1148 1446 1148 1446 1193 1446 c 2,8,-1
 1298 1446 l 1,9,-1
 458 71 l 2,0,1
1320 282 m 1,10,-1
 1414 282 l 1,11,-1
 1414 194 l 2,12,13
 1414 181 1414 181 1405 171 c 128,-1,14
 1396 161 1396 161 1380 161 c 2,15,-1
 1320 161 l 1,16,-1
 1320 0 l 1,17,-1
 1172 0 l 1,18,-1
 1172 161 l 1,19,-1
 883 161 l 2,20,21
 859 161 859 161 845.5 171.5 c 128,-1,22
 832 182 832 182 829 198 c 2,23,-1
 814 274 l 1,24,-1
 1149 741 l 1,25,-1
 1320 741 l 1,26,-1
 1320 282 l 1,10,-1
341 1455 m 0,27,28
 398 1455 398 1455 442 1438.5 c 128,-1,29
 486 1422 486 1422 517 1395 c 128,-1,30
 548 1368 548 1368 564 1333.5 c 128,-1,31
 580 1299 580 1299 580 1262 c 0,32,33
 580 1199 580 1199 554 1155.5 c 128,-1,34
 528 1112 528 1112 471 1088 c 1,35,36
 531 1068 531 1068 562 1031.5 c 128,-1,37
 593 995 593 995 593 936 c 0,38,39
 593 874 593 874 570 829.5 c 128,-1,40
 547 785 547 785 510 755.5 c 128,-1,41
 473 726 473 726 426 712 c 128,-1,42
 379 698 379 698 331 698 c 0,43,44
 277 698 277 698 234 708.5 c 128,-1,45
 191 719 191 719 157.5 742.5 c 128,-1,46
 124 766 124 766 99 804.5 c 128,-1,47
 74 843 74 843 55 899 c 1,48,-1
 132 930 l 2,49,50
 154 938 154 938 172 938 c 0,51,52
 209 938 209 938 223 910 c 0,53,54
 229 899 229 899 237 887 c 128,-1,55
 245 875 245 875 257 865.5 c 128,-1,56
 269 856 269 856 285 850 c 128,-1,57
 301 844 301 844 322 844 c 0,58,59
 367 844 367 844 391 869 c 128,-1,60
 415 894 415 894 415 929 c 0,61,62
 415 956 415 956 408 974 c 128,-1,63
 401 992 401 992 384.5 1003 c 128,-1,64
 368 1014 368 1014 339.5 1018.5 c 128,-1,65
 311 1023 311 1023 269 1023 c 1,66,-1
 269 1139 l 1,67,68
 311 1139 311 1139 338.5 1145.5 c 128,-1,69
 366 1152 366 1152 381.5 1163.5 c 128,-1,70
 397 1175 397 1175 403.5 1192 c 128,-1,71
 410 1209 410 1209 410 1230 c 0,72,73
 410 1267 410 1267 390.5 1288.5 c 128,-1,74
 371 1310 371 1310 332 1310 c 0,75,76
 297 1310 297 1310 276.5 1294 c 128,-1,77
 256 1278 256 1278 245 1251 c 0,78,79
 235 1231 235 1231 223.5 1221.5 c 128,-1,80
 212 1212 212 1212 192 1212 c 0,81,82
 181 1212 181 1212 166 1215 c 2,83,-1
 75 1230 l 1,84,85
 83 1287 83 1287 106.5 1329.5 c 128,-1,86
 130 1372 130 1372 165 1400 c 128,-1,87
 200 1428 200 1428 245 1441.5 c 128,-1,88
 290 1455 290 1455 341 1455 c 0,27,28
1172 450 m 2,89,90
 1172 473 1172 473 1173.5 501 c 128,-1,91
 1175 529 1175 529 1179 559 c 1,92,-1
 977 282 l 1,93,-1
 1172 282 l 1,94,-1
 1172 450 l 2,89,90
EndSplineSet
Validated: 1
EndChar

StartChar: questiondown
Encoding: 191 191 129
Width: 841
Flags: W
LayerCount: 2
Fore
SplineSet
820 -203 m 1,0,1
 785 -233 785 -233 744.5 -259.5 c 128,-1,2
 704 -286 704 -286 657 -306.5 c 128,-1,3
 610 -327 610 -327 555 -338.5 c 128,-1,4
 500 -350 500 -350 436 -350 c 0,5,6
 349 -350 349 -350 277.5 -327 c 128,-1,7
 206 -304 206 -304 155 -261 c 128,-1,8
 104 -218 104 -218 76 -156.5 c 128,-1,9
 48 -95 48 -95 48 -17 c 0,10,11
 48 59 48 59 70 112 c 128,-1,12
 92 165 92 165 125.5 202.5 c 128,-1,13
 159 240 159 240 198.5 266 c 128,-1,14
 238 292 238 292 273 315 c 128,-1,15
 308 338 308 338 333.5 361.5 c 128,-1,16
 359 385 359 385 364 417 c 2,17,-1
 387 562 l 1,18,-1
 556 562 l 1,19,-1
 573 399 l 2,20,21
 574 394 574 394 574 389.5 c 128,-1,22
 574 385 574 385 574 380 c 0,23,24
 574 334 574 334 552 303 c 128,-1,25
 530 272 530 272 497 248 c 128,-1,26
 464 224 464 224 426 202.5 c 128,-1,27
 388 181 388 181 355 154.5 c 128,-1,28
 322 128 322 128 300 92.5 c 128,-1,29
 278 57 278 57 278 5 c 0,30,31
 278 -31 278 -31 291.5 -59.5 c 128,-1,32
 305 -88 305 -88 329 -108.5 c 128,-1,33
 353 -129 353 -129 386 -140 c 128,-1,34
 419 -151 419 -151 458 -151 c 0,35,36
 515 -151 515 -151 554.5 -138 c 128,-1,37
 594 -125 594 -125 621.5 -110 c 128,-1,38
 649 -95 649 -95 668 -82 c 128,-1,39
 687 -69 687 -69 703 -69 c 0,40,41
 738 -69 738 -69 754 -100 c 2,42,-1
 820 -203 l 1,0,1
324 892 m 0,43,44
 324 923 324 923 335.5 951 c 128,-1,45
 347 979 347 979 367.5 999 c 128,-1,46
 388 1019 388 1019 416 1031 c 128,-1,47
 444 1043 444 1043 476 1043 c 0,48,49
 507 1043 507 1043 535 1031 c 128,-1,50
 563 1019 563 1019 583 999 c 128,-1,51
 603 979 603 979 615 951 c 128,-1,52
 627 923 627 923 627 892 c 0,53,54
 627 860 627 860 615 832.5 c 128,-1,55
 603 805 603 805 583 785 c 128,-1,56
 563 765 563 765 535 753.5 c 128,-1,57
 507 742 507 742 476 742 c 0,58,59
 444 742 444 742 416 753.5 c 128,-1,60
 388 765 388 765 367.5 785 c 128,-1,61
 347 805 347 805 335.5 832.5 c 128,-1,62
 324 860 324 860 324 892 c 0,43,44
EndSplineSet
Validated: 1
EndChar

StartChar: AE
Encoding: 198 198 136
Width: 1868
Flags: W
LayerCount: 2
Fore
SplineSet
1780 1232 m 1,0,-1
 1086 1232 l 1,1,-1
 1136 831 l 1,2,-1
 1645 831 l 1,3,-1
 1645 624 l 1,4,-1
 1161 624 l 1,5,-1
 1211 215 l 1,6,-1
 1780 215 l 1,7,-1
 1780 0 l 1,8,-1
 983 0 l 1,9,-1
 939 356 l 1,10,-1
 419 356 l 1,11,-1
 277 60 l 2,12,13
 264 33 264 33 238 16.5 c 128,-1,14
 212 0 212 0 176 0 c 2,15,-1
 -28 0 l 1,16,-1
 707 1446 l 1,17,-1
 1780 1446 l 1,18,-1
 1780 1232 l 1,0,-1
511 546 m 1,19,-1
 916 546 l 1,20,-1
 830 1246 l 1,21,22
 814 1195 814 1195 796.5 1150 c 128,-1,23
 779 1105 779 1105 762 1067 c 2,24,-1
 511 546 l 1,19,-1
EndSplineSet
Validated: 1
EndChar

StartChar: Ccedilla
Encoding: 199 199 137
Width: 1341
Flags: W
LayerCount: 2
Fore
SplineSet
632 -227 m 0,0,1
 639 -227 639 -227 646.5 -229 c 128,-1,2
 654 -231 654 -231 663.5 -234 c 128,-1,3
 673 -237 673 -237 684.5 -239 c 128,-1,4
 696 -241 696 -241 712 -241 c 0,5,6
 745 -241 745 -241 761.5 -228.5 c 128,-1,7
 778 -216 778 -216 778 -198 c 0,8,9
 778 -169 778 -169 742 -156.5 c 128,-1,10
 706 -144 706 -144 631 -134 c 1,11,-1
 668 -11 l 1,12,13
 527 4 527 4 415 64.5 c 128,-1,14
 303 125 303 125 224.5 221.5 c 128,-1,15
 146 318 146 318 104 445.5 c 128,-1,16
 62 573 62 573 62 723 c 0,17,18
 62 886 62 886 116 1021.5 c 128,-1,19
 170 1157 170 1157 268 1255 c 128,-1,20
 366 1353 366 1353 502.5 1407.5 c 128,-1,21
 639 1462 639 1462 804 1462 c 0,22,23
 965 1462 965 1462 1085.5 1410.5 c 128,-1,24
 1206 1359 1206 1359 1292 1274 c 1,25,-1
 1202 1149 l 2,26,27
 1194 1137 1194 1137 1181.5 1128 c 128,-1,28
 1169 1119 1169 1119 1147 1119 c 0,29,30
 1124 1119 1124 1119 1100 1137 c 128,-1,31
 1076 1155 1076 1155 1039 1176 c 128,-1,32
 1002 1197 1002 1197 945.5 1215 c 128,-1,33
 889 1233 889 1233 802 1233 c 0,34,35
 700 1233 700 1233 614.5 1197.5 c 128,-1,36
 529 1162 529 1162 467.5 1096 c 128,-1,37
 406 1030 406 1030 371.5 935.5 c 128,-1,38
 337 841 337 841 337 723 c 0,39,40
 337 601 337 601 371.5 506 c 128,-1,41
 406 411 406 411 465 346 c 128,-1,42
 524 281 524 281 604 246.5 c 128,-1,43
 684 212 684 212 776 212 c 0,44,45
 831 212 831 212 875.5 218 c 128,-1,46
 920 224 920 224 957.5 237 c 128,-1,47
 995 250 995 250 1028.5 270.5 c 128,-1,48
 1062 291 1062 291 1095 321 c 0,49,50
 1105 330 1105 330 1116 335.5 c 128,-1,51
 1127 341 1127 341 1140 341 c 0,52,53
 1162 341 1162 341 1178 324 c 2,54,-1
 1284 209 l 1,55,56
 1204 109 1204 109 1090.5 52.5 c 128,-1,57
 977 -4 977 -4 822 -14 c 1,58,-1
 810 -55 l 1,59,60
 899 -77 899 -77 935 -114.5 c 128,-1,61
 971 -152 971 -152 971 -203 c 0,62,63
 971 -236 971 -236 953.5 -263 c 128,-1,64
 936 -290 936 -290 904 -309 c 128,-1,65
 872 -328 872 -328 827 -338.5 c 128,-1,66
 782 -349 782 -349 728 -349 c 0,67,68
 687 -349 687 -349 651.5 -343 c 128,-1,69
 616 -337 616 -337 581 -326 c 1,70,-1
 604 -250 l 2,71,72
 610 -227 610 -227 632 -227 c 0,0,1
EndSplineSet
Validated: 1
EndChar

StartChar: Eth
Encoding: 208 208 146
Width: 1581
Flags: W
LayerCount: 2
Fore
SplineSet
53 804 m 1,0,-1
 233 804 l 1,1,-1
 233 1446 l 1,2,-1
 785 1446 l 2,3,4
 949 1446 949 1446 1084 1392.5 c 128,-1,5
 1219 1339 1219 1339 1315 1243.5 c 128,-1,6
 1411 1148 1411 1148 1464 1015 c 128,-1,7
 1517 882 1517 882 1517 723 c 256,8,9
 1517 564 1517 564 1464 431 c 128,-1,10
 1411 298 1411 298 1315 202 c 128,-1,11
 1219 106 1219 106 1084 53 c 128,-1,12
 949 0 949 0 785 0 c 2,13,-1
 233 0 l 1,14,-1
 233 651 l 1,15,-1
 53 651 l 1,16,-1
 53 804 l 1,0,-1
1241 723 m 256,17,18
 1241 842 1241 842 1209.5 936.5 c 128,-1,19
 1178 1031 1178 1031 1119 1096.5 c 128,-1,20
 1060 1162 1060 1162 975.5 1197 c 128,-1,21
 891 1232 891 1232 785 1232 c 2,22,-1
 504 1232 l 1,23,-1
 504 804 l 1,24,-1
 865 804 l 1,25,-1
 865 651 l 1,26,-1
 504 651 l 1,27,-1
 504 214 l 1,28,-1
 785 214 l 2,29,30
 891 214 891 214 975.5 249 c 128,-1,31
 1060 284 1060 284 1119 349.5 c 128,-1,32
 1178 415 1178 415 1209.5 509.5 c 128,-1,33
 1241 604 1241 604 1241 723 c 256,17,18
EndSplineSet
Validated: 1
EndChar

StartChar: multiply
Encoding: 215 215 153
Width: 1160
Flags: W
LayerCount: 2
Fore
SplineSet
1033 996 m 1,0,-1
 708 671 l 1,1,-1
 1049 331 l 1,2,-1
 918 202 l 1,3,-1
 578 541 l 1,4,-1
 237 200 l 1,5,-1
 106 329 l 1,6,-1
 448 671 l 1,7,-1
 121 998 l 1,8,-1
 251 1128 l 1,9,-1
 578 801 l 1,10,-1
 902 1126 l 1,11,-1
 1033 996 l 1,0,-1
EndSplineSet
Validated: 1
EndChar

StartChar: Oslash
Encoding: 216 216 154
Width: 1599
Flags: W
LayerCount: 2
Fore
SplineSet
1533 723 m 0,0,1
 1533 564 1533 564 1480 428.5 c 128,-1,2
 1427 293 1427 293 1331 194 c 128,-1,3
 1235 95 1235 95 1100 39.5 c 128,-1,4
 965 -16 965 -16 801 -16 c 0,5,6
 700 -16 700 -16 611 5 c 128,-1,7
 522 26 522 26 444 66 c 1,8,-1
 368 -39 l 2,9,10
 339 -79 339 -79 298.5 -95 c 128,-1,11
 258 -111 258 -111 220 -111 c 2,12,-1
 114 -111 l 1,13,-1
 309 157 l 1,14,15
 194 257 194 257 130.5 402 c 128,-1,16
 67 547 67 547 67 723 c 0,17,18
 67 882 67 882 120 1017.5 c 128,-1,19
 173 1153 173 1153 269.5 1252 c 128,-1,20
 366 1351 366 1351 501.5 1406.5 c 128,-1,21
 637 1462 637 1462 801 1462 c 0,22,23
 911 1462 911 1462 1007.5 1437 c 128,-1,24
 1104 1412 1104 1412 1186 1364 c 1,25,-1
 1245 1446 l 2,26,27
 1258 1464 1258 1464 1269 1477 c 128,-1,28
 1280 1490 1280 1490 1292.5 1497.5 c 128,-1,29
 1305 1505 1305 1505 1320 1508.5 c 128,-1,30
 1335 1512 1335 1512 1357 1512 c 2,31,-1
 1495 1512 l 1,32,-1
 1316 1266 l 1,33,34
 1420 1166 1420 1166 1476.5 1027.5 c 128,-1,35
 1533 889 1533 889 1533 723 c 0,0,1
342 723 m 0,36,37
 342 608 342 608 371 517 c 128,-1,38
 400 426 400 426 456 360 c 1,39,-1
 1045 1170 l 1,40,41
 941 1233 941 1233 801 1233 c 0,42,43
 695 1233 695 1233 610 1198 c 128,-1,44
 525 1163 525 1163 465.5 1097 c 128,-1,45
 406 1031 406 1031 374 936.5 c 128,-1,46
 342 842 342 842 342 723 c 0,36,37
1257 723 m 0,47,48
 1257 826 1257 826 1233.5 910 c 128,-1,49
 1210 994 1210 994 1165 1058 c 1,50,-1
 585 260 l 1,51,52
 680 214 680 214 801 214 c 0,53,54
 907 214 907 214 991.5 249 c 128,-1,55
 1076 284 1076 284 1135 349.5 c 128,-1,56
 1194 415 1194 415 1225.5 509.5 c 128,-1,57
 1257 604 1257 604 1257 723 c 0,47,48
EndSplineSet
Validated: 1
EndChar

StartChar: Thorn
Encoding: 222 222 160
Width: 1250
Flags: W
LayerCount: 2
Fore
SplineSet
424 261 m 1,0,-1
 424 0 l 1,1,-1
 155 0 l 1,2,-1
 155 1446 l 1,3,-1
 424 1446 l 1,4,-1
 424 1198 l 1,5,-1
 626 1198 l 2,6,7
 771 1198 771 1198 877 1164 c 128,-1,8
 983 1130 983 1130 1052 1069 c 128,-1,9
 1121 1008 1121 1008 1154 923 c 128,-1,10
 1187 838 1187 838 1187 737 c 0,11,12
 1187 632 1187 632 1152 544.5 c 128,-1,13
 1117 457 1117 457 1047 394 c 128,-1,14
 977 331 977 331 872 296 c 128,-1,15
 767 261 767 261 626 261 c 2,16,-1
 424 261 l 1,0,-1
424 471 m 1,17,-1
 626 471 l 2,18,19
 700 471 700 471 755 489.5 c 128,-1,20
 810 508 810 508 846 542.5 c 128,-1,21
 882 577 882 577 900 626.5 c 128,-1,22
 918 676 918 676 918 737 c 0,23,24
 918 795 918 795 900 842 c 128,-1,25
 882 889 882 889 846 922 c 128,-1,26
 810 955 810 955 755 972.5 c 128,-1,27
 700 990 700 990 626 990 c 2,28,-1
 424 990 l 1,29,-1
 424 471 l 1,17,-1
EndSplineSet
Validated: 1
EndChar

StartChar: germandbls
Encoding: 223 223 161
Width: 1270
Flags: W
LayerCount: 2
Fore
SplineSet
700 1471 m 0,0,1
 817 1471 817 1471 900 1437 c 128,-1,2
 983 1403 983 1403 1035 1352 c 128,-1,3
 1087 1301 1087 1301 1111 1242 c 128,-1,4
 1135 1183 1135 1183 1135 1132 c 0,5,6
 1135 1074 1135 1074 1115.5 1033 c 128,-1,7
 1096 992 1096 992 1066.5 961 c 128,-1,8
 1037 930 1037 930 1003 907 c 128,-1,9
 969 884 969 884 939.5 863 c 128,-1,10
 910 842 910 842 890.5 819.5 c 128,-1,11
 871 797 871 797 871 768 c 0,12,13
 871 735 871 735 896 711 c 128,-1,14
 921 687 921 687 958 664 c 128,-1,15
 995 641 995 641 1039 615 c 128,-1,16
 1083 589 1083 589 1120 551.5 c 128,-1,17
 1157 514 1157 514 1182 461 c 128,-1,18
 1207 408 1207 408 1207 331 c 0,19,20
 1207 246 1207 246 1175.5 181.5 c 128,-1,21
 1144 117 1144 117 1090 73 c 128,-1,22
 1036 29 1036 29 964.5 6.5 c 128,-1,23
 893 -16 893 -16 813 -16 c 0,24,25
 767 -16 767 -16 722 -6.5 c 128,-1,26
 677 3 677 3 635.5 20 c 128,-1,27
 594 37 594 37 557 60 c 128,-1,28
 520 83 520 83 490 110 c 1,29,-1
 548 204 l 2,30,31
 558 221 558 221 573 230 c 128,-1,32
 588 239 588 239 611 239 c 256,33,34
 634 239 634 239 655 226 c 128,-1,35
 676 213 676 213 701 198 c 128,-1,36
 726 183 726 183 758 170 c 128,-1,37
 790 157 790 157 835 157 c 0,38,39
 898 157 898 157 937 194.5 c 128,-1,40
 976 232 976 232 976 292 c 0,41,42
 976 339 976 339 949 370 c 128,-1,43
 922 401 922 401 881.5 425.5 c 128,-1,44
 841 450 841 450 794 473.5 c 128,-1,45
 747 497 747 497 706.5 528.5 c 128,-1,46
 666 560 666 560 639 605 c 128,-1,47
 612 650 612 650 612 719 c 0,48,49
 612 776 612 776 633 817 c 128,-1,50
 654 858 654 858 685.5 890 c 128,-1,51
 717 922 717 922 754 947.5 c 128,-1,52
 791 973 791 973 822.5 1000 c 128,-1,53
 854 1027 854 1027 875 1058 c 128,-1,54
 896 1089 896 1089 896 1131 c 0,55,56
 896 1164 896 1164 884.5 1193.5 c 128,-1,57
 873 1223 873 1223 848 1244.5 c 128,-1,58
 823 1266 823 1266 783.5 1279 c 128,-1,59
 744 1292 744 1292 689 1292 c 0,60,61
 558 1292 558 1292 490.5 1211.5 c 128,-1,62
 423 1131 423 1131 423 976 c 2,63,-1
 423 0 l 1,64,-1
 176 0 l 1,65,-1
 176 984 l 2,66,67
 176 1090 176 1090 212.5 1179 c 128,-1,68
 249 1268 249 1268 316.5 1333 c 128,-1,69
 384 1398 384 1398 481 1434.5 c 128,-1,70
 578 1471 578 1471 700 1471 c 0,0,1
EndSplineSet
Validated: 1
EndChar

StartChar: ae
Encoding: 230 230 168
Width: 1651
Flags: W
LayerCount: 2
Fore
SplineSet
1174 1042 m 0,0,1
 1261 1042 1261 1042 1336 1008.5 c 128,-1,2
 1411 975 1411 975 1465.5 912 c 128,-1,3
 1520 849 1520 849 1551 759 c 128,-1,4
 1582 669 1582 669 1582 557 c 0,5,6
 1582 529 1582 529 1579.5 510.5 c 128,-1,7
 1577 492 1577 492 1571 481.5 c 128,-1,8
 1565 471 1565 471 1554.5 466.5 c 128,-1,9
 1544 462 1544 462 1527 462 c 2,10,-1
 929 462 l 1,11,12
 943 315 943 315 1012.5 245.5 c 128,-1,13
 1082 176 1082 176 1192 176 c 0,14,15
 1260 176 1260 176 1302.5 189 c 128,-1,16
 1345 202 1345 202 1373 218 c 128,-1,17
 1401 234 1401 234 1420 247 c 128,-1,18
 1439 260 1439 260 1460 260 c 0,19,20
 1478 260 1478 260 1490 254 c 128,-1,21
 1502 248 1502 248 1510 237 c 2,22,-1
 1576 153 l 1,23,24
 1535 105 1535 105 1486 72.5 c 128,-1,25
 1437 40 1437 40 1383.5 20.5 c 128,-1,26
 1330 1 1330 1 1275 -7 c 128,-1,27
 1220 -15 1220 -15 1168 -15 c 0,28,29
 1059 -15 1059 -15 964.5 34 c 128,-1,30
 870 83 870 83 809 187 c 1,31,32
 779 133 779 133 735 95 c 128,-1,33
 691 57 691 57 638 32 c 128,-1,34
 585 7 585 7 525 -4.5 c 128,-1,35
 465 -16 465 -16 404 -16 c 0,36,37
 329 -16 329 -16 269.5 3 c 128,-1,38
 210 22 210 22 168 58.5 c 128,-1,39
 126 95 126 95 103.5 149.5 c 128,-1,40
 81 204 81 204 81 275 c 0,41,42
 81 333 81 333 111.5 391.5 c 128,-1,43
 142 450 142 450 213 498 c 128,-1,44
 284 546 284 546 402 577.5 c 128,-1,45
 520 609 520 609 695 613 c 1,46,-1
 695 648 l 2,47,48
 695 751 695 751 651.5 804 c 128,-1,49
 608 857 608 857 525 857 c 0,50,51
 465 857 465 857 425 841.5 c 128,-1,52
 385 826 385 826 355.5 808 c 128,-1,53
 326 790 326 790 301 774.5 c 128,-1,54
 276 759 276 759 246 759 c 0,55,56
 221 759 221 759 203 772 c 128,-1,57
 185 785 185 785 174 804 c 2,58,-1
 129 883 l 1,59,60
 218 964 218 964 314.5 1004.5 c 128,-1,61
 411 1045 411 1045 529 1045 c 0,62,63
 645 1045 645 1045 719 1001 c 128,-1,64
 793 957 793 957 832 880 c 1,65,66
 889 955 889 955 974 998.5 c 128,-1,67
 1059 1042 1059 1042 1174 1042 c 0,0,1
695 462 m 1,68,69
 587 457 587 457 514.5 441.5 c 128,-1,70
 442 426 442 426 398 403 c 128,-1,71
 354 380 354 380 335.5 350 c 128,-1,72
 317 320 317 320 317 287 c 0,73,74
 317 218 317 218 356 186 c 128,-1,75
 395 154 395 154 463 154 c 0,76,77
 512 154 512 154 554.5 169 c 128,-1,78
 597 184 597 184 628 215.5 c 128,-1,79
 659 247 659 247 677 297 c 128,-1,80
 695 347 695 347 695 416 c 2,81,-1
 695 462 l 1,68,69
1163 865 m 0,82,83
 1058 865 1058 865 1000.5 798.5 c 128,-1,84
 943 732 943 732 930 611 c 1,85,-1
 1363 611 l 1,86,87
 1363 660 1363 660 1351 706 c 128,-1,88
 1339 752 1339 752 1314.5 787.5 c 128,-1,89
 1290 823 1290 823 1252 844 c 128,-1,90
 1214 865 1214 865 1163 865 c 0,82,83
EndSplineSet
Validated: 1
EndChar

StartChar: ccedilla
Encoding: 231 231 169
Width: 954
Flags: W
LayerCount: 2
Fore
SplineSet
405 -227 m 0,0,1
 412 -227 412 -227 419.5 -229 c 128,-1,2
 427 -231 427 -231 436.5 -234 c 128,-1,3
 446 -237 446 -237 457.5 -239 c 128,-1,4
 469 -241 469 -241 485 -241 c 0,5,6
 518 -241 518 -241 534.5 -228.5 c 128,-1,7
 551 -216 551 -216 551 -198 c 0,8,9
 551 -169 551 -169 515 -156.5 c 128,-1,10
 479 -144 479 -144 404 -134 c 1,11,-1
 442 -8 l 1,12,13
 362 6 362 6 292.5 47.5 c 128,-1,14
 223 89 223 89 172 155.5 c 128,-1,15
 121 222 121 222 92 312.5 c 128,-1,16
 63 403 63 403 63 515 c 0,17,18
 63 628 63 628 95.5 724.5 c 128,-1,19
 128 821 128 821 191 891.5 c 128,-1,20
 254 962 254 962 347 1002 c 128,-1,21
 440 1042 440 1042 561 1042 c 0,22,23
 676 1042 676 1042 762.5 1005 c 128,-1,24
 849 968 849 968 918 899 c 1,25,-1
 853 809 l 2,26,27
 842 795 842 795 831.5 787 c 128,-1,28
 821 779 821 779 801 779 c 0,29,30
 782 779 782 779 764 790.5 c 128,-1,31
 746 802 746 802 721 816.5 c 128,-1,32
 696 831 696 831 661.5 842.5 c 128,-1,33
 627 854 627 854 576 854 c 0,34,35
 511 854 511 854 462 830.5 c 128,-1,36
 413 807 413 807 380.5 763 c 128,-1,37
 348 719 348 719 332 656.5 c 128,-1,38
 316 594 316 594 316 515 c 0,39,40
 316 433 316 433 333.5 369 c 128,-1,41
 351 305 351 305 384 261.5 c 128,-1,42
 417 218 417 218 464 195.5 c 128,-1,43
 511 173 511 173 570 173 c 256,44,45
 629 173 629 173 665.5 187.5 c 128,-1,46
 702 202 702 202 727 219.5 c 128,-1,47
 752 237 752 237 770.5 251.5 c 128,-1,48
 789 266 789 266 812 266 c 0,49,50
 839 266 839 266 857 243 c 2,51,-1
 928 153 l 1,52,53
 859 72 859 72 773 34.5 c 128,-1,54
 687 -3 687 -3 595 -11 c 1,55,-1
 583 -55 l 1,56,57
 672 -77 672 -77 708 -114.5 c 128,-1,58
 744 -152 744 -152 744 -203 c 0,59,60
 744 -236 744 -236 726.5 -263 c 128,-1,61
 709 -290 709 -290 677 -309 c 128,-1,62
 645 -328 645 -328 600 -338.5 c 128,-1,63
 555 -349 555 -349 501 -349 c 0,64,65
 460 -349 460 -349 424.5 -343 c 128,-1,66
 389 -337 389 -337 354 -326 c 1,67,-1
 377 -250 l 2,68,69
 383 -227 383 -227 405 -227 c 0,0,1
EndSplineSet
Validated: 1
EndChar

StartChar: eth
Encoding: 240 240 178
Width: 1136
Flags: W
LayerCount: 2
Fore
SplineSet
386 1062 m 2,0,1
 376 1078 376 1078 376 1095 c 0,2,3
 376 1125 376 1125 408 1143 c 2,4,-1
 483 1186 l 1,5,6
 451 1199 451 1199 415.5 1210 c 128,-1,7
 380 1221 380 1221 341 1232 c 0,8,9
 316 1239 316 1239 299.5 1257 c 128,-1,10
 283 1275 283 1275 283 1305 c 0,11,12
 283 1321 283 1321 291 1347 c 2,13,-1
 320 1432 l 1,14,15
 421 1415 421 1415 514.5 1384 c 128,-1,16
 608 1353 608 1353 691 1304 c 1,17,-1
 867 1418 l 1,18,-1
 916 1338 l 2,19,20
 926 1321 926 1321 926 1307 c 256,21,22
 926 1293 926 1293 918.5 1281 c 128,-1,23
 911 1269 911 1269 897 1261 c 2,24,-1
 816 1215 l 1,25,26
 873 1164 873 1164 919 1101.5 c 128,-1,27
 965 1039 965 1039 998 964 c 128,-1,28
 1031 889 1031 889 1048.5 800 c 128,-1,29
 1066 711 1066 711 1066 608 c 0,30,31
 1066 461 1066 461 1032.5 345.5 c 128,-1,32
 999 230 999 230 934 149.5 c 128,-1,33
 869 69 869 69 773 27 c 128,-1,34
 677 -15 677 -15 553 -15 c 0,35,36
 449 -15 449 -15 360 18.5 c 128,-1,37
 271 52 271 52 206 115 c 128,-1,38
 141 178 141 178 103.5 268.5 c 128,-1,39
 66 359 66 359 66 474 c 0,40,41
 66 566 66 566 98.5 649 c 128,-1,42
 131 732 131 732 190.5 794.5 c 128,-1,43
 250 857 250 857 334 894 c 128,-1,44
 418 931 418 931 522 931 c 0,45,46
 617 931 617 931 696 896.5 c 128,-1,47
 775 862 775 862 836 796 c 1,48,49
 815 902 815 902 765 978.5 c 128,-1,50
 715 1055 715 1055 630 1112 c 1,51,-1
 432 984 l 1,52,-1
 386 1062 l 2,0,1
559 173 m 0,53,54
 617 173 617 173 666 194 c 128,-1,55
 715 215 715 215 751 261.5 c 128,-1,56
 787 308 787 308 808.5 382 c 128,-1,57
 830 456 830 456 833 562 c 1,58,59
 818 599 818 599 794.5 632 c 128,-1,60
 771 665 771 665 739 689.5 c 128,-1,61
 707 714 707 714 665.5 728.5 c 128,-1,62
 624 743 624 743 572 743 c 0,63,64
 508 743 508 743 459.5 722 c 128,-1,65
 411 701 411 701 378 664 c 128,-1,66
 345 627 345 627 328 578 c 128,-1,67
 311 529 311 529 311 472 c 0,68,69
 311 399 311 399 330.5 343.5 c 128,-1,70
 350 288 350 288 383.5 250 c 128,-1,71
 417 212 417 212 462 192.5 c 128,-1,72
 507 173 507 173 559 173 c 0,53,54
EndSplineSet
Validated: 1
EndChar

StartChar: divide
Encoding: 247 247 185
Width: 1160
Flags: W
LayerCount: 2
Fore
SplineSet
91 763 m 1,0,-1
 1067 763 l 1,1,-1
 1067 580 l 1,2,-1
 91 580 l 1,3,-1
 91 763 l 1,0,-1
427 1027 m 0,4,5
 427 1058 427 1058 438.5 1086 c 128,-1,6
 450 1114 450 1114 470 1134 c 128,-1,7
 490 1154 490 1154 518 1166 c 128,-1,8
 546 1178 546 1178 578 1178 c 0,9,10
 609 1178 609 1178 637 1166 c 128,-1,11
 665 1154 665 1154 685.5 1134 c 128,-1,12
 706 1114 706 1114 718 1086 c 128,-1,13
 730 1058 730 1058 730 1027 c 0,14,15
 730 995 730 995 718 967.5 c 128,-1,16
 706 940 706 940 685.5 920 c 128,-1,17
 665 900 665 900 637 888.5 c 128,-1,18
 609 877 609 877 578 877 c 0,19,20
 546 877 546 877 518 888.5 c 128,-1,21
 490 900 490 900 470 920 c 128,-1,22
 450 940 450 940 438.5 967.5 c 128,-1,23
 427 995 427 995 427 1027 c 0,4,5
427 315 m 0,24,25
 427 346 427 346 438.5 374 c 128,-1,26
 450 402 450 402 470 422 c 128,-1,27
 490 442 490 442 518 454 c 128,-1,28
 546 466 546 466 578 466 c 0,29,30
 609 466 609 466 637 454 c 128,-1,31
 665 442 665 442 685.5 422 c 128,-1,32
 706 402 706 402 718 374 c 128,-1,33
 730 346 730 346 730 315 c 0,34,35
 730 283 730 283 718 255.5 c 128,-1,36
 706 228 706 228 685.5 208 c 128,-1,37
 665 188 665 188 637 176.5 c 128,-1,38
 609 165 609 165 578 165 c 0,39,40
 546 165 546 165 518 176.5 c 128,-1,41
 490 188 490 188 470 208 c 128,-1,42
 450 228 450 228 438.5 255.5 c 128,-1,43
 427 283 427 283 427 315 c 0,24,25
EndSplineSet
Validated: 1
EndChar

StartChar: oslash
Encoding: 248 248 186
Width: 1137
Flags: W
LayerCount: 2
Fore
SplineSet
943 893 m 1,0,1
 1007 824 1007 824 1041.5 729 c 128,-1,2
 1076 634 1076 634 1076 515 c 0,3,4
 1076 393 1076 393 1040 295 c 128,-1,5
 1004 197 1004 197 938 128 c 128,-1,6
 872 59 872 59 778.5 22 c 128,-1,7
 685 -15 685 -15 570 -15 c 0,8,9
 498 -15 498 -15 434.5 -0.5 c 128,-1,10
 371 14 371 14 316 42 c 1,11,-1
 282 -5 l 2,12,13
 253 -44 253 -44 212.5 -60.5 c 128,-1,14
 172 -77 172 -77 134 -77 c 2,15,-1
 43 -77 l 1,16,-1
 197 132 l 1,17,18
 131 201 131 201 96 297.5 c 128,-1,19
 61 394 61 394 61 515 c 256,20,21
 61 636 61 636 97.5 734 c 128,-1,22
 134 832 134 832 200.5 900 c 128,-1,23
 267 968 267 968 361 1005 c 128,-1,24
 455 1042 455 1042 570 1042 c 0,25,26
 642 1042 642 1042 706 1027 c 128,-1,27
 770 1012 770 1012 824 984 c 1,28,-1
 880 1059 l 2,29,30
 893 1077 893 1077 904 1089.5 c 128,-1,31
 915 1102 915 1102 927.5 1110 c 128,-1,32
 940 1118 940 1118 955 1121.5 c 128,-1,33
 970 1125 970 1125 992 1125 c 2,34,-1
 1114 1125 l 1,35,-1
 943 893 l 1,0,1
300 513 m 0,36,37
 300 394 300 394 332 316 c 1,38,-1
 708 826 l 1,39,40
 652 860 652 860 570 860 c 0,41,42
 439 860 439 860 369.5 769.5 c 128,-1,43
 300 679 300 679 300 513 c 0,36,37
570 167 m 0,44,45
 698 167 698 167 767.5 257 c 128,-1,46
 837 347 837 347 837 513 c 0,47,48
 837 572 837 572 829 620 c 128,-1,49
 821 668 821 668 806 706 c 1,50,-1
 432 199 l 1,51,52
 487 167 487 167 570 167 c 0,44,45
EndSplineSet
Validated: 1
EndChar

StartChar: thorn
Encoding: 254 254 192
Width: 1131
Flags: W
LayerCount: 2
Fore
SplineSet
132 -335 m 1,0,-1
 132 1486 l 1,1,-1
 379 1486 l 1,2,-1
 379 900 l 1,3,4
 440 965 440 965 517 1003.5 c 128,-1,5
 594 1042 594 1042 697 1042 c 0,6,7
 781 1042 781 1042 850.5 1007.5 c 128,-1,8
 920 973 920 973 970.5 907 c 128,-1,9
 1021 841 1021 841 1048.5 744 c 128,-1,10
 1076 647 1076 647 1076 521 c 0,11,12
 1076 406 1076 406 1045 308 c 128,-1,13
 1014 210 1014 210 956.5 138 c 128,-1,14
 899 66 899 66 817.5 25.5 c 128,-1,15
 736 -15 736 -15 635 -15 c 0,16,17
 591 -15 591 -15 554 -7 c 128,-1,18
 517 1 517 1 486 16.5 c 128,-1,19
 455 32 455 32 429 53.5 c 128,-1,20
 403 75 403 75 379 102 c 1,21,-1
 379 -335 l 1,22,-1
 132 -335 l 1,0,-1
612 850 m 0,23,24
 535 850 535 850 480.5 817.5 c 128,-1,25
 426 785 426 785 379 726 c 1,26,-1
 379 266 l 1,27,28
 421 214 421 214 470.5 193.5 c 128,-1,29
 520 173 520 173 577 173 c 0,30,31
 633 173 633 173 678.5 194 c 128,-1,32
 724 215 724 215 755.5 258 c 128,-1,33
 787 301 787 301 804 366.5 c 128,-1,34
 821 432 821 432 821 521 c 0,35,36
 821 611 821 611 806.5 673.5 c 128,-1,37
 792 736 792 736 765 775 c 128,-1,38
 738 814 738 814 699.5 832 c 128,-1,39
 661 850 661 850 612 850 c 0,23,24
EndSplineSet
Validated: 1
EndChar

StartChar: Aogonek
Encoding: 260 260 194
Width: 1420
Flags: W
LayerCount: 2
Fore
SplineSet
1404 -187 m 0,0,1
 1422 -187 1422 -187 1427 -203 c 2,2,-1
 1465 -294 l 1,3,4
 1432 -316 1432 -316 1382.5 -330.5 c 128,-1,5
 1333 -345 1333 -345 1278 -345 c 0,6,7
 1180 -345 1180 -345 1127 -304 c 128,-1,8
 1074 -263 1074 -263 1074 -198 c 0,9,10
 1074 -143 1074 -143 1110.5 -92 c 128,-1,11
 1147 -41 1147 -41 1215 0 c 1,12,-1
 1209 0 l 2,13,14
 1174 0 1174 0 1151.5 17.5 c 128,-1,15
 1129 35 1129 35 1119 61 c 2,16,-1
 1011 356 l 1,17,-1
 412 356 l 1,18,-1
 304 61 l 2,19,20
 296 38 296 38 272.5 19 c 128,-1,21
 249 0 249 0 215 0 c 2,22,-1
 6 0 l 1,23,-1
 574 1446 l 1,24,-1
 849 1446 l 1,25,-1
 1417 0 l 1,26,-1
 1364 0 l 1,27,28
 1344 -11 1344 -11 1325 -25 c 128,-1,29
 1306 -39 1306 -39 1291 -56.5 c 128,-1,30
 1276 -74 1276 -74 1267 -94 c 128,-1,31
 1258 -114 1258 -114 1258 -136 c 0,32,33
 1258 -166 1258 -166 1277 -183.5 c 128,-1,34
 1296 -201 1296 -201 1330 -201 c 0,35,36
 1349 -201 1349 -201 1361 -199 c 128,-1,37
 1373 -197 1373 -197 1380.5 -194 c 128,-1,38
 1388 -191 1388 -191 1393.5 -189 c 128,-1,39
 1399 -187 1399 -187 1404 -187 c 0,0,1
481 546 m 1,40,-1
 942 546 l 1,41,-1
 766 1027 l 2,42,43
 754 1059 754 1059 739.5 1102.5 c 128,-1,44
 725 1146 725 1146 711 1197 c 1,45,46
 697 1146 697 1146 683 1102 c 128,-1,47
 669 1058 669 1058 657 1025 c 2,48,-1
 481 546 l 1,40,-1
EndSplineSet
Validated: 1
EndChar

StartChar: aogonek
Encoding: 261 261 195
Width: 1047
Flags: W
LayerCount: 2
Fore
SplineSet
936 0 m 1,0,1
 916 -11 916 -11 897 -25 c 128,-1,2
 878 -39 878 -39 863 -56.5 c 128,-1,3
 848 -74 848 -74 839 -94 c 128,-1,4
 830 -114 830 -114 830 -136 c 0,5,6
 830 -166 830 -166 849 -183.5 c 128,-1,7
 868 -201 868 -201 902 -201 c 0,8,9
 921 -201 921 -201 933 -199 c 128,-1,10
 945 -197 945 -197 952.5 -194 c 128,-1,11
 960 -191 960 -191 965.5 -189 c 128,-1,12
 971 -187 971 -187 976 -187 c 0,13,14
 994 -187 994 -187 999 -203 c 2,15,-1
 1037 -294 l 1,16,17
 1004 -316 1004 -316 954.5 -330.5 c 128,-1,18
 905 -345 905 -345 850 -345 c 0,19,20
 752 -345 752 -345 699 -304 c 128,-1,21
 646 -263 646 -263 646 -198 c 0,22,23
 646 -142 646 -142 684 -90.5 c 128,-1,24
 722 -39 722 -39 792 3 c 1,25,26
 772 7 772 7 759.5 18.5 c 128,-1,27
 747 30 747 30 740 53 c 2,28,-1
 718 126 l 1,29,30
 679 91 679 91 641.5 64.5 c 128,-1,31
 604 38 604 38 564 20 c 128,-1,32
 524 2 524 2 479 -7 c 128,-1,33
 434 -16 434 -16 379 -16 c 0,34,35
 314 -16 314 -16 259 1.5 c 128,-1,36
 204 19 204 19 164.5 54 c 128,-1,37
 125 89 125 89 103 141 c 128,-1,38
 81 193 81 193 81 262 c 0,39,40
 81 320 81 320 111.5 376.5 c 128,-1,41
 142 433 142 433 213 478.5 c 128,-1,42
 284 524 284 524 402 554 c 128,-1,43
 520 584 520 584 695 588 c 1,44,-1
 695 648 l 2,45,46
 695 751 695 751 651.5 800.5 c 128,-1,47
 608 850 608 850 525 850 c 0,48,49
 465 850 465 850 425 836 c 128,-1,50
 385 822 385 822 355.5 804.5 c 128,-1,51
 326 787 326 787 301 773 c 128,-1,52
 276 759 276 759 246 759 c 0,53,54
 221 759 221 759 203 772.5 c 128,-1,55
 185 786 185 786 174 804 c 2,56,-1
 129 883 l 1,57,58
 306 1045 306 1045 556 1045 c 0,59,60
 646 1045 646 1045 716.5 1015.5 c 128,-1,61
 787 986 787 986 836 933.5 c 128,-1,62
 885 881 885 881 910.5 808 c 128,-1,63
 936 735 936 735 936 648 c 2,64,-1
 936 0 l 1,0,1
456 154 m 0,65,66
 494 154 494 154 526 161 c 128,-1,67
 558 168 558 168 586.5 182 c 128,-1,68
 615 196 615 196 641.5 216.5 c 128,-1,69
 668 237 668 237 695 265 c 1,70,-1
 695 438 l 1,71,72
 587 433 587 433 514.5 419.5 c 128,-1,73
 442 406 442 406 398 385 c 128,-1,74
 354 364 354 364 335.5 336 c 128,-1,75
 317 308 317 308 317 275 c 0,76,77
 317 210 317 210 355.5 182 c 128,-1,78
 394 154 394 154 456 154 c 0,65,66
EndSplineSet
Validated: 1
EndChar

StartChar: Eogonek
Encoding: 280 280 198
Width: 1158
Flags: W
LayerCount: 2
Fore
SplineSet
1007 -187 m 0,0,1
 1025 -187 1025 -187 1030 -203 c 2,2,-1
 1068 -294 l 1,3,4
 1035 -316 1035 -316 985.5 -330.5 c 128,-1,5
 936 -345 936 -345 881 -345 c 0,6,7
 783 -345 783 -345 730 -304 c 128,-1,8
 677 -263 677 -263 677 -198 c 0,9,10
 677 -143 677 -143 713.5 -92 c 128,-1,11
 750 -41 750 -41 818 0 c 1,12,-1
 146 0 l 1,13,-1
 146 1446 l 1,14,-1
 1058 1446 l 1,15,-1
 1058 1232 l 1,16,-1
 417 1232 l 1,17,-1
 417 831 l 1,18,-1
 922 831 l 1,19,-1
 922 624 l 1,20,-1
 417 624 l 1,21,-1
 417 215 l 1,22,-1
 1058 215 l 1,23,-1
 1058 0 l 1,24,-1
 967 0 l 1,25,26
 947 -11 947 -11 928 -25 c 128,-1,27
 909 -39 909 -39 894 -56.5 c 128,-1,28
 879 -74 879 -74 870 -94 c 128,-1,29
 861 -114 861 -114 861 -136 c 0,30,31
 861 -166 861 -166 880 -183.5 c 128,-1,32
 899 -201 899 -201 933 -201 c 0,33,34
 952 -201 952 -201 964 -199 c 128,-1,35
 976 -197 976 -197 983.5 -194 c 128,-1,36
 991 -191 991 -191 996.5 -189 c 128,-1,37
 1002 -187 1002 -187 1007 -187 c 0,0,1
EndSplineSet
Validated: 1
EndChar

StartChar: eogonek
Encoding: 281 281 199
Width: 1069
Flags: W
LayerCount: 2
Fore
SplineSet
745 -187 m 0,0,1
 763 -187 763 -187 768 -203 c 2,2,-1
 806 -294 l 1,3,4
 773 -316 773 -316 723.5 -330.5 c 128,-1,5
 674 -345 674 -345 619 -345 c 0,6,7
 521 -345 521 -345 468 -304 c 128,-1,8
 415 -263 415 -263 415 -198 c 0,9,10
 415 -147 415 -147 446 -100 c 128,-1,11
 477 -53 477 -53 534 -14 c 1,12,13
 433 -9 433 -9 347 29 c 128,-1,14
 261 67 261 67 198 136.5 c 128,-1,15
 135 206 135 206 99 306 c 128,-1,16
 63 406 63 406 63 535 c 0,17,18
 63 640 63 640 97 732.5 c 128,-1,19
 131 825 131 825 194.5 893.5 c 128,-1,20
 258 962 258 962 349.5 1002 c 128,-1,21
 441 1042 441 1042 556 1042 c 0,22,23
 653 1042 653 1042 734.5 1011 c 128,-1,24
 816 980 816 980 875 920.5 c 128,-1,25
 934 861 934 861 967 774.5 c 128,-1,26
 1000 688 1000 688 1000 577 c 0,27,28
 1000 549 1000 549 997.5 530.5 c 128,-1,29
 995 512 995 512 988.5 501.5 c 128,-1,30
 982 491 982 491 971 486.5 c 128,-1,31
 960 482 960 482 943 482 c 2,32,-1
 309 482 l 1,33,34
 320 324 320 324 394 250 c 128,-1,35
 468 176 468 176 590 176 c 0,36,37
 650 176 650 176 693.5 190 c 128,-1,38
 737 204 737 204 769.5 221 c 128,-1,39
 802 238 802 238 826.5 252 c 128,-1,40
 851 266 851 266 874 266 c 0,41,42
 905 266 905 266 919 243 c 2,43,-1
 991 153 l 1,44,45
 932 85 932 85 855 48 c 128,-1,46
 778 11 778 11 698 -3 c 1,47,48
 679 -14 679 -14 661 -28 c 128,-1,49
 643 -42 643 -42 629.5 -59 c 128,-1,50
 616 -76 616 -76 607.5 -95.5 c 128,-1,51
 599 -115 599 -115 599 -136 c 0,52,53
 599 -166 599 -166 618 -183.5 c 128,-1,54
 637 -201 637 -201 671 -201 c 0,55,56
 690 -201 690 -201 702 -199 c 128,-1,57
 714 -197 714 -197 721.5 -194 c 128,-1,58
 729 -191 729 -191 734.5 -189 c 128,-1,59
 740 -187 740 -187 745 -187 c 0,0,1
561 865 m 0,60,61
 453 865 453 865 392 804 c 128,-1,62
 331 743 331 743 314 631 c 1,63,-1
 778 631 l 1,64,65
 778 679 778 679 765 721.5 c 128,-1,66
 752 764 752 764 725 796 c 128,-1,67
 698 828 698 828 657 846.5 c 128,-1,68
 616 865 616 865 561 865 c 0,60,61
EndSplineSet
Validated: 1
EndChar

StartChar: dotlessi
Encoding: 305 305 200
Width: 542
Flags: W
LayerCount: 2
Fore
SplineSet
395 1026 m 1,0,-1
 395 0 l 1,1,-1
 148 0 l 1,2,-1
 148 1026 l 1,3,-1
 395 1026 l 1,0,-1
EndSplineSet
Validated: 1
EndChar

StartChar: Lslash
Encoding: 321 321 201
Width: 1101
Flags: W
LayerCount: 2
Fore
SplineSet
483 870 m 1,0,-1
 841 1049 l 1,1,-1
 841 869 l 2,2,3
 841 832 841 832 808 815 c 2,4,-1
 483 646 l 1,5,-1
 483 222 l 1,6,-1
 1062 222 l 1,7,-1
 1062 0 l 1,8,-1
 214 0 l 1,9,-1
 214 528 l 1,10,-1
 34 438 l 1,11,-1
 34 623 l 2,12,13
 34 655 34 655 65 671 c 2,14,-1
 214 748 l 1,15,-1
 214 1446 l 1,16,-1
 483 1446 l 1,17,-1
 483 870 l 1,0,-1
EndSplineSet
Validated: 1
EndChar

StartChar: lslash
Encoding: 322 322 202
Width: 678
Flags: W
LayerCount: 2
Fore
SplineSet
463 1486 m 1,0,-1
 463 929 l 1,1,-1
 626 995 l 1,2,-1
 626 853 l 2,3,4
 626 812 626 812 592 799 c 2,5,-1
 463 744 l 1,6,-1
 463 0 l 1,7,-1
 216 0 l 1,8,-1
 216 657 l 1,9,-1
 52 591 l 1,10,-1
 52 737 l 2,11,12
 52 772 52 772 83 785 c 2,13,-1
 216 841 l 1,14,-1
 216 1486 l 1,15,-1
 463 1486 l 1,0,-1
EndSplineSet
Validated: 1
EndChar

StartChar: OE
Encoding: 338 338 205
Width: 2163
Flags: W
LayerCount: 2
Fore
SplineSet
2075 1446 m 1,0,-1
 2075 1232 l 1,1,-1
 1434 1232 l 1,2,-1
 1434 831 l 1,3,-1
 1940 831 l 1,4,-1
 1940 624 l 1,5,-1
 1434 624 l 1,6,-1
 1434 215 l 1,7,-1
 2075 215 l 1,8,-1
 2075 0 l 1,9,-1
 1195 0 l 1,10,-1
 1195 185 l 1,11,12
 1108 91 1108 91 990.5 38 c 128,-1,13
 873 -15 873 -15 727 -15 c 0,14,15
 579 -15 579 -15 457.5 40.5 c 128,-1,16
 336 96 336 96 249 194.5 c 128,-1,17
 162 293 162 293 114.5 428.5 c 128,-1,18
 67 564 67 564 67 723 c 256,19,20
 67 882 67 882 114.5 1017.5 c 128,-1,21
 162 1153 162 1153 249 1252 c 128,-1,22
 336 1351 336 1351 457.5 1406.5 c 128,-1,23
 579 1462 579 1462 727 1462 c 0,24,25
 872 1462 872 1462 990 1409 c 128,-1,26
 1108 1356 1108 1356 1195 1261 c 1,27,-1
 1195 1446 l 1,28,-1
 2075 1446 l 1,0,-1
1164 723 m 256,29,30
 1164 842 1164 842 1136 937.5 c 128,-1,31
 1108 1033 1108 1033 1055 1100.5 c 128,-1,32
 1002 1168 1002 1168 926 1204 c 128,-1,33
 850 1240 850 1240 755 1240 c 0,34,35
 659 1240 659 1240 582 1204 c 128,-1,36
 505 1168 505 1168 452 1100.5 c 128,-1,37
 399 1033 399 1033 370.5 937.5 c 128,-1,38
 342 842 342 842 342 723 c 256,39,40
 342 604 342 604 370.5 508.5 c 128,-1,41
 399 413 399 413 452 346 c 128,-1,42
 505 279 505 279 582 243 c 128,-1,43
 659 207 659 207 755 207 c 0,44,45
 850 207 850 207 926 243 c 128,-1,46
 1002 279 1002 279 1055 346 c 128,-1,47
 1108 413 1108 413 1136 508.5 c 128,-1,48
 1164 604 1164 604 1164 723 c 256,29,30
EndSplineSet
Validated: 1
EndChar

StartChar: oe
Encoding: 339 339 206
Width: 1749
Flags: W
LayerCount: 2
Fore
SplineSet
1272 1042 m 0,0,1
 1359 1042 1359 1042 1434 1008.5 c 128,-1,2
 1509 975 1509 975 1563.5 912 c 128,-1,3
 1618 849 1618 849 1649 759 c 128,-1,4
 1680 669 1680 669 1680 557 c 0,5,6
 1680 529 1680 529 1677.5 510.5 c 128,-1,7
 1675 492 1675 492 1669 481.5 c 128,-1,8
 1663 471 1663 471 1652.5 466.5 c 128,-1,9
 1642 462 1642 462 1625 462 c 2,10,-1
 1027 462 l 1,11,12
 1041 315 1041 315 1110.5 245.5 c 128,-1,13
 1180 176 1180 176 1290 176 c 0,14,15
 1346 176 1346 176 1386 190 c 128,-1,16
 1426 204 1426 204 1456.5 221 c 128,-1,17
 1487 238 1487 238 1511 252 c 128,-1,18
 1535 266 1535 266 1558 266 c 0,19,20
 1584 266 1584 266 1602 243 c 2,21,-1
 1674 153 l 1,22,23
 1633 105 1633 105 1584 72.5 c 128,-1,24
 1535 40 1535 40 1481.5 20.5 c 128,-1,25
 1428 1 1428 1 1373 -7 c 128,-1,26
 1318 -15 1318 -15 1266 -15 c 0,27,28
 1158 -15 1158 -15 1063.5 33.5 c 128,-1,29
 969 82 969 82 908 186 c 1,30,31
 848 89 848 89 751.5 37 c 128,-1,32
 655 -15 655 -15 527 -15 c 0,33,34
 425 -15 425 -15 339.5 22 c 128,-1,35
 254 59 254 59 192 128 c 128,-1,36
 130 197 130 197 95.5 295 c 128,-1,37
 61 393 61 393 61 515 c 0,38,39
 61 636 61 636 96 734 c 128,-1,40
 131 832 131 832 193.5 900 c 128,-1,41
 256 968 256 968 343.5 1005 c 128,-1,42
 431 1042 431 1042 536 1042 c 0,43,44
 660 1042 660 1042 753.5 990.5 c 128,-1,45
 847 939 847 939 906 844 c 1,46,47
 961 934 961 934 1053 988 c 128,-1,48
 1145 1042 1145 1042 1272 1042 c 0,0,1
550 175 m 0,49,50
 668 175 668 175 725 261 c 128,-1,51
 782 347 782 347 782 513 c 256,52,53
 782 679 782 679 725 766 c 128,-1,54
 668 853 668 853 550 853 c 0,55,56
 430 853 430 853 373 765.5 c 128,-1,57
 316 678 316 678 316 513 c 0,58,59
 316 347 316 347 372.5 261 c 128,-1,60
 429 175 429 175 550 175 c 0,49,50
1261 865 m 0,61,62
 1156 865 1156 865 1098.5 798.5 c 128,-1,63
 1041 732 1041 732 1028 611 c 1,64,-1
 1461 611 l 1,65,66
 1461 660 1461 660 1449 706 c 128,-1,67
 1437 752 1437 752 1412.5 787.5 c 128,-1,68
 1388 823 1388 823 1350 844 c 128,-1,69
 1312 865 1312 865 1261 865 c 0,61,62
EndSplineSet
Validated: 1
EndChar

StartChar: florin
Encoding: 402 402 218
Width: 1160
Flags: W
LayerCount: 2
Fore
SplineSet
706 745 m 1,0,-1
 623 57 l 2,1,2
 610 -49 610 -49 572.5 -125 c 128,-1,3
 535 -201 535 -201 470.5 -250 c 128,-1,4
 406 -299 406 -299 313.5 -322 c 128,-1,5
 221 -345 221 -345 98 -345 c 1,6,-1
 98 -216 l 2,7,8
 98 -140 98 -140 177 -140 c 0,9,10
 217 -140 217 -140 251 -129 c 128,-1,11
 285 -118 285 -118 311 -94 c 128,-1,12
 337 -70 337 -70 354 -31 c 128,-1,13
 371 8 371 8 378 64 c 2,14,-1
 461 740 l 1,15,-1
 338 758 l 2,16,17
 282 770 282 770 282 820 c 2,18,-1
 282 921 l 1,19,-1
 483 921 l 1,20,-1
 501 1069 l 2,21,22
 526 1269 526 1269 653 1370 c 128,-1,23
 780 1471 780 1471 1026 1471 c 1,24,-1
 1026 1336 l 2,25,26
 1026 1297 1026 1297 1007.5 1281.5 c 128,-1,27
 989 1266 989 1266 948 1266 c 256,28,29
 907 1266 907 1266 872.5 1255 c 128,-1,30
 838 1244 838 1244 811 1220 c 128,-1,31
 784 1196 784 1196 766 1157 c 128,-1,32
 748 1118 748 1118 741 1062 c 2,33,-1
 722 921 l 1,34,-1
 1016 921 l 1,35,-1
 1016 745 l 1,36,-1
 706 745 l 1,0,-1
EndSplineSet
Validated: 1
EndChar

StartChar: circumflex
Encoding: 710 710 219
Width: 638
Flags: W
LayerCount: 2
Fore
SplineSet
664 1168 m 1,0,-1
 499 1168 l 2,1,2
 468 1168 468 1168 449 1186 c 2,3,-1
 344 1281 l 2,4,5
 339 1286 339 1286 333.5 1291 c 128,-1,6
 328 1296 328 1296 323 1303 c 1,7,8
 318 1296 318 1296 312.5 1291 c 128,-1,9
 307 1286 307 1286 302 1281 c 2,10,-1
 195 1186 l 2,11,12
 187 1179 187 1179 173.5 1173.5 c 128,-1,13
 160 1168 160 1168 145 1168 c 2,14,-1
 -26 1168 l 1,15,-1
 203 1446 l 1,16,-1
 435 1446 l 1,17,-1
 664 1168 l 1,0,-1
EndSplineSet
Validated: 1
EndChar

StartChar: caron
Encoding: 65537 -1 220
Width: 638
Flags: W
LayerCount: 2
Fore
SplineSet
435 1168 m 1,0,-1
 203 1168 l 1,1,-1
 -26 1446 l 1,2,-1
 145 1446 l 2,3,4
 160 1446 160 1446 173.5 1441 c 128,-1,5
 187 1436 187 1436 195 1429 c 2,6,-1
 301 1333 l 2,7,8
 310 1325 310 1325 322 1310 c 1,9,10
 327 1317 327 1317 333 1322.5 c 128,-1,11
 339 1328 339 1328 344 1333 c 2,12,-1
 449 1429 l 2,13,14
 457 1436 457 1436 471 1441 c 128,-1,15
 485 1446 485 1446 499 1446 c 2,16,-1
 664 1446 l 1,17,-1
 435 1168 l 1,0,-1
EndSplineSet
Validated: 1
EndChar

StartChar: dotaccent
Encoding: 65538 -1 221
Width: 638
Flags: W
LayerCount: 2
Fore
SplineSet
478 1329 m 0,0,1
 478 1297 478 1297 465 1268.5 c 128,-1,2
 452 1240 452 1240 430.5 1219 c 128,-1,3
 409 1198 409 1198 379.5 1185.5 c 128,-1,4
 350 1173 350 1173 317 1173 c 0,5,6
 285 1173 285 1173 257 1185.5 c 128,-1,7
 229 1198 229 1198 208 1219 c 128,-1,8
 187 1240 187 1240 174.5 1268.5 c 128,-1,9
 162 1297 162 1297 162 1329 c 0,10,11
 162 1362 162 1362 174.5 1390.5 c 128,-1,12
 187 1419 187 1419 208 1440.5 c 128,-1,13
 229 1462 229 1462 257 1474.5 c 128,-1,14
 285 1487 285 1487 317 1487 c 0,15,16
 350 1487 350 1487 379.5 1474.5 c 128,-1,17
 409 1462 409 1462 430.5 1440.5 c 128,-1,18
 452 1419 452 1419 465 1390.5 c 128,-1,19
 478 1362 478 1362 478 1329 c 0,0,1
EndSplineSet
Validated: 1
EndChar

StartChar: ring
Encoding: 730 730 222
Width: 638
Flags: W
LayerCount: 2
Fore
SplineSet
96 1325 m 0,0,1
 96 1371 96 1371 114 1409 c 128,-1,2
 132 1447 132 1447 162.5 1474 c 128,-1,3
 193 1501 193 1501 233 1516 c 128,-1,4
 273 1531 273 1531 317 1531 c 0,5,6
 362 1531 362 1531 403 1516 c 128,-1,7
 444 1501 444 1501 475 1474 c 128,-1,8
 506 1447 506 1447 524.5 1409 c 128,-1,9
 543 1371 543 1371 543 1325 c 0,10,11
 543 1280 543 1280 524.5 1243 c 128,-1,12
 506 1206 506 1206 475 1179.5 c 128,-1,13
 444 1153 444 1153 403 1138.5 c 128,-1,14
 362 1124 362 1124 317 1124 c 0,15,16
 273 1124 273 1124 233 1138.5 c 128,-1,17
 193 1153 193 1153 162.5 1179.5 c 128,-1,18
 132 1206 132 1206 114 1243 c 128,-1,19
 96 1280 96 1280 96 1325 c 0,0,1
230 1325 m 0,20,21
 230 1287 230 1287 253.5 1261.5 c 128,-1,22
 277 1236 277 1236 321 1236 c 0,23,24
 361 1236 361 1236 385 1261.5 c 128,-1,25
 409 1287 409 1287 409 1325 c 0,26,27
 409 1367 409 1367 385 1391.5 c 128,-1,28
 361 1416 361 1416 321 1416 c 0,29,30
 277 1416 277 1416 253.5 1391.5 c 128,-1,31
 230 1367 230 1367 230 1325 c 0,20,21
EndSplineSet
Validated: 1
EndChar

StartChar: tilde
Encoding: 732 732 223
Width: 638
Flags: W
LayerCount: 2
Fore
SplineSet
426 1359 m 0,0,1
 456 1359 456 1359 473 1375.5 c 128,-1,2
 490 1392 490 1392 490 1435 c 1,3,-1
 640 1435 l 1,4,5
 640 1379 640 1379 624.5 1333.5 c 128,-1,6
 609 1288 609 1288 582 1255.5 c 128,-1,7
 555 1223 555 1223 517.5 1205.5 c 128,-1,8
 480 1188 480 1188 435 1188 c 0,9,10
 399 1188 399 1188 368 1201 c 128,-1,11
 337 1214 337 1214 310 1229 c 128,-1,12
 283 1244 283 1244 259.5 1257 c 128,-1,13
 236 1270 236 1270 216 1270 c 0,14,15
 187 1270 187 1270 170.5 1252.5 c 128,-1,16
 154 1235 154 1235 154 1193 c 1,17,-1
 1 1193 l 1,18,19
 1 1249 1 1249 16.5 1294.5 c 128,-1,20
 32 1340 32 1340 60 1372.5 c 128,-1,21
 88 1405 88 1405 125.5 1423 c 128,-1,22
 163 1441 163 1441 207 1441 c 0,23,24
 243 1441 243 1441 274.5 1428 c 128,-1,25
 306 1415 306 1415 333 1400 c 128,-1,26
 360 1385 360 1385 383 1372 c 128,-1,27
 406 1359 406 1359 426 1359 c 0,0,1
EndSplineSet
Validated: 1
EndChar

StartChar: endash
Encoding: 8211 8211 224
Width: 1137
Flags: W
LayerCount: 2
Fore
SplineSet
163 687 m 1,0,-1
 974 687 l 1,1,-1
 974 512 l 1,2,-1
 163 512 l 1,3,-1
 163 687 l 1,0,-1
EndSplineSet
Validated: 1
EndChar

StartChar: emdash
Encoding: 8212 8212 225
Width: 1684
Flags: W
LayerCount: 2
Fore
SplineSet
163 687 m 1,0,-1
 1520 687 l 1,1,-1
 1520 512 l 1,2,-1
 163 512 l 1,3,-1
 163 687 l 1,0,-1
EndSplineSet
Validated: 1
EndChar

StartChar: quoteleft
Encoding: 8216 8216 226
Width: 450
Flags: W
LayerCount: 2
Fore
SplineSet
166 977 m 1,0,1
 98 1088 98 1088 98 1201 c 0,2,3
 98 1301 98 1301 148.5 1392.5 c 128,-1,4
 199 1484 199 1484 295 1560 c 1,5,-1
 372 1513 l 2,6,7
 382 1507 382 1507 386 1498.5 c 128,-1,8
 390 1490 390 1490 390 1482 c 0,9,10
 390 1473 390 1473 386 1465 c 128,-1,11
 382 1457 382 1457 377 1451 c 0,12,13
 364 1436 364 1436 349.5 1416 c 128,-1,14
 335 1396 335 1396 323 1372.5 c 128,-1,15
 311 1349 311 1349 303 1321 c 128,-1,16
 295 1293 295 1293 295 1261 c 0,17,18
 295 1227 295 1227 306 1188.5 c 128,-1,19
 317 1150 317 1150 343 1108 c 0,20,21
 352 1094 352 1094 352 1080 c 0,22,23
 352 1048 352 1048 316 1035 c 2,24,-1
 166 977 l 1,0,1
EndSplineSet
Validated: 1
EndChar

StartChar: quoteright
Encoding: 8217 8217 227
Width: 450
Flags: W
LayerCount: 2
Fore
SplineSet
309 1532 m 1,0,1
 344 1476 344 1476 360.5 1420 c 128,-1,2
 377 1364 377 1364 377 1308 c 0,3,4
 377 1208 377 1208 326.5 1117 c 128,-1,5
 276 1026 276 1026 181 949 c 1,6,-1
 104 996 l 2,7,8
 94 1002 94 1002 90 1010.5 c 128,-1,9
 86 1019 86 1019 86 1027 c 0,10,11
 86 1046 86 1046 99 1059 c 0,12,13
 112 1074 112 1074 126.5 1093.5 c 128,-1,14
 141 1113 141 1113 153 1136.5 c 128,-1,15
 165 1160 165 1160 172.5 1188 c 128,-1,16
 180 1216 180 1216 180 1248 c 0,17,18
 180 1282 180 1282 169 1320.5 c 128,-1,19
 158 1359 158 1359 132 1402 c 0,20,21
 123 1415 123 1415 123 1429 c 0,22,23
 123 1461 123 1461 160 1474 c 2,24,-1
 309 1532 l 1,0,1
EndSplineSet
Validated: 1
EndChar

StartChar: quotesinglbase
Encoding: 8218 8218 228
Width: 450
Flags: W
LayerCount: 2
Fore
SplineSet
309 291 m 1,0,1
 344 235 344 235 360.5 179 c 128,-1,2
 377 123 377 123 377 67 c 0,3,4
 377 -33 377 -33 326.5 -124 c 128,-1,5
 276 -215 276 -215 181 -292 c 1,6,-1
 104 -245 l 2,7,8
 94 -239 94 -239 90 -230.5 c 128,-1,9
 86 -222 86 -222 86 -214 c 0,10,11
 86 -195 86 -195 99 -182 c 0,12,13
 112 -167 112 -167 126.5 -147.5 c 128,-1,14
 141 -128 141 -128 153 -104.5 c 128,-1,15
 165 -81 165 -81 172.5 -53 c 128,-1,16
 180 -25 180 -25 180 7 c 0,17,18
 180 41 180 41 169 79.5 c 128,-1,19
 158 118 158 118 132 161 c 0,20,21
 123 174 123 174 123 188 c 0,22,23
 123 220 123 220 160 233 c 2,24,-1
 309 291 l 1,0,1
EndSplineSet
Validated: 1
EndChar

StartChar: quotedblleft
Encoding: 8220 8220 229
Width: 782
Flags: W
LayerCount: 2
Fore
SplineSet
166 977 m 1,0,1
 98 1088 98 1088 98 1201 c 0,2,3
 98 1301 98 1301 148.5 1392.5 c 128,-1,4
 199 1484 199 1484 295 1560 c 1,5,-1
 372 1513 l 2,6,7
 382 1507 382 1507 386 1498.5 c 128,-1,8
 390 1490 390 1490 390 1482 c 0,9,10
 390 1473 390 1473 386 1465 c 128,-1,11
 382 1457 382 1457 377 1451 c 0,12,13
 364 1436 364 1436 349.5 1416 c 128,-1,14
 335 1396 335 1396 323 1372.5 c 128,-1,15
 311 1349 311 1349 303 1321 c 128,-1,16
 295 1293 295 1293 295 1261 c 0,17,18
 295 1227 295 1227 306 1188.5 c 128,-1,19
 317 1150 317 1150 343 1108 c 0,20,21
 352 1094 352 1094 352 1080 c 0,22,23
 352 1048 352 1048 316 1035 c 2,24,-1
 166 977 l 1,0,1
498 977 m 1,25,26
 430 1088 430 1088 430 1201 c 0,27,28
 430 1301 430 1301 480.5 1392.5 c 128,-1,29
 531 1484 531 1484 627 1560 c 1,30,-1
 704 1513 l 2,31,32
 714 1507 714 1507 718 1498.5 c 128,-1,33
 722 1490 722 1490 722 1482 c 0,34,35
 722 1473 722 1473 718 1465 c 128,-1,36
 714 1457 714 1457 709 1451 c 0,37,38
 696 1436 696 1436 681.5 1416 c 128,-1,39
 667 1396 667 1396 655 1372.5 c 128,-1,40
 643 1349 643 1349 635 1321 c 128,-1,41
 627 1293 627 1293 627 1261 c 0,42,43
 627 1227 627 1227 638 1188.5 c 128,-1,44
 649 1150 649 1150 675 1108 c 0,45,46
 684 1094 684 1094 684 1080 c 0,47,48
 684 1048 684 1048 648 1035 c 2,49,-1
 498 977 l 1,25,26
EndSplineSet
Validated: 1
EndChar

StartChar: quotedblright
Encoding: 8221 8221 230
Width: 782
Flags: W
LayerCount: 2
Fore
SplineSet
309 1532 m 1,0,1
 344 1476 344 1476 360.5 1420 c 128,-1,2
 377 1364 377 1364 377 1308 c 0,3,4
 377 1208 377 1208 326.5 1117 c 128,-1,5
 276 1026 276 1026 181 949 c 1,6,-1
 104 996 l 2,7,8
 94 1002 94 1002 90 1010.5 c 128,-1,9
 86 1019 86 1019 86 1027 c 0,10,11
 86 1046 86 1046 99 1059 c 0,12,13
 112 1074 112 1074 126.5 1093 c 128,-1,14
 141 1112 141 1112 153 1136 c 128,-1,15
 165 1160 165 1160 172.5 1188 c 128,-1,16
 180 1216 180 1216 180 1248 c 0,17,18
 180 1282 180 1282 169 1320.5 c 128,-1,19
 158 1359 158 1359 132 1402 c 0,20,21
 123 1415 123 1415 123 1429 c 0,22,23
 123 1461 123 1461 160 1474 c 2,24,-1
 309 1532 l 1,0,1
641 1532 m 1,25,26
 676 1476 676 1476 692.5 1420 c 128,-1,27
 709 1364 709 1364 709 1308 c 0,28,29
 709 1208 709 1208 658.5 1117 c 128,-1,30
 608 1026 608 1026 513 949 c 1,31,-1
 436 996 l 2,32,33
 426 1002 426 1002 422 1010.5 c 128,-1,34
 418 1019 418 1019 418 1027 c 0,35,36
 418 1046 418 1046 431 1059 c 0,37,38
 444 1074 444 1074 458.5 1093 c 128,-1,39
 473 1112 473 1112 485 1136 c 128,-1,40
 497 1160 497 1160 504.5 1188 c 128,-1,41
 512 1216 512 1216 512 1248 c 0,42,43
 512 1282 512 1282 501 1320.5 c 128,-1,44
 490 1359 490 1359 464 1402 c 0,45,46
 455 1415 455 1415 455 1429 c 0,47,48
 455 1461 455 1461 492 1474 c 2,49,-1
 641 1532 l 1,25,26
EndSplineSet
Validated: 1
EndChar

StartChar: quotedblbase
Encoding: 8222 8222 231
Width: 782
Flags: W
LayerCount: 2
Fore
SplineSet
309 291 m 1,0,1
 344 235 344 235 360.5 179 c 128,-1,2
 377 123 377 123 377 67 c 0,3,4
 377 -33 377 -33 326.5 -124 c 128,-1,5
 276 -215 276 -215 181 -292 c 1,6,-1
 104 -245 l 2,7,8
 94 -239 94 -239 90 -230.5 c 128,-1,9
 86 -222 86 -222 86 -214 c 0,10,11
 86 -195 86 -195 99 -182 c 0,12,13
 112 -167 112 -167 126.5 -148 c 128,-1,14
 141 -129 141 -129 153 -105 c 128,-1,15
 165 -81 165 -81 172.5 -53 c 128,-1,16
 180 -25 180 -25 180 7 c 0,17,18
 180 41 180 41 169 79.5 c 128,-1,19
 158 118 158 118 132 161 c 0,20,21
 123 174 123 174 123 188 c 0,22,23
 123 220 123 220 160 233 c 2,24,-1
 309 291 l 1,0,1
641 291 m 1,25,26
 676 235 676 235 692.5 179 c 128,-1,27
 709 123 709 123 709 67 c 0,28,29
 709 -33 709 -33 658.5 -124 c 128,-1,30
 608 -215 608 -215 513 -292 c 1,31,-1
 436 -245 l 2,32,33
 426 -239 426 -239 422 -230.5 c 128,-1,34
 418 -222 418 -222 418 -214 c 0,35,36
 418 -195 418 -195 431 -182 c 0,37,38
 444 -167 444 -167 458.5 -148 c 128,-1,39
 473 -129 473 -129 485 -105 c 128,-1,40
 497 -81 497 -81 504.5 -53 c 128,-1,41
 512 -25 512 -25 512 7 c 0,42,43
 512 41 512 41 501 79.5 c 128,-1,44
 490 118 490 118 464 161 c 0,45,46
 455 174 455 174 455 188 c 0,47,48
 455 220 455 220 492 233 c 2,49,-1
 641 291 l 1,25,26
EndSplineSet
Validated: 1
EndChar

StartChar: dagger
Encoding: 8224 8224 232
Width: 1160
Flags: W
LayerCount: 2
Fore
SplineSet
84 913 m 2,0,1
 84 934 84 934 90.5 953 c 128,-1,2
 97 972 97 972 111.5 987 c 128,-1,3
 126 1002 126 1002 147.5 1011 c 128,-1,4
 169 1020 169 1020 199 1020 c 0,5,6
 262 1019 262 1019 336 1003 c 128,-1,7
 410 987 410 987 485 976 c 1,8,-1
 454 1465 l 1,9,10
 509 1497 509 1497 582 1497 c 0,11,12
 618 1497 618 1497 651 1489 c 128,-1,13
 684 1481 684 1481 710 1465 c 1,14,-1
 678 976 l 1,15,16
 753 987 753 987 827.5 1003 c 128,-1,17
 902 1019 902 1019 965 1020 c 0,18,19
 995 1020 995 1020 1017 1011 c 128,-1,20
 1039 1002 1039 1002 1053 987 c 128,-1,21
 1067 972 1067 972 1074 953 c 128,-1,22
 1081 934 1081 934 1081 913 c 2,23,-1
 1081 831 l 1,24,-1
 678 831 l 1,25,-1
 678 477 l 1,26,-1
 710 -323 l 1,27,28
 684 -339 684 -339 651 -347 c 128,-1,29
 618 -355 618 -355 582 -355 c 0,30,31
 509 -355 509 -355 454 -323 c 1,32,-1
 486 477 l 1,33,-1
 486 831 l 1,34,-1
 84 831 l 1,35,-1
 84 913 l 2,0,1
EndSplineSet
Validated: 1
EndChar

StartChar: bullet
Encoding: 8226 8226 233
Width: 1160
Flags: W
LayerCount: 2
Fore
SplineSet
143 593 m 0,0,1
 143 683 143 683 177.5 762 c 128,-1,2
 212 841 212 841 271 900.5 c 128,-1,3
 330 960 330 960 409 994 c 128,-1,4
 488 1028 488 1028 578 1028 c 256,5,6
 668 1028 668 1028 748 994 c 128,-1,7
 828 960 828 960 887 900.5 c 128,-1,8
 946 841 946 841 980.5 762 c 128,-1,9
 1015 683 1015 683 1015 593 c 0,10,11
 1015 504 1015 504 980.5 425.5 c 128,-1,12
 946 347 946 347 887 288 c 128,-1,13
 828 229 828 229 748 195 c 128,-1,14
 668 161 668 161 578 161 c 256,15,16
 488 161 488 161 409 195 c 128,-1,17
 330 229 330 229 271 288 c 128,-1,18
 212 347 212 347 177.5 425.5 c 128,-1,19
 143 504 143 504 143 593 c 0,0,1
EndSplineSet
Validated: 1
EndChar

StartChar: ellipsis
Encoding: 8230 8230 234
Width: 1517
Flags: W
LayerCount: 2
Fore
SplineSet
73 136 m 0,0,1
 73 167 73 167 84.5 195 c 128,-1,2
 96 223 96 223 116.5 243 c 128,-1,3
 137 263 137 263 165 275 c 128,-1,4
 193 287 193 287 225 287 c 0,5,6
 256 287 256 287 284 275 c 128,-1,7
 312 263 312 263 332 243 c 128,-1,8
 352 223 352 223 364 195 c 128,-1,9
 376 167 376 167 376 136 c 0,10,11
 376 104 376 104 364 76.5 c 128,-1,12
 352 49 352 49 332 29 c 128,-1,13
 312 9 312 9 284 -2.5 c 128,-1,14
 256 -14 256 -14 225 -14 c 0,15,16
 193 -14 193 -14 165 -2.5 c 128,-1,17
 137 9 137 9 116.5 29 c 128,-1,18
 96 49 96 49 84.5 76.5 c 128,-1,19
 73 104 73 104 73 136 c 0,0,1
1141 136 m 0,20,21
 1141 167 1141 167 1152.5 195 c 128,-1,22
 1164 223 1164 223 1184.5 243 c 128,-1,23
 1205 263 1205 263 1233 275 c 128,-1,24
 1261 287 1261 287 1293 287 c 0,25,26
 1324 287 1324 287 1352 275 c 128,-1,27
 1380 263 1380 263 1400 243 c 128,-1,28
 1420 223 1420 223 1432 195 c 128,-1,29
 1444 167 1444 167 1444 136 c 0,30,31
 1444 104 1444 104 1432 76.5 c 128,-1,32
 1420 49 1420 49 1400 29 c 128,-1,33
 1380 9 1380 9 1352 -2.5 c 128,-1,34
 1324 -14 1324 -14 1293 -14 c 0,35,36
 1261 -14 1261 -14 1233 -2.5 c 128,-1,37
 1205 9 1205 9 1184.5 29 c 128,-1,38
 1164 49 1164 49 1152.5 76.5 c 128,-1,39
 1141 104 1141 104 1141 136 c 0,20,21
607 136 m 0,40,41
 607 167 607 167 618.5 195 c 128,-1,42
 630 223 630 223 650.5 243 c 128,-1,43
 671 263 671 263 699 275 c 128,-1,44
 727 287 727 287 759 287 c 0,45,46
 790 287 790 287 818 275 c 128,-1,47
 846 263 846 263 866 243 c 128,-1,48
 886 223 886 223 898 195 c 128,-1,49
 910 167 910 167 910 136 c 0,50,51
 910 104 910 104 898 76.5 c 128,-1,52
 886 49 886 49 866 29 c 128,-1,53
 846 9 846 9 818 -2.5 c 128,-1,54
 790 -14 790 -14 759 -14 c 0,55,56
 727 -14 727 -14 699 -2.5 c 128,-1,57
 671 9 671 9 650.5 29 c 128,-1,58
 630 49 630 49 618.5 76.5 c 128,-1,59
 607 104 607 104 607 136 c 0,40,41
EndSplineSet
Validated: 1
EndChar

StartChar: guilsinglleft
Encoding: 8249 8249 235
Width: 642
Flags: W
LayerCount: 2
Fore
SplineSet
123 522 m 1,0,-1
 123 554 l 1,1,-1
 379 950 l 1,2,-1
 460 912 l 2,3,4
 480 903 480 903 489 889 c 128,-1,5
 498 875 498 875 498 858 c 0,6,7
 498 837 498 837 485 815 c 2,8,-1
 347 580 l 2,9,10
 333 554 333 554 315 538 c 1,11,12
 331 524 331 524 347 496 c 2,13,-1
 485 260 l 2,14,15
 498 238 498 238 498 217 c 0,16,17
 498 182 498 182 460 164 c 2,18,-1
 379 126 l 1,19,-1
 123 522 l 1,0,-1
EndSplineSet
Validated: 1
EndChar

StartChar: guilsinglright
Encoding: 8250 8250 236
Width: 642
Flags: W
LayerCount: 2
Fore
SplineSet
263 126 m 1,0,-1
 182 164 l 2,1,2
 162 173 162 173 153 187 c 128,-1,3
 144 201 144 201 144 218 c 0,4,5
 144 238 144 238 157 260 c 2,6,-1
 295 496 l 2,7,8
 311 524 311 524 327 538 c 1,9,10
 309 554 309 554 295 580 c 2,11,-1
 157 815 l 2,12,13
 144 837 144 837 144 858 c 0,14,15
 144 894 144 894 182 912 c 2,16,-1
 263 950 l 1,17,-1
 519 554 l 1,18,-1
 519 522 l 1,19,-1
 263 126 l 1,0,-1
EndSplineSet
Validated: 1
EndChar

StartChar: fraction
Encoding: 8260 8260 237
Width: 711
Flags: W
LayerCount: 2
Fore
SplineSet
52 71 m 2,0,1
 26 30 26 30 -3.5 15 c 128,-1,2
 -33 0 -33 0 -71 0 c 2,3,-1
 -177 0 l 1,4,-1
 657 1365 l 2,5,6
 680 1403 680 1403 711 1424.5 c 128,-1,7
 742 1446 742 1446 787 1446 c 2,8,-1
 892 1446 l 1,9,-1
 52 71 l 2,0,1
EndSplineSet
Validated: 1
EndChar

StartChar: Euro
Encoding: 8364 8364 238
Width: 1160
Flags: W
LayerCount: 2
Fore
SplineSet
37 928 m 1,0,-1
 170 928 l 1,1,2
 193 1050 193 1050 243 1148.5 c 128,-1,3
 293 1247 293 1247 365 1316 c 128,-1,4
 437 1385 437 1385 528 1422.5 c 128,-1,5
 619 1460 619 1460 726 1460 c 0,6,7
 865 1460 865 1460 964 1406.5 c 128,-1,8
 1063 1353 1063 1353 1130 1262 c 1,9,-1
 1043 1168 l 2,10,11
 1033 1157 1033 1157 1022 1148.5 c 128,-1,12
 1011 1140 1011 1140 991 1140 c 0,13,14
 977 1140 977 1140 965.5 1148 c 128,-1,15
 954 1156 954 1156 940 1168 c 128,-1,16
 926 1180 926 1180 909 1194 c 128,-1,17
 892 1208 892 1208 868.5 1220 c 128,-1,18
 845 1232 845 1232 813 1240 c 128,-1,19
 781 1248 781 1248 737 1248 c 0,20,21
 619 1248 619 1248 538 1167 c 128,-1,22
 457 1086 457 1086 425 928 c 1,23,-1
 927 928 l 1,24,-1
 927 852 l 2,25,26
 927 829 927 829 908.5 809.5 c 128,-1,27
 890 790 890 790 858 790 c 2,28,-1
 408 790 l 1,29,30
 407 773 407 773 407 756.5 c 128,-1,31
 407 740 407 740 407 723 c 0,32,33
 407 711 407 711 407 699 c 128,-1,34
 407 687 407 687 408 676 c 1,35,-1
 832 676 l 1,36,-1
 832 601 l 2,37,38
 832 578 832 578 813.5 558.5 c 128,-1,39
 795 539 795 539 764 539 c 2,40,-1
 420 539 l 1,41,42
 448 367 448 367 527.5 282.5 c 128,-1,43
 607 198 607 198 725 198 c 0,44,45
 797 198 797 198 840.5 217.5 c 128,-1,46
 884 237 884 237 911.5 261 c 128,-1,47
 939 285 939 285 957.5 304.5 c 128,-1,48
 976 324 976 324 998 324 c 0,49,50
 1009 324 1009 324 1017.5 320.5 c 128,-1,51
 1026 317 1026 317 1034 307 c 2,52,-1
 1141 209 l 1,53,54
 1071 101 1071 101 963 43.5 c 128,-1,55
 855 -14 855 -14 712 -14 c 0,56,57
 595 -14 595 -14 501.5 25.5 c 128,-1,58
 408 65 408 65 339 137 c 128,-1,59
 270 209 270 209 226 311 c 128,-1,60
 182 413 182 413 164 539 c 1,61,-1
 37 539 l 1,62,-1
 37 676 l 1,63,-1
 153 676 l 1,64,65
 152 687 152 687 152 699 c 128,-1,66
 152 711 152 711 152 723 c 0,67,68
 152 740 152 740 152 756.5 c 128,-1,69
 152 773 152 773 153 790 c 1,70,-1
 37 790 l 1,71,-1
 37 928 l 1,0,-1
EndSplineSet
Validated: 1
EndChar

StartChar: trademark
Encoding: 8482 8482 239
Width: 1452
Flags: W
LayerCount: 2
Fore
SplineSet
960 1165 m 2,0,1
 968 1147 968 1147 974.5 1129.5 c 128,-1,2
 981 1112 981 1112 986 1094 c 1,3,4
 992 1112 992 1112 999 1130 c 128,-1,5
 1006 1148 1006 1148 1015 1165 c 2,6,-1
 1148 1420 l 2,7,8
 1158 1439 1158 1439 1170 1442.5 c 128,-1,9
 1182 1446 1182 1446 1203 1446 c 2,10,-1
 1350 1446 l 1,11,-1
 1350 843 l 1,12,-1
 1200 843 l 1,13,-1
 1200 1145 l 1,14,-1
 1211 1244 l 1,15,-1
 1058 942 l 2,16,17
 1039 905 1039 905 1000 905 c 2,18,-1
 976 905 l 2,19,20
 935 905 935 905 917 942 c 2,21,-1
 766 1239 l 1,22,-1
 777 1145 l 1,23,-1
 777 843 l 1,24,-1
 627 843 l 1,25,-1
 627 1446 l 1,26,-1
 774 1446 l 2,27,28
 796 1446 796 1446 807.5 1443 c 128,-1,29
 819 1440 819 1440 829 1420 c 2,30,-1
 960 1165 l 2,0,1
555 1446 m 1,31,-1
 555 1306 l 1,32,-1
 391 1306 l 1,33,-1
 391 843 l 1,34,-1
 220 843 l 1,35,-1
 220 1306 l 1,36,-1
 57 1306 l 1,37,-1
 57 1446 l 1,38,-1
 555 1446 l 1,31,-1
EndSplineSet
Validated: 1
EndChar

StartChar: minus
Encoding: 8722 8722 240
Width: 1160
Flags: W
LayerCount: 2
Fore
SplineSet
136 763 m 1,0,-1
 1022 763 l 1,1,-1
 1022 580 l 1,2,-1
 136 580 l 1,3,-1
 136 763 l 1,0,-1
EndSplineSet
Validated: 1
EndChar

StartChar: fi
Encoding: 65539 -1 241
Width: 1202
Flags: W
LayerCount: 2
Fore
SplineSet
176 0 m 1,0,-1
 176 840 l 1,1,-1
 87 854 l 2,2,3
 58 859 58 859 40.5 874 c 128,-1,4
 23 889 23 889 23 916 c 2,5,-1
 23 1017 l 1,6,-1
 176 1017 l 1,7,-1
 176 1050 l 2,8,9
 176 1144 176 1144 207 1224.5 c 128,-1,10
 238 1305 238 1305 301 1364 c 128,-1,11
 364 1423 364 1423 460 1456.5 c 128,-1,12
 556 1490 556 1490 687 1490 c 0,13,14
 729 1490 729 1490 773 1485.5 c 128,-1,15
 817 1481 817 1481 849 1471 c 1,16,-1
 841 1343 l 2,17,18
 839 1320 839 1320 816 1315.5 c 128,-1,19
 793 1311 793 1311 759 1311 c 0,20,21
 662 1311 662 1311 596.5 1294 c 128,-1,22
 531 1277 531 1277 490.5 1243.5 c 128,-1,23
 450 1210 450 1210 432.5 1159.5 c 128,-1,24
 415 1109 415 1109 415 1042 c 2,25,-1
 415 1017 l 1,26,-1
 1051 1017 l 1,27,-1
 1051 0 l 1,28,-1
 804 0 l 1,29,-1
 804 841 l 1,30,-1
 423 841 l 1,31,-1
 423 0 l 1,32,-1
 176 0 l 1,0,-1
EndSplineSet
Validated: 1
Ligature2: "'liga' Standard Ligatures in Latin lookup 0 subtable" f i
EndChar

StartChar: fl
Encoding: 65540 -1 242
Width: 1234
Flags: W
LayerCount: 2
Fore
SplineSet
176 0 m 1,0,-1
 176 840 l 1,1,-1
 87 854 l 2,2,3
 58 859 58 859 40.5 874 c 128,-1,4
 23 889 23 889 23 916 c 2,5,-1
 23 1017 l 1,6,-1
 176 1017 l 1,7,-1
 176 1060 l 2,8,9
 176 1142 176 1142 201.5 1217 c 128,-1,10
 227 1292 227 1292 280 1349.5 c 128,-1,11
 333 1407 333 1407 414 1441.5 c 128,-1,12
 495 1476 495 1476 606 1476 c 0,13,14
 697 1476 697 1476 778.5 1470 c 128,-1,15
 860 1464 860 1464 941 1464 c 2,16,-1
 1080 1464 l 1,17,-1
 1080 0 l 1,18,-1
 834 0 l 1,19,-1
 834 1292 l 1,20,21
 781 1294 781 1294 730.5 1297 c 128,-1,22
 680 1300 680 1300 645 1300 c 0,23,24
 533 1300 533 1300 474 1237.5 c 128,-1,25
 415 1175 415 1175 415 1060 c 2,26,-1
 415 1017 l 1,27,-1
 658 1017 l 1,28,-1
 658 841 l 1,29,-1
 423 841 l 1,30,-1
 423 0 l 1,31,-1
 176 0 l 1,0,-1
EndSplineSet
Validated: 1
Ligature2: "'liga' Standard Ligatures in Latin lookup 0 subtable" f l
EndChar

StartChar: grave.case
Encoding: 65541 -1 243
Width: 638
Flags: W
LayerCount: 2
Fore
SplineSet
192 1791 m 2,0,1
 212 1791 212 1791 226 1789.5 c 128,-1,2
 240 1788 240 1788 251.5 1783.5 c 128,-1,3
 263 1779 263 1779 273 1771 c 128,-1,4
 283 1763 283 1763 295 1751 c 2,5,-1
 492 1549 l 1,6,-1
 297 1549 l 2,7,8
 283 1549 283 1549 272.5 1549.5 c 128,-1,9
 262 1550 262 1550 253 1552.5 c 128,-1,10
 244 1555 244 1555 235 1560 c 128,-1,11
 226 1565 226 1565 215 1573 c 2,12,-1
 -82 1791 l 1,13,-1
 192 1791 l 2,0,1
EndSplineSet
Validated: 1
EndChar

StartChar: dieresis.case
Encoding: 65542 -1 244
Width: 638
Flags: W
LayerCount: 2
Fore
SplineSet
237 1667 m 256,0,1
 237 1640 237 1640 226 1616 c 128,-1,2
 215 1592 215 1592 196 1574 c 128,-1,3
 177 1556 177 1556 152 1546 c 128,-1,4
 127 1536 127 1536 99 1536 c 0,5,6
 73 1536 73 1536 49.5 1546 c 128,-1,7
 26 1556 26 1556 8 1574 c 128,-1,8
 -10 1592 -10 1592 -20.5 1616 c 128,-1,9
 -31 1640 -31 1640 -31 1667 c 256,10,11
 -31 1694 -31 1694 -20.5 1718.5 c 128,-1,12
 -10 1743 -10 1743 8 1761.5 c 128,-1,13
 26 1780 26 1780 49.5 1791 c 128,-1,14
 73 1802 73 1802 99 1802 c 0,15,16
 127 1802 127 1802 152 1791 c 128,-1,17
 177 1780 177 1780 196 1761.5 c 128,-1,18
 215 1743 215 1743 226 1718.5 c 128,-1,19
 237 1694 237 1694 237 1667 c 256,0,1
669 1667 m 256,20,21
 669 1640 669 1640 658.5 1616 c 128,-1,22
 648 1592 648 1592 630 1574 c 128,-1,23
 612 1556 612 1556 587.5 1546 c 128,-1,24
 563 1536 563 1536 535 1536 c 0,25,26
 508 1536 508 1536 483.5 1546 c 128,-1,27
 459 1556 459 1556 440.5 1574 c 128,-1,28
 422 1592 422 1592 411.5 1616 c 128,-1,29
 401 1640 401 1640 401 1667 c 256,30,31
 401 1694 401 1694 411.5 1718.5 c 128,-1,32
 422 1743 422 1743 440.5 1761.5 c 128,-1,33
 459 1780 459 1780 483.5 1791 c 128,-1,34
 508 1802 508 1802 535 1802 c 0,35,36
 563 1802 563 1802 587.5 1791 c 128,-1,37
 612 1780 612 1780 630 1761.5 c 128,-1,38
 648 1743 648 1743 658.5 1718.5 c 128,-1,39
 669 1694 669 1694 669 1667 c 256,20,21
EndSplineSet
Validated: 1
EndChar

StartChar: acute.case
Encoding: 65543 -1 245
Width: 638
Flags: W
LayerCount: 2
Fore
SplineSet
719 1791 m 1,0,-1
 423 1575 l 2,1,2
 412 1567 412 1567 402.5 1562 c 128,-1,3
 393 1557 393 1557 383.5 1554 c 128,-1,4
 374 1551 374 1551 363.5 1550 c 128,-1,5
 353 1549 353 1549 339 1549 c 2,6,-1
 145 1549 l 1,7,-1
 341 1751 l 2,8,9
 353 1763 353 1763 363.5 1771 c 128,-1,10
 374 1779 374 1779 385 1783.5 c 128,-1,11
 396 1788 396 1788 410 1789.5 c 128,-1,12
 424 1791 424 1791 444 1791 c 2,13,-1
 719 1791 l 1,0,-1
EndSplineSet
Validated: 1
EndChar

